<?xml version="1.0" encoding="UTF-8"?>
<svg xmlns="http://www.w3.org/2000/svg" viewBox="0 0 900 1200" role="img" aria-labelledby="title desc">
  <title id="title">horse coloring page</title>
  <desc id="desc">Original copyright-free DrawSplat line art for classroom coloring use.</desc>
  <rect width="900" height="1200" fill="#fff"/>
  <g fill="none" stroke="#111827" stroke-width="10" stroke-linecap="round" stroke-linejoin="round">
    <rect x="42" y="42" width="816" height="1116" rx="34" stroke-width="5"/>
    <ellipse cx="468" cy="626" rx="226" ry="168"/><path d="M646 552 C710 424 790 382 824 454 C808 554 734 610 650 608"/>
    <circle cx="742" cy="430" r="76"/><path d="M720 410 h.1 M774 454 C750 478 724 478 700 458"/>
    <path d="M596 760 v220 M706 728 v252 M330 760 v220 M232 724 v256"/>
    <path d="M236 540 C164 506 120 450 110 384 M662 370 l-52 -100 M724 360 l22 -112"/>
  </g>
  <g fill="none" stroke="#111827" stroke-width="4" stroke-linecap="round" opacity=".45">
    <path d="M90 1110 C180 1080 250 1140 350 1112 S540 1088 650 1118 S790 1138 830 1100"/>
  </g>
  <metadata>DrawSplat original procedural SVG line art; category=animals; license=CC0-1.0/public-domain-dedicated.</metadata>
</svg>
