<?xml version="1.0" encoding="UTF-8"?>
<svg xmlns="http://www.w3.org/2000/svg" viewBox="0 0 900 1200" role="img" aria-labelledby="title desc">
  <title id="title">Horse coloring page</title>
  <desc id="desc">Original copyright-free DrawSplat printable line art for classroom coloring use.</desc>
  <rect width="900" height="1200" fill="#fff"/>
  <g fill="none" stroke="#111827" stroke-width="11" stroke-linecap="round" stroke-linejoin="round">
    <rect x="42" y="42" width="816" height="1116" rx="34" stroke-width="5"/>
    <ellipse cx="450" cy="692" rx="226" ry="142"/><path d="M616 620 C666 492 766 436 818 514 C792 604 724 662 634 656"/><circle cx="760" cy="478" r="70"/><path d="M734 462 h.1 M788 506 C766 528 740 528 716 508"/><path d="M642 392 C600 462 604 552 638 636"/><path d="M300 796 v176 M440 814 v164 M578 796 v176 M678 730 v168"/><path d="M236 630 C150 588 118 516 108 438 M676 408 l-42 -104 M740 410 l38 -98"/>
  </g>
  <g fill="none" stroke="#111827" stroke-width="5" stroke-linecap="round" stroke-linejoin="round" opacity=".55">
    <path d="M96 1080 C230 1038 350 1112 482 1076 S704 1038 812 1090"/>
  </g>
  <metadata>DrawSplat original SVG line art; category=animals; license=CC0-1.0/public-domain-dedicated; generated=subject-specific-v2.</metadata>
</svg>
