<?xml version="1.0" encoding="UTF-8"?>
<svg xmlns="http://www.w3.org/2000/svg" viewBox="0 0 900 1200" role="img" aria-labelledby="title desc">
  <title id="title">Cheetah coloring page</title>
  <desc id="desc">Original copyright-free DrawSplat printable line art for classroom coloring use.</desc>
  <rect width="900" height="1200" fill="#fff"/>
  <g fill="none" stroke="#111827" stroke-width="11" stroke-linecap="round" stroke-linejoin="round">
    <rect x="42" y="42" width="816" height="1116" rx="34" stroke-width="5"/>
    <ellipse cx="450" cy="676" rx="232" ry="138"/><path d="M632 612 C680 510 764 464 816 526 C792 616 724 662 642 654"/><circle cx="762" cy="492" r="66"/><path d="M740 478 h.1 M790 516 C770 538 744 538 720 518"/><path d="M300 792 v170 M438 812 v156 M578 792 v170 M672 728 v160"/><path d="M236 630 C150 602 112 542 102 476"/><circle cx="340" cy="638" r="18"/><circle cx="442" cy="706" r="16"/><circle cx="546" cy="632" r="18"/><circle cx="632" cy="686" r="14"/><circle cx="722" cy="454" r="12"/><path d="M744 520 C720 558 706 590 700 626"/>
  </g>
  <g fill="none" stroke="#111827" stroke-width="5" stroke-linecap="round" stroke-linejoin="round" opacity=".55">
    <path d="M96 1080 C230 1038 350 1112 482 1076 S704 1038 812 1090"/>
  </g>
  <metadata>DrawSplat original SVG line art; category=animals; license=CC0-1.0/public-domain-dedicated; generated=subject-specific-v2.</metadata>
</svg>
