<?xml version="1.0" encoding="UTF-8"?>
<svg xmlns="http://www.w3.org/2000/svg" viewBox="0 0 900 1200" role="img" aria-labelledby="title desc">
  <title id="title">Lion coloring page</title>
  <desc id="desc">Original copyright-free DrawSplat printable line art for classroom coloring use.</desc>
  <rect width="900" height="1200" fill="#fff"/>
  <g fill="none" stroke="#111827" stroke-width="11" stroke-linecap="round" stroke-linejoin="round">
    <rect x="42" y="42" width="816" height="1116" rx="34" stroke-width="5"/>
    <circle cx="450" cy="402" r="190"/><path d="M450 200 L492 262 L566 230 L578 308 L652 326 L604 392 L650 456 L574 482 L556 560 L486 524 L450 590 L414 524 L344 560 L326 482 L250 456 L296 392 L248 326 L322 308 L334 230 L408 262 Z"/><circle cx="450" cy="402" r="106"/><path d="M412 386 h.1 M488 386 h.1 M450 428 C424 456 476 456 450 428 Z M396 486 C432 520 468 520 504 486"/><ellipse cx="450" cy="720" rx="188" ry="210"/><path d="M320 862 v124 M580 862 v124"/>
  </g>
  <g fill="none" stroke="#111827" stroke-width="5" stroke-linecap="round" stroke-linejoin="round" opacity=".55">
    <path d="M96 1080 C230 1038 350 1112 482 1076 S704 1038 812 1090"/>
  </g>
  <metadata>DrawSplat original SVG line art; category=animals; license=CC0-1.0/public-domain-dedicated; generated=subject-specific-v2.</metadata>
</svg>
