<?xml version="1.0" encoding="UTF-8"?>
<svg xmlns="http://www.w3.org/2000/svg" viewBox="0 0 900 1200" role="img" aria-labelledby="title desc">
  <title id="title">Dolphin coloring page</title>
  <desc id="desc">Original copyright-free DrawSplat printable line art for classroom coloring use.</desc>
  <rect width="900" height="1200" fill="#fff"/>
  <g fill="none" stroke="#111827" stroke-width="11" stroke-linecap="round" stroke-linejoin="round">
    <rect x="42" y="42" width="816" height="1116" rx="34" stroke-width="5"/>
    <path d="M134 642 C292 394 606 376 790 530 C642 552 542 650 426 820 C356 742 258 688 134 642 Z"/><path d="M786 530 L850 438 L846 616 Z"/><path d="M426 822 C500 902 618 920 706 856"/><path d="M430 466 C474 360 584 320 662 384 C594 456 516 480 430 466 Z"/><path d="M614 520 h.1"/><path d="M270 640 C340 610 414 612 488 652"/>
  </g>
  <g fill="none" stroke="#111827" stroke-width="5" stroke-linecap="round" stroke-linejoin="round" opacity=".55">
    <path d="M90 1010 C194 952 302 1024 414 988 S614 952 738 1010 S810 1048 846 1012"/>
  </g>
  <metadata>DrawSplat original SVG line art; category=animals; license=CC0-1.0/public-domain-dedicated; generated=subject-specific-v2.</metadata>
</svg>
