<?xml version="1.0" encoding="UTF-8"?>
<svg xmlns="http://www.w3.org/2000/svg" viewBox="0 0 900 1200" role="img" aria-labelledby="title desc">
  <title id="title">panda coloring page</title>
  <desc id="desc">Original copyright-free DrawSplat line art for classroom coloring use.</desc>
  <rect width="900" height="1200" fill="#fff"/>
  <g fill="none" stroke="#111827" stroke-width="10" stroke-linecap="round" stroke-linejoin="round">
    <rect x="42" y="42" width="816" height="1116" rx="34" stroke-width="5"/>
    <ellipse cx="450" cy="632" rx="206" ry="246"/><circle cx="450" cy="350" r="154"/>
    <circle cx="336" cy="228" r="64"/><circle cx="564" cy="228" r="64"/>
    <path d="M390 354 h.1 M510 354 h.1 M450 386 C420 430 480 430 450 386 Z M386 470 C430 512 488 512 528 470"/>
    <path d="M288 734 C210 792 178 876 184 980 M612 734 C690 792 722 876 716 980"/>
    <path d="M364 866 v126 M536 866 v126"/>
  </g>
  <g fill="none" stroke="#111827" stroke-width="4" stroke-linecap="round" opacity=".45">
    <path d="M90 1110 C180 1080 250 1140 350 1112 S540 1088 650 1118 S790 1138 830 1100"/>
  </g>
  <metadata>DrawSplat original procedural SVG line art; category=animals; license=CC0-1.0/public-domain-dedicated.</metadata>
</svg>
