<?xml version="1.0" encoding="UTF-8"?>
<svg xmlns="http://www.w3.org/2000/svg" viewBox="0 0 900 1200" role="img" aria-labelledby="title desc">
  <title id="title">Owl coloring page</title>
  <desc id="desc">Original copyright-free DrawSplat printable line art for classroom coloring use.</desc>
  <rect width="900" height="1200" fill="#fff"/>
  <g fill="none" stroke="#111827" stroke-width="11" stroke-linecap="round" stroke-linejoin="round">
    <rect x="42" y="42" width="816" height="1116" rx="34" stroke-width="5"/>
    <path d="M450 210 C620 250 706 410 676 650 C648 878 550 996 450 1014 C350 996 252 878 224 650 C194 410 280 250 450 210 Z"/><circle cx="380" cy="402" r="78"/><circle cx="520" cy="402" r="78"/><circle cx="380" cy="402" r="20"/><circle cx="520" cy="402" r="20"/><path d="M450 454 l-42 66 h84 Z"/><path d="M290 590 C350 654 380 760 358 890 M610 590 C550 654 520 760 542 890"/><path d="M372 998 l-54 60 M528 998 l54 60"/>
  </g>
  <g fill="none" stroke="#111827" stroke-width="5" stroke-linecap="round" stroke-linejoin="round" opacity=".55">
    <path d="M96 1080 C230 1038 350 1112 482 1076 S704 1038 812 1090"/>
  </g>
  <metadata>DrawSplat original SVG line art; category=animals; license=CC0-1.0/public-domain-dedicated; generated=subject-specific-v2.</metadata>
</svg>
