<?xml version="1.0" encoding="UTF-8"?>
<svg xmlns="http://www.w3.org/2000/svg" viewBox="0 0 900 1200" role="img" aria-labelledby="title desc">
  <title id="title">Whale coloring page</title>
  <desc id="desc">Original copyright-free DrawSplat printable line art for classroom coloring use.</desc>
  <rect width="900" height="1200" fill="#fff"/>
  <g fill="none" stroke="#111827" stroke-width="11" stroke-linecap="round" stroke-linejoin="round">
    <rect x="42" y="42" width="816" height="1116" rx="34" stroke-width="5"/>
    <path d="M104 634 C296 414 650 440 800 630 C644 814 304 820 104 634 Z"/><path d="M800 630 L856 540 L854 724 Z"/><path d="M378 470 C424 348 546 322 636 390 C560 478 462 504 378 470 Z"/><path d="M622 602 h.1"/><path d="M222 690 C316 640 444 640 550 698"/><path d="M500 266 C472 184 512 132 576 102 M516 266 C594 202 666 202 720 256"/>
  </g>
  <g fill="none" stroke="#111827" stroke-width="5" stroke-linecap="round" stroke-linejoin="round" opacity=".55">
    <path d="M90 1010 C194 952 302 1024 414 988 S614 952 738 1010 S810 1048 846 1012"/>
  </g>
  <metadata>DrawSplat original SVG line art; category=animals; license=CC0-1.0/public-domain-dedicated; generated=subject-specific-v2.</metadata>
</svg>
