<?xml version="1.0" encoding="UTF-8"?>
<svg xmlns="http://www.w3.org/2000/svg" viewBox="0 0 900 1200" role="img" aria-labelledby="title desc">
  <title id="title">Fox coloring page</title>
  <desc id="desc">Original copyright-free DrawSplat printable line art for classroom coloring use.</desc>
  <rect width="900" height="1200" fill="#fff"/>
  <g fill="none" stroke="#111827" stroke-width="11" stroke-linecap="round" stroke-linejoin="round">
    <rect x="42" y="42" width="816" height="1116" rx="34" stroke-width="5"/>
    <path d="M450 250 L610 420 L566 660 H334 L290 420 Z"/><path d="M362 350 h.1 M538 350 h.1 M450 420 C418 454 482 454 450 420 Z M384 520 C426 556 474 556 516 520"/><ellipse cx="450" cy="760" rx="150" ry="188"/><path d="M590 724 C740 720 820 828 772 976 C662 950 584 862 590 724 Z"/><path d="M330 866 v118 M570 866 v118"/><path d="M334 660 C250 700 214 786 224 912 M566 660 C650 700 686 786 676 912"/>
  </g>
  <g fill="none" stroke="#111827" stroke-width="5" stroke-linecap="round" stroke-linejoin="round" opacity=".55">
    <path d="M96 1080 C230 1038 350 1112 482 1076 S704 1038 812 1090"/>
  </g>
  <metadata>DrawSplat original SVG line art; category=animals; license=CC0-1.0/public-domain-dedicated; generated=subject-specific-v2.</metadata>
</svg>
