<?xml version="1.0" encoding="UTF-8"?>
<svg xmlns="http://www.w3.org/2000/svg" viewBox="0 0 900 1200" role="img" aria-labelledby="title desc">
  <title id="title">Frog coloring page</title>
  <desc id="desc">Original copyright-free DrawSplat printable line art for classroom coloring use.</desc>
  <rect width="900" height="1200" fill="#fff"/>
  <g fill="none" stroke="#111827" stroke-width="11" stroke-linecap="round" stroke-linejoin="round">
    <rect x="42" y="42" width="816" height="1116" rx="34" stroke-width="5"/>
    <ellipse cx="450" cy="650" rx="224" ry="180"/><circle cx="348" cy="448" r="70"/><circle cx="552" cy="448" r="70"/><circle cx="348" cy="448" r="18"/><circle cx="552" cy="448" r="18"/><path d="M360 620 C420 660 480 660 540 620"/><path d="M300 724 C200 730 140 792 112 890 M600 724 C700 730 760 792 788 890"/><path d="M330 786 C250 882 260 978 350 1014 M570 786 C650 882 640 978 550 1014"/>
  </g>
  <g fill="none" stroke="#111827" stroke-width="5" stroke-linecap="round" stroke-linejoin="round" opacity=".55">
    <path d="M120 1022 C250 960 360 1034 480 1004 S696 966 804 1030"/>
  </g>
  <metadata>DrawSplat original SVG line art; category=animals; license=CC0-1.0/public-domain-dedicated; generated=subject-specific-v2.</metadata>
</svg>
