<?xml version="1.0" encoding="UTF-8"?>
<svg xmlns="http://www.w3.org/2000/svg" viewBox="0 0 900 1200" role="img" aria-labelledby="title desc">
  <title id="title">Giraffe coloring page</title>
  <desc id="desc">Original copyright-free DrawSplat printable line art for classroom coloring use.</desc>
  <rect width="900" height="1200" fill="#fff"/>
  <g fill="none" stroke="#111827" stroke-width="11" stroke-linecap="round" stroke-linejoin="round">
    <rect x="42" y="42" width="816" height="1116" rx="34" stroke-width="5"/>
    <ellipse cx="474" cy="750" rx="190" ry="132"/><path d="M548 668 C558 500 588 342 656 230 C746 242 776 326 732 402 C686 484 656 570 642 704"/><circle cx="692" cy="238" r="72"/><path d="M660 168 l-28 -70 M720 172 l30 -70"/><path d="M670 230 h.1 M724 260 C700 284 674 284 650 264"/><path d="M340 820 v156 M480 836 v156 M594 810 v166 M672 760 v170"/><circle cx="420" cy="710" r="28"/><circle cx="528" cy="762" r="24"/><circle cx="612" cy="604" r="22"/><circle cx="670" cy="384" r="18"/>
  </g>
  <g fill="none" stroke="#111827" stroke-width="5" stroke-linecap="round" stroke-linejoin="round" opacity=".55">
    <path d="M96 1080 C230 1038 350 1112 482 1076 S704 1038 812 1090"/>
  </g>
  <metadata>DrawSplat original SVG line art; category=animals; license=CC0-1.0/public-domain-dedicated; generated=subject-specific-v2.</metadata>
</svg>
