<?xml version="1.0" encoding="UTF-8"?>
<svg xmlns="http://www.w3.org/2000/svg" viewBox="0 0 900 1200" role="img" aria-labelledby="title desc">
  <title id="title">Rabbit coloring page</title>
  <desc id="desc">Original copyright-free DrawSplat printable line art for classroom coloring use.</desc>
  <rect width="900" height="1200" fill="#fff"/>
  <g fill="none" stroke="#111827" stroke-width="11" stroke-linecap="round" stroke-linejoin="round">
    <rect x="42" y="42" width="816" height="1116" rx="34" stroke-width="5"/>
    <ellipse cx="450" cy="650" rx="170" ry="236"/><circle cx="450" cy="380" r="124"/><path d="M394 286 C300 88 376 44 452 260 Z"/><path d="M506 286 C600 88 524 44 448 260 Z"/><path d="M402 370 h.1 M498 370 h.1 M450 412 C424 438 476 438 450 412 Z M392 474 C430 508 470 508 508 474"/><path d="M326 774 C228 830 190 912 206 1008 M574 774 C672 830 710 912 694 1008"/><path d="M372 872 v116 M528 872 v116"/>
  </g>
  <g fill="none" stroke="#111827" stroke-width="5" stroke-linecap="round" stroke-linejoin="round" opacity=".55">
    <path d="M96 1080 C230 1038 350 1112 482 1076 S704 1038 812 1090"/>
  </g>
  <metadata>DrawSplat original SVG line art; category=animals; license=CC0-1.0/public-domain-dedicated; generated=subject-specific-v2.</metadata>
</svg>
