<?xml version="1.0" encoding="UTF-8"?>
<svg xmlns="http://www.w3.org/2000/svg" viewBox="0 0 900 1200" role="img" aria-labelledby="title desc">
  <title id="title">Koala coloring page</title>
  <desc id="desc">Original copyright-free DrawSplat printable line art for classroom coloring use.</desc>
  <rect width="900" height="1200" fill="#fff"/>
  <g fill="none" stroke="#111827" stroke-width="11" stroke-linecap="round" stroke-linejoin="round">
    <rect x="42" y="42" width="816" height="1116" rx="34" stroke-width="5"/>
    <circle cx="450" cy="430" r="154"/><circle cx="292" cy="360" r="88"/><circle cx="608" cy="360" r="88"/><ellipse cx="450" cy="440" rx="54" ry="76"/><path d="M388 404 h.1 M512 404 h.1 M394 512 C430 548 470 548 506 512"/><ellipse cx="450" cy="746" rx="160" ry="220"/><path d="M330 650 C260 710 230 820 246 954 M570 650 C640 710 670 820 654 954"/><path d="M672 260 C646 492 646 812 674 1040"/>
  </g>
  <g fill="none" stroke="#111827" stroke-width="5" stroke-linecap="round" stroke-linejoin="round" opacity=".55">
    <path d="M96 1080 C230 1038 350 1112 482 1076 S704 1038 812 1090"/>
  </g>
  <metadata>DrawSplat original SVG line art; category=animals; license=CC0-1.0/public-domain-dedicated; generated=subject-specific-v2.</metadata>
</svg>
