<?xml version="1.0" encoding="UTF-8"?>
<svg xmlns="http://www.w3.org/2000/svg" viewBox="0 0 900 1200" role="img" aria-labelledby="title desc">
  <title id="title">Sea Turtle coloring page</title>
  <desc id="desc">Original copyright-free DrawSplat printable line art for classroom coloring use.</desc>
  <rect width="900" height="1200" fill="#fff"/>
  <g fill="none" stroke="#111827" stroke-width="11" stroke-linecap="round" stroke-linejoin="round">
    <rect x="42" y="42" width="816" height="1116" rx="34" stroke-width="5"/>
    <ellipse cx="450" cy="640" rx="236" ry="178"/><circle cx="450" cy="640" r="78"/><path d="M278 548 C376 500 526 500 622 548 M236 640 H664 M278 732 C376 780 526 780 622 732"/><path d="M676 624 C760 574 820 592 846 650 C792 704 734 708 676 656 Z"/><path d="M244 548 C152 492 80 516 64 594 C132 636 194 626 244 548 Z"/><path d="M244 732 C152 788 80 764 64 686 C132 644 194 654 244 732 Z"/><path d="M604 548 C704 472 792 480 826 558 C752 622 676 620 604 548 Z"/><path d="M604 732 C704 808 792 800 826 722 C752 658 676 660 604 732 Z"/>
  </g>
  <g fill="none" stroke="#111827" stroke-width="5" stroke-linecap="round" stroke-linejoin="round" opacity=".55">
    <path d="M90 1010 C194 952 302 1024 414 988 S614 952 738 1010 S810 1048 846 1012"/>
  </g>
  <metadata>DrawSplat original SVG line art; category=animals; license=CC0-1.0/public-domain-dedicated; generated=subject-specific-v2.</metadata>
</svg>
