<?xml version="1.0" encoding="UTF-8"?>
<svg xmlns="http://www.w3.org/2000/svg" viewBox="0 0 900 1200" role="img" aria-labelledby="title desc">
  <title id="title">Penguin coloring page</title>
  <desc id="desc">Original copyright-free DrawSplat printable line art for classroom coloring use.</desc>
  <rect width="900" height="1200" fill="#fff"/>
  <g fill="none" stroke="#111827" stroke-width="11" stroke-linecap="round" stroke-linejoin="round">
    <rect x="42" y="42" width="816" height="1116" rx="34" stroke-width="5"/>
    <ellipse cx="450" cy="640" rx="174" ry="344"/><ellipse cx="450" cy="690" rx="116" ry="244"/><circle cx="450" cy="330" r="118"/><path d="M450 360 l-54 58 h108 Z"/><path d="M404 320 h.1 M496 320 h.1"/><path d="M300 574 C198 656 182 790 260 908 M600 574 C702 656 718 790 640 908"/><path d="M382 980 l-86 54 M518 980 l86 54"/>
  </g>
  <g fill="none" stroke="#111827" stroke-width="5" stroke-linecap="round" stroke-linejoin="round" opacity=".55">
    <path d="M118 1060 H800 M166 1008 C244 968 326 1016 410 992 S590 964 706 1014"/>
  </g>
  <metadata>DrawSplat original SVG line art; category=animals; license=CC0-1.0/public-domain-dedicated; generated=subject-specific-v2.</metadata>
</svg>
