<?xml version="1.0" encoding="UTF-8"?>
<svg xmlns="http://www.w3.org/2000/svg" viewBox="0 0 900 1200" role="img" aria-labelledby="title desc">
  <title id="title">Zebra coloring page</title>
  <desc id="desc">Original copyright-free DrawSplat printable line art for classroom coloring use.</desc>
  <rect width="900" height="1200" fill="#fff"/>
  <g fill="none" stroke="#111827" stroke-width="11" stroke-linecap="round" stroke-linejoin="round">
    <rect x="42" y="42" width="816" height="1116" rx="34" stroke-width="5"/>
    <ellipse cx="456" cy="674" rx="232" ry="150"/><path d="M636 610 C688 490 774 444 820 506 C792 600 728 650 646 654"/><circle cx="770" cy="480" r="70"/><path d="M740 468 h.1 M792 506 C770 528 744 528 720 508"/><path d="M300 790 v176 M442 812 v164 M582 792 v176 M668 724 v168"/><path d="M300 548 l88 250 M404 526 l104 294 M514 536 l100 260 M650 584 l-78 210 M706 430 l-62 170 M782 420 l-70 134"/><path d="M642 376 l-50 -104 M708 374 l34 -112"/>
  </g>
  <g fill="none" stroke="#111827" stroke-width="5" stroke-linecap="round" stroke-linejoin="round" opacity=".55">
    <path d="M96 1080 C230 1038 350 1112 482 1076 S704 1038 812 1090"/>
  </g>
  <metadata>DrawSplat original SVG line art; category=animals; license=CC0-1.0/public-domain-dedicated; generated=subject-specific-v2.</metadata>
</svg>
