<?xml version="1.0" encoding="UTF-8"?>
<svg xmlns="http://www.w3.org/2000/svg" viewBox="0 0 900 1200" role="img" aria-labelledby="title desc">
  <title id="title">Kangaroo coloring page</title>
  <desc id="desc">Original copyright-free DrawSplat printable line art for classroom coloring use.</desc>
  <rect width="900" height="1200" fill="#fff"/>
  <g fill="none" stroke="#111827" stroke-width="11" stroke-linecap="round" stroke-linejoin="round">
    <rect x="42" y="42" width="816" height="1116" rx="34" stroke-width="5"/>
    <ellipse cx="430" cy="656" rx="150" ry="246"/><circle cx="490" cy="328" r="90"/><path d="M448 262 C394 122 456 86 512 246 M526 258 C604 132 654 186 552 294"/><path d="M468 318 h.1 M522 356 C500 382 474 382 452 360"/><path d="M534 620 C648 700 724 834 782 1000"/><path d="M360 824 C260 886 204 954 152 1040"/><path d="M486 828 C590 884 646 954 702 1040"/><path d="M350 596 C296 640 268 706 278 782 M502 568 C572 600 610 666 614 746"/><ellipse cx="496" cy="690" rx="48" ry="74"/>
  </g>
  <g fill="none" stroke="#111827" stroke-width="5" stroke-linecap="round" stroke-linejoin="round" opacity=".55">
    <path d="M96 1080 C230 1038 350 1112 482 1076 S704 1038 812 1090"/>
  </g>
  <metadata>DrawSplat original SVG line art; category=animals; license=CC0-1.0/public-domain-dedicated; generated=subject-specific-v2.</metadata>
</svg>
