<?xml version="1.0" encoding="UTF-8"?>
<svg xmlns="http://www.w3.org/2000/svg" viewBox="0 0 900 1200" role="img" aria-labelledby="title desc">
  <title id="title">Bear coloring page</title>
  <desc id="desc">Original copyright-free DrawSplat printable line art for classroom coloring use.</desc>
  <rect width="900" height="1200" fill="#fff"/>
  <g fill="none" stroke="#111827" stroke-width="11" stroke-linecap="round" stroke-linejoin="round">
    <rect x="42" y="42" width="816" height="1116" rx="34" stroke-width="5"/>
    <ellipse cx="450" cy="662" rx="210" ry="256"/><circle cx="450" cy="356" r="148"/><circle cx="328" cy="230" r="62"/><circle cx="572" cy="230" r="62"/><ellipse cx="450" cy="426" rx="72" ry="58"/><path d="M396 340 h.1 M504 340 h.1 M450 402 C420 430 480 430 450 402 Z M386 474 C430 512 470 512 514 474"/><path d="M292 730 C210 802 174 896 190 1000 M608 730 C690 802 726 896 710 1000"/><path d="M354 858 v134 M546 858 v134"/>
  </g>
  <g fill="none" stroke="#111827" stroke-width="5" stroke-linecap="round" stroke-linejoin="round" opacity=".55">
    <path d="M96 1080 C230 1038 350 1112 482 1076 S704 1038 812 1090"/>
  </g>
  <metadata>DrawSplat original SVG line art; category=animals; license=CC0-1.0/public-domain-dedicated; generated=subject-specific-v2.</metadata>
</svg>
