<?xml version="1.0" encoding="UTF-8"?>
<svg xmlns="http://www.w3.org/2000/svg" viewBox="0 0 900 1200" role="img" aria-labelledby="title desc">
  <title id="title">Elephant coloring page</title>
  <desc id="desc">Original copyright-free DrawSplat printable line art for classroom coloring use.</desc>
  <rect width="900" height="1200" fill="#fff"/>
  <g fill="none" stroke="#111827" stroke-width="11" stroke-linecap="round" stroke-linejoin="round">
    <rect x="42" y="42" width="816" height="1116" rx="34" stroke-width="5"/>
    <ellipse cx="450" cy="646" rx="230" ry="238"/><circle cx="450" cy="380" r="150"/><path d="M310 372 C190 250 126 340 170 502 C254 506 304 456 310 372 Z"/><path d="M590 372 C710 250 774 340 730 502 C646 506 596 456 590 372 Z"/><path d="M450 434 C392 554 418 690 500 760 C558 664 522 542 450 434 Z"/><path d="M386 398 h.1 M514 398 h.1"/><path d="M360 498 C324 558 290 590 242 610 M540 498 C576 558 610 590 658 610"/><path d="M308 820 v150 M430 862 v130 M560 862 v130 M682 820 v150"/>
  </g>
  <g fill="none" stroke="#111827" stroke-width="5" stroke-linecap="round" stroke-linejoin="round" opacity=".55">
    <path d="M96 1080 C230 1038 350 1112 482 1076 S704 1038 812 1090"/>
  </g>
  <metadata>DrawSplat original SVG line art; category=animals; license=CC0-1.0/public-domain-dedicated; generated=subject-specific-v2.</metadata>
</svg>
