<?xml version="1.0" encoding="UTF-8"?>
<svg xmlns="http://www.w3.org/2000/svg" viewBox="0 0 900 1200" role="img" aria-labelledby="title desc">
  <title id="title">Octopus coloring page</title>
  <desc id="desc">Original copyright-free DrawSplat printable line art for classroom coloring use.</desc>
  <rect width="900" height="1200" fill="#fff"/>
  <g fill="none" stroke="#111827" stroke-width="11" stroke-linecap="round" stroke-linejoin="round">
    <rect x="42" y="42" width="816" height="1116" rx="34" stroke-width="5"/>
    <path d="M450 238 C590 238 670 350 658 500 C648 628 560 710 450 710 C340 710 252 628 242 500 C230 350 310 238 450 238 Z"/><circle cx="392" cy="420" r="20"/><circle cx="508" cy="420" r="20"/><path d="M390 514 C430 548 470 548 510 514"/><path d="M310 650 C212 710 184 836 244 944 C310 874 356 780 350 690"/><path d="M382 696 C302 800 318 930 408 1012 C450 904 442 798 416 704"/><path d="M472 704 C446 798 450 904 492 1012 C582 930 598 800 518 696"/><path d="M590 650 C688 710 716 836 656 944 C590 874 544 780 550 690"/><path d="M262 604 C154 626 92 724 118 838 C218 804 286 726 314 642"/><path d="M638 604 C746 626 808 724 782 838 C682 804 614 726 586 642"/><path d="M390 692 C342 770 242 798 166 754 M510 692 C558 770 658 798 734 754"/>
  </g>
  <g fill="none" stroke="#111827" stroke-width="5" stroke-linecap="round" stroke-linejoin="round" opacity=".55">
    <path d="M90 1010 C194 952 302 1024 414 988 S614 952 738 1010 S810 1048 846 1012"/>
  </g>
  <metadata>DrawSplat original SVG line art; category=animals; license=CC0-1.0/public-domain-dedicated; generated=subject-specific-v2.</metadata>
</svg>
