<?xml version="1.0" encoding="UTF-8"?>
<svg xmlns="http://www.w3.org/2000/svg" viewBox="0 0 900 1200" role="img" aria-labelledby="title desc">
  <title id="title">Deer coloring page</title>
  <desc id="desc">Original copyright-free DrawSplat printable line art for classroom coloring use.</desc>
  <rect width="900" height="1200" fill="#fff"/>
  <g fill="none" stroke="#111827" stroke-width="11" stroke-linecap="round" stroke-linejoin="round">
    <rect x="42" y="42" width="816" height="1116" rx="34" stroke-width="5"/>
    <ellipse cx="450" cy="704" rx="210" ry="132"/><path d="M606 636 C652 520 740 470 804 530 C780 616 714 664 626 666"/><circle cx="742" cy="486" r="72"/><path d="M720 470 h.1 M772 512 C750 534 724 534 700 514"/><path d="M690 426 C644 330 626 236 660 150 M694 330 C632 286 584 230 560 158 M722 424 C780 326 802 232 766 148 M762 330 C824 286 872 230 896 158"/><path d="M300 810 v154 M442 828 v144 M574 806 v158 M652 742 v150"/>
  </g>
  <g fill="none" stroke="#111827" stroke-width="5" stroke-linecap="round" stroke-linejoin="round" opacity=".55">
    <path d="M96 1080 C230 1038 350 1112 482 1076 S704 1038 812 1090"/>
  </g>
  <metadata>DrawSplat original SVG line art; category=animals; license=CC0-1.0/public-domain-dedicated; generated=subject-specific-v2.</metadata>
</svg>
