<?xml version="1.0" encoding="UTF-8"?>
<svg xmlns="http://www.w3.org/2000/svg" viewBox="0 0 900 1200" role="img" aria-labelledby="title desc">
  <title id="title">Panda coloring page</title>
  <desc id="desc">Original copyright-free DrawSplat printable line art for classroom coloring use.</desc>
  <rect width="900" height="1200" fill="#fff"/>
  <g fill="none" stroke="#111827" stroke-width="11" stroke-linecap="round" stroke-linejoin="round">
    <rect x="42" y="42" width="816" height="1116" rx="34" stroke-width="5"/>
    <ellipse cx="450" cy="650" rx="200" ry="252"/><circle cx="450" cy="350" r="150"/><circle cx="332" cy="224" r="66"/><circle cx="568" cy="224" r="66"/><ellipse cx="388" cy="348" rx="52" ry="42" transform="rotate(-22 388 348)"/><ellipse cx="512" cy="348" rx="52" ry="42" transform="rotate(22 512 348)"/><path d="M450 394 C420 428 480 428 450 394 Z M398 470 C430 500 470 500 502 470"/><path d="M292 720 C210 790 178 884 186 986 M608 720 C690 790 722 884 714 986"/><path d="M364 860 v126 M536 860 v126"/>
  </g>
  <g fill="none" stroke="#111827" stroke-width="5" stroke-linecap="round" stroke-linejoin="round" opacity=".55">
    <path d="M96 1080 C230 1038 350 1112 482 1076 S704 1038 812 1090"/>
  </g>
  <metadata>DrawSplat original SVG line art; category=animals; license=CC0-1.0/public-domain-dedicated; generated=subject-specific-v2.</metadata>
</svg>
