<?xml version="1.0" encoding="UTF-8"?>
<svg xmlns="http://www.w3.org/2000/svg" viewBox="0 0 900 1200" role="img" aria-labelledby="title desc">
  <title id="title">penguin coloring page</title>
  <desc id="desc">Original copyright-free DrawSplat line art for classroom coloring use.</desc>
  <rect width="900" height="1200" fill="#fff"/>
  <g fill="none" stroke="#111827" stroke-width="10" stroke-linecap="round" stroke-linejoin="round">
    <rect x="42" y="42" width="816" height="1116" rx="34" stroke-width="5"/>
    <ellipse cx="450" cy="610" rx="170" ry="240"/><circle cx="450" cy="314" r="112"/>
    <path d="M450 346 l-50 70 h100 Z"/><path d="M360 300 h.1 M540 300 h.1"/>
    <path d="M292 560 C172 606 146 740 228 850 C310 792 340 682 292 560 Z"/>
    <path d="M608 560 C728 606 754 740 672 850 C590 792 560 682 608 560 Z"/>
    <path d="M390 842 L348 980 M510 842 L552 980 M348 980 h-62 M552 980 h62"/>
  </g>
  <g fill="none" stroke="#111827" stroke-width="4" stroke-linecap="round" opacity=".45">
    <path d="M90 1110 C180 1080 250 1140 350 1112 S540 1088 650 1118 S790 1138 830 1100"/>
  </g>
  <metadata>DrawSplat original procedural SVG line art; category=animals; license=CC0-1.0/public-domain-dedicated.</metadata>
</svg>
