<?xml version="1.0" encoding="UTF-8"?>
<svg xmlns="http://www.w3.org/2000/svg" viewBox="0 0 900 1200" role="img" aria-labelledby="title desc">
  <title id="title">Iguanodon coloring page</title>
  <desc id="desc">Original copyright-free DrawSplat printable line art for classroom coloring use.</desc>
  <rect width="900" height="1200" fill="#fff"/>
  <g fill="none" stroke="#111827" stroke-width="11" stroke-linecap="round" stroke-linejoin="round">
    <rect x="42" y="42" width="816" height="1116" rx="34" stroke-width="5"/>
    <path d="M196 742 C276 560 538 506 700 658 C772 728 728 830 596 864 C456 900 274 858 196 742 Z"/><path d="M604 596 C666 502 754 488 812 548 C764 594 696 620 610 614"/><path d="M724 520 C748 438 708 376 614 326"/><path d="M320 816 v144 M512 846 v126 M638 782 L724 940"/><path d="M286 650 h.1 M610 650 l72 56"/>
  </g>
  <g fill="none" stroke="#111827" stroke-width="5" stroke-linecap="round" stroke-linejoin="round" opacity=".55">
    <path d="M92 1074 C222 1030 360 1100 500 1066 S712 1028 822 1086"/>
  </g>
  <metadata>DrawSplat original SVG line art; category=dinosaurs; license=CC0-1.0/public-domain-dedicated; generated=subject-specific-v2.</metadata>
</svg>
