<?xml version="1.0" encoding="UTF-8"?>
<svg xmlns="http://www.w3.org/2000/svg" viewBox="0 0 900 1200" role="img" aria-labelledby="title desc">
  <title id="title">Dimetrodon coloring page</title>
  <desc id="desc">Original copyright-free DrawSplat printable line art for classroom coloring use.</desc>
  <rect width="900" height="1200" fill="#fff"/>
  <g fill="none" stroke="#111827" stroke-width="11" stroke-linecap="round" stroke-linejoin="round">
    <rect x="42" y="42" width="816" height="1116" rx="34" stroke-width="5"/>
    <path d="M160 748 C252 550 570 540 734 710 C640 866 344 902 160 748 Z"/><path d="M250 572 C304 398 464 284 642 410 C608 518 482 590 250 572 Z"/><path d="M622 682 C706 614 794 630 838 712 C784 746 710 736 638 700"/><path d="M280 826 v132 M456 850 v116 M620 820 v134"/><path d="M216 700 h.1 M180 744 C112 724 78 678 58 614"/>
  </g>
  <g fill="none" stroke="#111827" stroke-width="5" stroke-linecap="round" stroke-linejoin="round" opacity=".55">
    <path d="M92 1074 C222 1030 360 1100 500 1066 S712 1028 822 1086"/>
  </g>
  <metadata>DrawSplat original SVG line art; category=dinosaurs; license=CC0-1.0/public-domain-dedicated; generated=subject-specific-v2.</metadata>
</svg>
