<?xml version="1.0" encoding="UTF-8"?>
<svg xmlns="http://www.w3.org/2000/svg" viewBox="0 0 900 1200" role="img" aria-labelledby="title desc">
  <title id="title">Pteranodon coloring page</title>
  <desc id="desc">Original copyright-free DrawSplat printable line art for classroom coloring use.</desc>
  <rect width="900" height="1200" fill="#fff"/>
  <g fill="none" stroke="#111827" stroke-width="11" stroke-linecap="round" stroke-linejoin="round">
    <rect x="42" y="42" width="816" height="1116" rx="34" stroke-width="5"/>
    <path d="M450 500 C560 340 696 250 832 210 C744 406 646 548 488 658"/><path d="M450 500 C340 340 204 250 68 210 C156 406 254 548 412 658"/><path d="M396 620 C420 472 484 472 508 620 C480 742 424 742 396 620 Z"/><path d="M450 468 C474 360 544 292 644 248"/><path d="M444 452 C414 356 344 300 252 260"/><path d="M466 604 l-36 84 M438 604 l36 84"/><path d="M484 464 h.1"/>
  </g>
  <g fill="none" stroke="#111827" stroke-width="5" stroke-linecap="round" stroke-linejoin="round" opacity=".55">
    <path d="M110 962 C210 902 330 966 450 920 S660 890 790 954"/>
  </g>
  <metadata>DrawSplat original SVG line art; category=dinosaurs; license=CC0-1.0/public-domain-dedicated; generated=subject-specific-v2.</metadata>
</svg>
