<?xml version="1.0" encoding="UTF-8"?>
<svg xmlns="http://www.w3.org/2000/svg" viewBox="0 0 900 1200" role="img" aria-labelledby="title desc">
  <title id="title">Allosaurus coloring page</title>
  <desc id="desc">Original copyright-free DrawSplat printable line art for classroom coloring use.</desc>
  <rect width="900" height="1200" fill="#fff"/>
  <g fill="none" stroke="#111827" stroke-width="11" stroke-linecap="round" stroke-linejoin="round">
    <rect x="42" y="42" width="816" height="1116" rx="34" stroke-width="5"/>
    <path d="M194 742 C250 540 442 452 620 510 C748 552 792 660 714 746 C618 852 390 832 260 782 Z"/><path d="M604 514 C654 410 774 398 822 490 C778 532 704 538 628 520"/><path d="M306 780 L238 976 M472 812 L528 982 M606 746 L690 928"/><path d="M328 624 C266 642 218 620 184 584 M650 612 l72 42 M750 478 h.1"/><path d="M220 750 C150 762 108 720 86 664"/><path d="M690 512 l34 -18 M704 536 l38 4"/>
  </g>
  <g fill="none" stroke="#111827" stroke-width="5" stroke-linecap="round" stroke-linejoin="round" opacity=".55">
    <path d="M92 1074 C222 1030 360 1100 500 1066 S712 1028 822 1086"/>
  </g>
  <metadata>DrawSplat original SVG line art; category=dinosaurs; license=CC0-1.0/public-domain-dedicated; generated=subject-specific-v2.</metadata>
</svg>
