<?xml version="1.0" encoding="UTF-8"?>
<svg xmlns="http://www.w3.org/2000/svg" viewBox="0 0 900 1200" role="img" aria-labelledby="title desc">
  <title id="title">Ankylosaurus coloring page</title>
  <desc id="desc">Original copyright-free DrawSplat printable line art for classroom coloring use.</desc>
  <rect width="900" height="1200" fill="#fff"/>
  <g fill="none" stroke="#111827" stroke-width="11" stroke-linecap="round" stroke-linejoin="round">
    <rect x="42" y="42" width="816" height="1116" rx="34" stroke-width="5"/>
    <path d="M148 750 C250 562 590 548 736 722 C652 872 334 896 148 750 Z"/><path d="M214 600 l26 -60 l30 58 M306 562 l34 -72 l34 72 M414 548 l34 -78 l34 78 M530 560 l34 -70 l34 72 M632 596 l28 -54 l26 56"/><path d="M716 724 C792 708 832 752 850 818"/><circle cx="846" cy="832" r="34"/><path d="M250 826 v120 M420 844 v112 M598 826 v120"/><path d="M204 690 h.1"/>
  </g>
  <g fill="none" stroke="#111827" stroke-width="5" stroke-linecap="round" stroke-linejoin="round" opacity=".55">
    <path d="M92 1074 C222 1030 360 1100 500 1066 S712 1028 822 1086"/>
  </g>
  <metadata>DrawSplat original SVG line art; category=dinosaurs; license=CC0-1.0/public-domain-dedicated; generated=subject-specific-v2.</metadata>
</svg>
