<?xml version="1.0" encoding="UTF-8"?>
<svg xmlns="http://www.w3.org/2000/svg" viewBox="0 0 900 1200" role="img" aria-labelledby="title desc">
  <title id="title">Diplodocus coloring page</title>
  <desc id="desc">Original copyright-free DrawSplat printable line art for classroom coloring use.</desc>
  <rect width="900" height="1200" fill="#fff"/>
  <g fill="none" stroke="#111827" stroke-width="11" stroke-linecap="round" stroke-linejoin="round">
    <rect x="42" y="42" width="816" height="1116" rx="34" stroke-width="5"/>
    <path d="M230 762 C238 584 346 496 482 520 C600 540 668 646 702 768"/><path d="M496 524 C540 342 618 232 732 182 C790 248 748 350 648 394 C590 420 554 468 540 542"/><path d="M232 758 C166 780 122 822 88 902"/><path d="M314 762 v188 M462 758 v198 M602 766 v188"/><circle cx="736" cy="184" r="42"/><path d="M754 178 h.1 M714 206 C734 224 760 222 780 204"/><path d="M230 760 C130 722 76 662 58 578"/>
  </g>
  <g fill="none" stroke="#111827" stroke-width="5" stroke-linecap="round" stroke-linejoin="round" opacity=".55">
    <path d="M92 1074 C222 1030 360 1100 500 1066 S712 1028 822 1086"/>
  </g>
  <metadata>DrawSplat original SVG line art; category=dinosaurs; license=CC0-1.0/public-domain-dedicated; generated=subject-specific-v2.</metadata>
</svg>
