<?xml version="1.0" encoding="UTF-8"?>
<svg xmlns="http://www.w3.org/2000/svg" viewBox="0 0 900 1200" role="img" aria-labelledby="title desc">
  <title id="title">Plesiosaurus coloring page</title>
  <desc id="desc">Original copyright-free DrawSplat printable line art for classroom coloring use.</desc>
  <rect width="900" height="1200" fill="#fff"/>
  <g fill="none" stroke="#111827" stroke-width="11" stroke-linecap="round" stroke-linejoin="round">
    <rect x="42" y="42" width="816" height="1116" rx="34" stroke-width="5"/>
    <ellipse cx="438" cy="688" rx="230" ry="122"/><path d="M578 620 C608 420 718 286 812 260 C850 330 806 414 704 474 C648 508 620 562 616 644"/><circle cx="816" cy="260" r="36"/><path d="M826 252 h.1"/><path d="M258 680 C176 650 106 604 64 536"/><path d="M332 764 C252 858 160 900 72 872 M542 762 C634 846 726 878 818 842"/><path d="M380 566 C446 500 548 478 638 512"/>
  </g>
  <g fill="none" stroke="#111827" stroke-width="5" stroke-linecap="round" stroke-linejoin="round" opacity=".55">
    <path d="M86 1008 C190 960 302 1024 410 990 S610 956 738 1010 S814 1048 846 1014"/>
  </g>
  <metadata>DrawSplat original SVG line art; category=dinosaurs; license=CC0-1.0/public-domain-dedicated; generated=subject-specific-v2.</metadata>
</svg>
