<?xml version="1.0" encoding="UTF-8"?>
<svg xmlns="http://www.w3.org/2000/svg" viewBox="0 0 900 1200" role="img" aria-labelledby="title desc">
  <title id="title">Oviraptor coloring page</title>
  <desc id="desc">Original copyright-free DrawSplat printable line art for classroom coloring use.</desc>
  <rect width="900" height="1200" fill="#fff"/>
  <g fill="none" stroke="#111827" stroke-width="11" stroke-linecap="round" stroke-linejoin="round">
    <rect x="42" y="42" width="816" height="1116" rx="34" stroke-width="5"/>
    <path d="M220 716 C300 548 500 500 642 604 C724 664 716 752 618 794 C494 846 328 812 220 716 Z"/><path d="M610 600 C674 520 762 526 806 598 C754 632 686 632 620 612"/><path d="M340 782 L270 974 L350 906 M500 806 L548 996 L626 934"/><path d="M300 652 C230 646 184 610 150 548 M622 622 l64 42 M748 584 h.1"/><path d="M232 710 C126 684 82 616 66 536"/><path d="M456 528 C492 486 548 464 606 462"/><ellipse cx="760" cy="598" rx="34" ry="46"/>
  </g>
  <g fill="none" stroke="#111827" stroke-width="5" stroke-linecap="round" stroke-linejoin="round" opacity=".55">
    <path d="M92 1074 C222 1030 360 1100 500 1066 S712 1028 822 1086"/>
  </g>
  <metadata>DrawSplat original SVG line art; category=dinosaurs; license=CC0-1.0/public-domain-dedicated; generated=subject-specific-v2.</metadata>
</svg>
