<?xml version="1.0" encoding="UTF-8"?>
<svg xmlns="http://www.w3.org/2000/svg" viewBox="0 0 900 1200" role="img" aria-labelledby="title desc">
  <title id="title">diplodocus coloring page</title>
  <desc id="desc">Original copyright-free DrawSplat line art for classroom coloring use.</desc>
  <rect width="900" height="1200" fill="#fff"/>
  <g fill="none" stroke="#111827" stroke-width="10" stroke-linecap="round" stroke-linejoin="round">
    <rect x="42" y="42" width="816" height="1116" rx="34" stroke-width="5"/>
    <path d="M238 760 C230 580 322 480 454 504 C570 526 650 632 700 768"/>
    <path d="M470 510 C520 340 602 232 726 184 C780 250 742 348 642 394 C590 418 552 464 536 534"/>
    <path d="M238 760 C178 780 128 824 94 902"/><path d="M306 760 v188 M456 752 v196 M594 762 v186"/>
    <circle cx="728" cy="182" r="42"/><path d="M746 176 h.1 M706 206 C728 224 754 222 774 204"/>
  </g>
  <g fill="none" stroke="#111827" stroke-width="4" stroke-linecap="round" opacity=".45">
    <path d="M90 1110 C180 1080 250 1140 350 1112 S540 1088 650 1118 S790 1138 830 1100"/>
  </g>
  <metadata>DrawSplat original procedural SVG line art; category=dinosaurs; license=CC0-1.0/public-domain-dedicated.</metadata>
</svg>
