<?xml version="1.0" encoding="UTF-8"?>
<svg xmlns="http://www.w3.org/2000/svg" viewBox="0 0 900 1200" role="img" aria-labelledby="title desc">
  <title id="title">Stegosaurus coloring page</title>
  <desc id="desc">Original copyright-free DrawSplat printable line art for classroom coloring use.</desc>
  <rect width="900" height="1200" fill="#fff"/>
  <g fill="none" stroke="#111827" stroke-width="11" stroke-linecap="round" stroke-linejoin="round">
    <rect x="42" y="42" width="816" height="1116" rx="34" stroke-width="5"/>
    <path d="M148 744 C260 532 584 540 732 706 C642 870 338 908 148 744 Z"/><path d="M226 548 l36 -92 l36 92"/>
    <path d="M288 529.4876383342263 l36 -92 l36 92"/>
    <path d="M350 527.995456609835 l36 -92 l36 92"/>
    <path d="M412 544.895359822683 l36 -92 l36 92"/>
    <path d="M474 564.6496548967745 l36 -92 l36 92"/>
    <path d="M536 569.0963340425891 l36 -92 l36 92"/>
    <path d="M598 554.1471409603764 l36 -92 l36 92"/>
    <path d="M660 533.5462948281867 l36 -92 l36 92"/><path d="M710 708 C780 686 828 718 852 780"/><path d="M180 728 C112 712 82 670 64 620"/><path d="M270 830 v124 M426 852 v112 M586 828 v124"/>
  </g>
  <g fill="none" stroke="#111827" stroke-width="5" stroke-linecap="round" stroke-linejoin="round" opacity=".55">
    <path d="M92 1074 C222 1030 360 1100 500 1066 S712 1028 822 1086"/>
  </g>
  <metadata>DrawSplat original SVG line art; category=dinosaurs; license=CC0-1.0/public-domain-dedicated; generated=subject-specific-v2.</metadata>
</svg>
