<?xml version="1.0" encoding="UTF-8"?>
<svg xmlns="http://www.w3.org/2000/svg" viewBox="0 0 900 1200" role="img" aria-labelledby="title desc">
  <title id="title">ankylosaurus coloring page</title>
  <desc id="desc">Original copyright-free DrawSplat line art for classroom coloring use.</desc>
  <rect width="900" height="1200" fill="#fff"/>
  <g fill="none" stroke="#111827" stroke-width="10" stroke-linecap="round" stroke-linejoin="round">
    <rect x="42" y="42" width="816" height="1116" rx="34" stroke-width="5"/>
    <path d="M160 744 C270 536 576 548 726 704 C632 872 330 908 160 744 Z"/>
    <path d="M250 520 l34 -78 l34 78"/>
    <path d="M308 490.54851553172364 l34 -78 l34 78"/>
    <path d="M366 488.1745900611011 l34 -78 l34 78"/>
    <path d="M424 515.0607997179046 l34 -78 l34 78"/>
    <path d="M482 546.4880873357774 l34 -78 l34 78"/>
    <path d="M540 553.5623496132098 l34 -78 l34 78"/>
    <path d="M598 529.7795424369624 l34 -78 l34 78"/>
    <path d="M656 497.00546904484236 l34 -78 l34 78"/>
    <path d="M700 706 C770 686 820 714 850 770"/><path d="M188 728 C114 714 82 674 66 622"/>
    <path d="M276 830 v122 M430 852 v110 M584 828 v124"/>
  </g>
  <g fill="none" stroke="#111827" stroke-width="4" stroke-linecap="round" opacity=".45">
    <path d="M90 1110 C180 1080 250 1140 350 1112 S540 1088 650 1118 S790 1138 830 1100"/>
  </g>
  <metadata>DrawSplat original procedural SVG line art; category=dinosaurs; license=CC0-1.0/public-domain-dedicated.</metadata>
</svg>
