<?xml version="1.0" encoding="UTF-8"?>
<svg xmlns="http://www.w3.org/2000/svg" viewBox="0 0 900 1200" role="img" aria-labelledby="title desc">
  <title id="title">triceratops coloring page</title>
  <desc id="desc">Original copyright-free DrawSplat line art for classroom coloring use.</desc>
  <rect width="900" height="1200" fill="#fff"/>
  <g fill="none" stroke="#111827" stroke-width="10" stroke-linecap="round" stroke-linejoin="round">
    <rect x="42" y="42" width="816" height="1116" rx="34" stroke-width="5"/>
    <path d="M196 744 C250 560 548 510 716 656 C770 704 770 790 696 834 C536 928 278 890 196 744 Z"/>
    <path d="M628 584 C676 434 806 390 838 522 C792 596 710 626 628 584 Z"/>
    <path d="M690 534 l-28 -118 M746 538 l64 -92 M628 586 l-112 -74"/>
    <path d="M296 820 v130 M458 844 v118 M610 820 v130 M270 660 h.1"/>
  </g>
  <g fill="none" stroke="#111827" stroke-width="4" stroke-linecap="round" opacity=".45">
    <path d="M90 1110 C180 1080 250 1140 350 1112 S540 1088 650 1118 S790 1138 830 1100"/>
  </g>
  <metadata>DrawSplat original procedural SVG line art; category=dinosaurs; license=CC0-1.0/public-domain-dedicated.</metadata>
</svg>
