<?xml version="1.0" encoding="UTF-8"?>
<svg xmlns="http://www.w3.org/2000/svg" viewBox="0 0 900 1200" role="img" aria-labelledby="title desc">
  <title id="title">Triceratops coloring page</title>
  <desc id="desc">Original copyright-free DrawSplat printable line art for classroom coloring use.</desc>
  <rect width="900" height="1200" fill="#fff"/>
  <g fill="none" stroke="#111827" stroke-width="11" stroke-linecap="round" stroke-linejoin="round">
    <rect x="42" y="42" width="816" height="1116" rx="34" stroke-width="5"/>
    <path d="M190 742 C256 564 540 516 706 658 C768 712 766 792 690 836 C532 928 280 890 190 742 Z"/><path d="M608 576 C662 420 806 388 844 526 C794 606 706 628 608 576 Z"/><path d="M684 528 l-22 -132 M746 536 l72 -96 M610 580 l-116 -78"/><path d="M286 818 v132 M450 844 v120 M604 820 v132"/><path d="M270 658 h.1"/>
  </g>
  <g fill="none" stroke="#111827" stroke-width="5" stroke-linecap="round" stroke-linejoin="round" opacity=".55">
    <path d="M92 1074 C222 1030 360 1100 500 1066 S712 1028 822 1086"/>
  </g>
  <metadata>DrawSplat original SVG line art; category=dinosaurs; license=CC0-1.0/public-domain-dedicated; generated=subject-specific-v2.</metadata>
</svg>
