<?xml version="1.0" encoding="UTF-8"?>
<svg xmlns="http://www.w3.org/2000/svg" viewBox="0 0 900 1200" role="img" aria-labelledby="title desc">
  <title id="title">Butterfly coloring page</title>
  <desc id="desc">Original copyright-free DrawSplat printable line art for classroom coloring use.</desc>
  <rect width="900" height="1200" fill="#fff"/>
  <g fill="none" stroke="#111827" stroke-width="11" stroke-linecap="round" stroke-linejoin="round">
    <rect x="42" y="42" width="816" height="1116" rx="34" stroke-width="5"/>
    <path d="M450 310 C424 450 424 734 450 902"/><path d="M450 310 C476 450 476 734 450 902"/><path d="M442 520 C270 220 96 250 136 458 C176 646 338 630 442 520 Z"/><path d="M458 520 C630 220 804 250 764 458 C724 646 562 630 458 520 Z"/><path d="M442 692 C250 670 154 774 206 910 C284 1076 420 934 442 760 Z"/><path d="M458 692 C650 670 746 774 694 910 C616 1076 480 934 458 760 Z"/><circle cx="450" cy="270" r="44"/><path d="M420 244 C360 178 296 184 250 234 M480 244 C540 178 604 184 650 234"/><circle cx="278" cy="444" r="38"/><circle cx="622" cy="444" r="38"/><path d="M292 812 C334 770 384 766 424 804 M608 812 C566 770 516 766 476 804"/>
  </g>
  <g fill="none" stroke="#111827" stroke-width="5" stroke-linecap="round" stroke-linejoin="round" opacity=".55">
    <path d="M120 1098 C170 1042 218 1080 256 1020 M650 1092 C692 1022 762 1048 812 1004"/>
  </g>
  <metadata>DrawSplat original SVG line art; category=insects; license=CC0-1.0/public-domain-dedicated; generated=subject-specific-v2.</metadata>
</svg>
