<?xml version="1.0" encoding="UTF-8"?>
<svg xmlns="http://www.w3.org/2000/svg" viewBox="0 0 900 1200" role="img" aria-labelledby="title desc">
  <title id="title">Caterpillar coloring page</title>
  <desc id="desc">Original copyright-free DrawSplat printable line art for classroom coloring use.</desc>
  <rect width="900" height="1200" fill="#fff"/>
  <g fill="none" stroke="#111827" stroke-width="11" stroke-linecap="round" stroke-linejoin="round">
    <rect x="42" y="42" width="816" height="1116" rx="34" stroke-width="5"/>
    <circle cx="174" cy="650" r="62"/>
    <circle cx="254" cy="622" r="60"/>
    <circle cx="334" cy="650" r="58"/>
    <circle cx="414" cy="622" r="56"/>
    <circle cx="494" cy="650" r="54"/>
    <circle cx="574" cy="622" r="52"/>
    <circle cx="654" cy="650" r="52"/>
    <circle cx="734" cy="622" r="52"/><path d="M144 618 h.1 M194 616 h.1"/><path d="M154 578 C112 514 68 508 34 548 M198 576 C236 508 292 502 330 544"/><path d="M190 720 v54 M270 696 v58 M350 720 v54 M430 696 v58 M510 720 v54 M590 696 v58 M670 720 v54"/>
  </g>
  <g fill="none" stroke="#111827" stroke-width="5" stroke-linecap="round" stroke-linejoin="round" opacity=".55">
    <path d="M120 1098 C170 1042 218 1080 256 1020 M650 1092 C692 1022 762 1048 812 1004"/>
  </g>
  <metadata>DrawSplat original SVG line art; category=insects; license=CC0-1.0/public-domain-dedicated; generated=subject-specific-v2.</metadata>
</svg>
