<?xml version="1.0" encoding="UTF-8"?>
<svg xmlns="http://www.w3.org/2000/svg" viewBox="0 0 900 1200" role="img" aria-labelledby="title desc">
  <title id="title">Cicada coloring page</title>
  <desc id="desc">Original copyright-free DrawSplat printable line art for classroom coloring use.</desc>
  <rect width="900" height="1200" fill="#fff"/>
  <g fill="none" stroke="#111827" stroke-width="11" stroke-linecap="round" stroke-linejoin="round">
    <rect x="42" y="42" width="816" height="1116" rx="34" stroke-width="5"/>
    <ellipse cx="450" cy="546" rx="108" ry="240"/><circle cx="450" cy="288" r="78"/><ellipse cx="318" cy="584" rx="110" ry="270" transform="rotate(-16 318 584)"/><ellipse cx="582" cy="584" rx="110" ry="270" transform="rotate(16 582 584)"/><path d="M372 330 h.1 M528 330 h.1"/><path d="M344 516 C386 618 408 744 400 884 M556 516 C514 618 492 744 500 884"/><path d="M450 382 V846"/>
  </g>
  <g fill="none" stroke="#111827" stroke-width="5" stroke-linecap="round" stroke-linejoin="round" opacity=".55">
    <path d="M120 1098 C170 1042 218 1080 256 1020 M650 1092 C692 1022 762 1048 812 1004"/>
  </g>
  <metadata>DrawSplat original SVG line art; category=insects; license=CC0-1.0/public-domain-dedicated; generated=subject-specific-v2.</metadata>
</svg>
