<?xml version="1.0" encoding="UTF-8"?>
<svg xmlns="http://www.w3.org/2000/svg" viewBox="0 0 900 1200" role="img" aria-labelledby="title desc">
  <title id="title">butterfly coloring page</title>
  <desc id="desc">Original copyright-free DrawSplat line art for classroom coloring use.</desc>
  <rect width="900" height="1200" fill="#fff"/>
  <g fill="none" stroke="#111827" stroke-width="10" stroke-linecap="round" stroke-linejoin="round">
    <rect x="42" y="42" width="816" height="1116" rx="34" stroke-width="5"/>
    <path d="M448 320 C424 454 424 726 448 888"/><path d="M452 320 C476 454 476 726 452 888"/>
    <path d="M446 512 C182 252 326 190 424 516 C316 640 160 596 122 448 C98 350 118 286 182 252 Z"/>
    <path d="M454 512 C690 230 814 266 778 446 C740 566 600 608 454 520 Z"/>
    <path d="M446 700 C260 676 156 764 196 884 C260 1030 406 930 446 760 Z"/>
    <path d="M454 700 C640 676 744 764 704 884 C640 1030 494 930 454 760 Z"/>
    <circle cx="450" cy="282" r="44"/><path d="M424 248 C382 190 326 178 292 212 M476 248 C518 190 574 178 608 212"/>
  </g>
  <g fill="none" stroke="#111827" stroke-width="4" stroke-linecap="round" opacity=".45">
    <path d="M90 1110 C180 1080 250 1140 350 1112 S540 1088 650 1118 S790 1138 830 1100"/>
  </g>
  <metadata>DrawSplat original procedural SVG line art; category=insects; license=CC0-1.0/public-domain-dedicated.</metadata>
</svg>
