<?xml version="1.0" encoding="UTF-8"?>
<svg xmlns="http://www.w3.org/2000/svg" viewBox="0 0 900 1200" role="img" aria-labelledby="title desc">
  <title id="title">Ladybug coloring page</title>
  <desc id="desc">Original copyright-free DrawSplat printable line art for classroom coloring use.</desc>
  <rect width="900" height="1200" fill="#fff"/>
  <g fill="none" stroke="#111827" stroke-width="11" stroke-linecap="round" stroke-linejoin="round">
    <rect x="42" y="42" width="816" height="1116" rx="34" stroke-width="5"/>
    <ellipse cx="450" cy="620" rx="218" ry="296"/><circle cx="450" cy="300" r="82"/><path d="M450 330 V906"/><path d="M312 438 C384 396 516 396 588 438"/><circle cx="330" cy="548" r="34"/><circle cx="570" cy="548" r="34"/><circle cx="370" cy="716" r="34"/><circle cx="530" cy="716" r="34"/><circle cx="450" cy="824" r="28"/><path d="M370 520 C260 450 202 476 158 540"/>
  <path d="M530 520 C640 450 698 476 742 540"/>
  <path d="M354 708 C240 716 204 788 160 854"/>
  <path d="M546 708 C660 716 696 788 740 854"/><path d="M410 248 C372 176 316 160 264 190 M490 248 C528 176 584 160 636 190"/>
  </g>
  <g fill="none" stroke="#111827" stroke-width="5" stroke-linecap="round" stroke-linejoin="round" opacity=".55">
    <path d="M120 1098 C170 1042 218 1080 256 1020 M650 1092 C692 1022 762 1048 812 1004"/>
  </g>
  <metadata>DrawSplat original SVG line art; category=insects; license=CC0-1.0/public-domain-dedicated; generated=subject-specific-v2.</metadata>
</svg>
