<?xml version="1.0" encoding="UTF-8"?>
<svg xmlns="http://www.w3.org/2000/svg" viewBox="0 0 900 1200" role="img" aria-labelledby="title desc">
  <title id="title">Damselfly coloring page</title>
  <desc id="desc">Original copyright-free DrawSplat printable line art for classroom coloring use.</desc>
  <rect width="900" height="1200" fill="#fff"/>
  <g fill="none" stroke="#111827" stroke-width="11" stroke-linecap="round" stroke-linejoin="round">
    <rect x="42" y="42" width="816" height="1116" rx="34" stroke-width="5"/>
    <path d="M450 246 C482 440 482 790 450 1020 C418 790 418 440 450 246 Z"/><circle cx="450" cy="210" r="52"/><ellipse cx="318" cy="398" rx="90" ry="206" transform="rotate(-64 318 398)"/><ellipse cx="582" cy="398" rx="90" ry="206" transform="rotate(64 582 398)"/><ellipse cx="324" cy="610" rx="78" ry="190" transform="rotate(-78 324 610)"/><ellipse cx="576" cy="610" rx="78" ry="190" transform="rotate(78 576 610)"/><path d="M428 198 h.1 M472 198 h.1"/><path d="M406 310 C360 342 334 388 322 458 M494 310 C540 342 566 388 578 458"/>
  </g>
  <g fill="none" stroke="#111827" stroke-width="5" stroke-linecap="round" stroke-linejoin="round" opacity=".55">
    <path d="M120 1098 C170 1042 218 1080 256 1020 M650 1092 C692 1022 762 1048 812 1004"/>
  </g>
  <metadata>DrawSplat original SVG line art; category=insects; license=CC0-1.0/public-domain-dedicated; generated=subject-specific-v2.</metadata>
</svg>
