<?xml version="1.0" encoding="UTF-8"?>
<svg xmlns="http://www.w3.org/2000/svg" viewBox="0 0 900 1200" role="img" aria-labelledby="title desc">
  <title id="title">Weevil coloring page</title>
  <desc id="desc">Original copyright-free DrawSplat printable line art for classroom coloring use.</desc>
  <rect width="900" height="1200" fill="#fff"/>
  <g fill="none" stroke="#111827" stroke-width="11" stroke-linecap="round" stroke-linejoin="round">
    <rect x="42" y="42" width="816" height="1116" rx="34" stroke-width="5"/>
    <ellipse cx="470" cy="640" rx="166" ry="232"/><circle cx="450" cy="360" r="82"/><path d="M436 308 C342 244 250 246 196 322 C268 322 348 344 420 394"/><path d="M450 428 V852"/><circle cx="420" cy="338" r="6"/><circle cx="484" cy="338" r="6"/><path d="M390 532 C280 462 222 488 178 552"/>
  <path d="M550 532 C660 462 718 488 762 552"/>
  <path d="M374 716 C260 724 224 796 180 862"/>
  <path d="M566 716 C680 724 716 796 760 862"/>
  </g>
  <g fill="none" stroke="#111827" stroke-width="5" stroke-linecap="round" stroke-linejoin="round" opacity=".55">
    <path d="M120 1098 C170 1042 218 1080 256 1020 M650 1092 C692 1022 762 1048 812 1004"/>
  </g>
  <metadata>DrawSplat original SVG line art; category=insects; license=CC0-1.0/public-domain-dedicated; generated=subject-specific-v2.</metadata>
</svg>
