<?xml version="1.0" encoding="UTF-8"?>
<svg xmlns="http://www.w3.org/2000/svg" viewBox="0 0 900 1200" role="img" aria-labelledby="title desc">
  <title id="title">Honeybee coloring page</title>
  <desc id="desc">Original copyright-free DrawSplat printable line art for classroom coloring use.</desc>
  <rect width="900" height="1200" fill="#fff"/>
  <g fill="none" stroke="#111827" stroke-width="11" stroke-linecap="round" stroke-linejoin="round">
    <rect x="42" y="42" width="816" height="1116" rx="34" stroke-width="5"/>
    <ellipse cx="450" cy="626" rx="174" ry="252"/><circle cx="450" cy="332" r="66"/><ellipse cx="334" cy="404" rx="110" ry="170" transform="rotate(-28 334 404)"/><ellipse cx="566" cy="404" rx="110" ry="170" transform="rotate(28 566 404)"/><path d="M304 502 H596 M282 608 H618 M306 720 H594"/><path d="M450 878 l-44 86 M450 878 l44 86"/><path d="M418 314 h.1 M482 314 h.1"/><path d="M406 286 C360 222 300 212 254 242 M494 286 C540 222 600 212 646 242"/>
  </g>
  <g fill="none" stroke="#111827" stroke-width="5" stroke-linecap="round" stroke-linejoin="round" opacity=".55">
    <path d="M120 1098 C170 1042 218 1080 256 1020 M650 1092 C692 1022 762 1048 812 1004"/>
  </g>
  <metadata>DrawSplat original SVG line art; category=insects; license=CC0-1.0/public-domain-dedicated; generated=subject-specific-v2.</metadata>
</svg>
