<?xml version="1.0" encoding="UTF-8"?>
<svg xmlns="http://www.w3.org/2000/svg" viewBox="0 0 900 1200" role="img" aria-labelledby="title desc">
  <title id="title">Praying Mantis coloring page</title>
  <desc id="desc">Original copyright-free DrawSplat printable line art for classroom coloring use.</desc>
  <rect width="900" height="1200" fill="#fff"/>
  <g fill="none" stroke="#111827" stroke-width="11" stroke-linecap="round" stroke-linejoin="round">
    <rect x="42" y="42" width="816" height="1116" rx="34" stroke-width="5"/>
    <path d="M420 330 C508 424 544 640 514 896"/><ellipse cx="368" cy="292" rx="78" ry="56" transform="rotate(-18 368 292)"/><path d="M398 396 C278 386 214 458 194 594 M398 396 C286 484 254 562 286 658"/><path d="M486 502 C596 500 664 564 708 694 M492 626 C608 680 668 782 702 918"/><path d="M340 280 h.1 M390 270 h.1"/><path d="M330 236 C270 176 206 186 164 232 M400 238 C474 186 536 200 572 250"/>
  </g>
  <g fill="none" stroke="#111827" stroke-width="5" stroke-linecap="round" stroke-linejoin="round" opacity=".55">
    <path d="M120 1098 C170 1042 218 1080 256 1020 M650 1092 C692 1022 762 1048 812 1004"/>
  </g>
  <metadata>DrawSplat original SVG line art; category=insects; license=CC0-1.0/public-domain-dedicated; generated=subject-specific-v2.</metadata>
</svg>
