<?xml version="1.0" encoding="UTF-8"?>
<svg xmlns="http://www.w3.org/2000/svg" viewBox="0 0 900 1200" role="img" aria-labelledby="title desc">
  <title id="title">beetle coloring page</title>
  <desc id="desc">Original copyright-free DrawSplat line art for classroom coloring use.</desc>
  <rect width="900" height="1200" fill="#fff"/>
  <g fill="none" stroke="#111827" stroke-width="10" stroke-linecap="round" stroke-linejoin="round">
    <rect x="42" y="42" width="816" height="1116" rx="34" stroke-width="5"/>
    <ellipse cx="450" cy="620" rx="178" ry="248"/><path d="M308 496 H592 M282 604 H618 M308 712 H592"/>
    <ellipse cx="340" cy="384" rx="112" ry="160" transform="rotate(-28 340 384)"/>
    <ellipse cx="560" cy="384" rx="112" ry="160" transform="rotate(28 560 384)"/>
    <circle cx="450" cy="332" r="62"/><path d="M430 316 h.1 M470 316 h.1"/><path d="M450 868 l-36 84 M450 868 l36 84"/>
    <path d="M400 282 C356 216 302 206 262 232 M500 282 C544 216 598 206 638 232"/>
  </g>
  <g fill="none" stroke="#111827" stroke-width="4" stroke-linecap="round" opacity=".45">
    <path d="M90 1110 C180 1080 250 1140 350 1112 S540 1088 650 1118 S790 1138 830 1100"/>
  </g>
  <metadata>DrawSplat original procedural SVG line art; category=insects; license=CC0-1.0/public-domain-dedicated.</metadata>
</svg>
