<?xml version="1.0" encoding="UTF-8"?>
<svg xmlns="http://www.w3.org/2000/svg" viewBox="0 0 900 1200" role="img" aria-labelledby="title desc">
  <title id="title">Cricket coloring page</title>
  <desc id="desc">Original copyright-free DrawSplat printable line art for classroom coloring use.</desc>
  <rect width="900" height="1200" fill="#fff"/>
  <g fill="none" stroke="#111827" stroke-width="11" stroke-linecap="round" stroke-linejoin="round">
    <rect x="42" y="42" width="816" height="1116" rx="34" stroke-width="5"/>
    <ellipse cx="448" cy="608" rx="204" ry="116"/><circle cx="246" cy="548" r="78"/><path d="M304 598 C420 488 560 470 704 542"/><path d="M548 662 C646 738 702 850 742 994"/><path d="M582 650 C682 620 754 636 814 704"/><path d="M360 646 C288 720 232 806 190 932"/><path d="M286 520 h.1 M188 510 C138 444 86 434 50 474 M212 496 C176 424 116 388 68 404"/><path d="M270 638 C198 658 150 702 106 774"/>
  </g>
  <g fill="none" stroke="#111827" stroke-width="5" stroke-linecap="round" stroke-linejoin="round" opacity=".55">
    <path d="M120 1098 C170 1042 218 1080 256 1020 M650 1092 C692 1022 762 1048 812 1004"/>
  </g>
  <metadata>DrawSplat original SVG line art; category=insects; license=CC0-1.0/public-domain-dedicated; generated=subject-specific-v2.</metadata>
</svg>
