<?xml version="1.0" encoding="UTF-8"?>
<svg xmlns="http://www.w3.org/2000/svg" viewBox="0 0 900 1200" role="img" aria-labelledby="title desc">
  <title id="title">Firefly coloring page</title>
  <desc id="desc">Original copyright-free DrawSplat printable line art for classroom coloring use.</desc>
  <rect width="900" height="1200" fill="#fff"/>
  <g fill="none" stroke="#111827" stroke-width="11" stroke-linecap="round" stroke-linejoin="round">
    <rect x="42" y="42" width="816" height="1116" rx="34" stroke-width="5"/>
    <ellipse cx="450" cy="518" rx="118" ry="178"/><ellipse cx="450" cy="788" rx="142" ry="190"/><circle cx="450" cy="320" r="68"/><ellipse cx="330" cy="500" rx="82" ry="182" transform="rotate(-30 330 500)"/><ellipse cx="570" cy="500" rx="82" ry="182" transform="rotate(30 570 500)"/><path d="M336 734 H564 M314 806 H586 M350 880 H550"/><path d="M420 300 h.1 M480 300 h.1"/><path d="M370 500 C260 430 202 456 158 520"/>
  <path d="M530 500 C640 430 698 456 742 520"/>
  <path d="M354 650 C240 658 204 730 160 796"/>
  <path d="M546 650 C660 658 696 730 740 796"/><path d="M302 950 C220 996 168 1040 126 1098 M598 950 C680 996 732 1040 774 1098"/>
  </g>
  <g fill="none" stroke="#111827" stroke-width="5" stroke-linecap="round" stroke-linejoin="round" opacity=".55">
    <path d="M120 1098 C170 1042 218 1080 256 1020 M650 1092 C692 1022 762 1048 812 1004"/>
  </g>
  <metadata>DrawSplat original SVG line art; category=insects; license=CC0-1.0/public-domain-dedicated; generated=subject-specific-v2.</metadata>
</svg>
