<?xml version="1.0" encoding="UTF-8"?>
<svg xmlns="http://www.w3.org/2000/svg" viewBox="0 0 900 1200" role="img" aria-labelledby="title desc">
  <title id="title">Scarab coloring page</title>
  <desc id="desc">Original copyright-free DrawSplat printable line art for classroom coloring use.</desc>
  <rect width="900" height="1200" fill="#fff"/>
  <g fill="none" stroke="#111827" stroke-width="11" stroke-linecap="round" stroke-linejoin="round">
    <rect x="42" y="42" width="816" height="1116" rx="34" stroke-width="5"/>
    <ellipse cx="450" cy="620" rx="170" ry="276"/><circle cx="450" cy="294" r="74"/><path d="M450 350 V890"/><path d="M330 482 C402 442 498 442 570 482"/><path d="M324 626 C400 596 500 596 576 626"/><path d="M338 770 C410 740 490 740 562 770"/><path d="M370 500 C260 430 202 456 158 520"/>
  <path d="M530 500 C640 430 698 456 742 520"/>
  <path d="M354 700 C240 708 204 780 160 846"/>
  <path d="M546 700 C660 708 696 780 740 846"/><path d="M412 252 C370 188 314 170 264 194 M488 252 C530 188 586 170 636 194"/>
  </g>
  <g fill="none" stroke="#111827" stroke-width="5" stroke-linecap="round" stroke-linejoin="round" opacity=".55">
    <path d="M120 1098 C170 1042 218 1080 256 1020 M650 1092 C692 1022 762 1048 812 1004"/>
  </g>
  <metadata>DrawSplat original SVG line art; category=insects; license=CC0-1.0/public-domain-dedicated; generated=subject-specific-v2.</metadata>
</svg>
