<?xml version="1.0" encoding="UTF-8"?>
<svg xmlns="http://www.w3.org/2000/svg" viewBox="0 0 900 1200" role="img" aria-labelledby="title desc">
  <title id="title">Ant coloring page</title>
  <desc id="desc">Original copyright-free DrawSplat printable line art for classroom coloring use.</desc>
  <rect width="900" height="1200" fill="#fff"/>
  <g fill="none" stroke="#111827" stroke-width="11" stroke-linecap="round" stroke-linejoin="round">
    <rect x="42" y="42" width="816" height="1116" rx="34" stroke-width="5"/>
    <ellipse cx="258" cy="620" rx="92" ry="116"/><ellipse cx="450" cy="620" rx="112" ry="142"/><ellipse cx="658" cy="620" rx="136" ry="166"/><path d="M334 620 H366 M548 620 H582"/><path d="M370 554 C260 484 202 510 158 574"/>
  <path d="M530 554 C640 484 698 510 742 574"/>
  <path d="M354 674 C240 682 204 754 160 820"/>
  <path d="M546 674 C660 682 696 754 740 820"/><path d="M204 558 C150 476 96 466 66 514 M216 552 C186 462 128 428 78 446"/><circle cx="230" cy="590" r="6"/><circle cx="286" cy="590" r="6"/>
  </g>
  <g fill="none" stroke="#111827" stroke-width="5" stroke-linecap="round" stroke-linejoin="round" opacity=".55">
    <path d="M120 1098 C170 1042 218 1080 256 1020 M650 1092 C692 1022 762 1048 812 1004"/>
  </g>
  <metadata>DrawSplat original SVG line art; category=insects; license=CC0-1.0/public-domain-dedicated; generated=subject-specific-v2.</metadata>
</svg>
