<?xml version="1.0" encoding="UTF-8"?>
<svg xmlns="http://www.w3.org/2000/svg" viewBox="0 0 900 1200" role="img" aria-labelledby="title desc">
  <title id="title">Acorn Sprout coloring page</title>
  <desc id="desc">Original copyright-free DrawSplat printable line art for classroom coloring use.</desc>
  <rect width="900" height="1200" fill="#fff"/>
  <g fill="none" stroke="#111827" stroke-width="11" stroke-linecap="round" stroke-linejoin="round">
    <rect x="42" y="42" width="816" height="1116" rx="34" stroke-width="5"/>
    <path d="M358 870 C300 810 290 720 350 660 C430 694 470 784 438 870 Z"/><path d="M542 870 C600 810 610 720 550 660 C470 694 430 784 462 870 Z"/><path d="M450 1010 V650"/><path d="M316 472 C326 346 574 346 584 472 C540 620 360 620 316 472 Z"/><path d="M304 468 C352 404 546 404 596 468"/><path d="M364 402 l-28 -58 M454 388 l-4 -70 M536 402 l34 -58"/>
  </g>
  <g fill="none" stroke="#111827" stroke-width="5" stroke-linecap="round" stroke-linejoin="round" opacity=".55">
    <path d="M92 1088 C170 1050 262 1128 360 1090 S560 1052 646 1098 S764 1134 820 1080"/>
  </g>
  <metadata>DrawSplat original SVG line art; category=plants; license=CC0-1.0/public-domain-dedicated; generated=subject-specific-v2.</metadata>
</svg>
