<?xml version="1.0" encoding="UTF-8"?>
<svg xmlns="http://www.w3.org/2000/svg" viewBox="0 0 900 1200" role="img" aria-labelledby="title desc">
  <title id="title">Water Lily coloring page</title>
  <desc id="desc">Original copyright-free DrawSplat printable line art for classroom coloring use.</desc>
  <rect width="900" height="1200" fill="#fff"/>
  <g fill="none" stroke="#111827" stroke-width="11" stroke-linecap="round" stroke-linejoin="round">
    <rect x="42" y="42" width="816" height="1116" rx="34" stroke-width="5"/>
    <path d="M450 676 C330 596 330 438 450 340 C570 438 570 596 450 676 Z"/><path d="M450 676 C250 626 190 464 310 344 C410 430 450 530 450 676 Z"/><path d="M450 676 C650 626 710 464 590 344 C490 430 450 530 450 676 Z"/><path d="M450 676 C390 540 410 402 450 260 C490 402 510 540 450 676 Z"/><path d="M180 892 C300 760 590 760 720 896 C572 1000 330 1000 180 892 Z"/><path d="M452 888 C542 826 626 814 720 896"/>
  </g>
  <g fill="none" stroke="#111827" stroke-width="5" stroke-linecap="round" stroke-linejoin="round" opacity=".55">
    <path d="M96 1028 C214 998 292 1036 386 1010 S568 986 680 1022 S782 1046 824 1018"/>
  </g>
  <metadata>DrawSplat original SVG line art; category=plants; license=CC0-1.0/public-domain-dedicated; generated=subject-specific-v2.</metadata>
</svg>
