<?xml version="1.0" encoding="UTF-8"?>
<svg xmlns="http://www.w3.org/2000/svg" viewBox="0 0 900 1200" role="img" aria-labelledby="title desc">
  <title id="title">Rose coloring page</title>
  <desc id="desc">Original copyright-free DrawSplat printable line art for classroom coloring use.</desc>
  <rect width="900" height="1200" fill="#fff"/>
  <g fill="none" stroke="#111827" stroke-width="11" stroke-linecap="round" stroke-linejoin="round">
    <rect x="42" y="42" width="816" height="1116" rx="34" stroke-width="5"/>
    <path d="M450 300 C360 320 330 420 390 488 C330 492 304 570 370 628 C430 684 534 660 584 586 C650 490 594 340 450 300 Z"/><path d="M392 486 C440 382 552 386 586 486"/><path d="M374 574 C438 552 498 512 528 432"/><path d="M432 330 C474 388 464 464 402 516"/><path d="M450 515 C430 680 438 832 450 1014"/><path d="M448 654 C400.21 576.6 325.87 590.532 297.196 644.712 C363.03999999999996 681.09 421.45 675.672 448 654 Z"/><path d="M448 654 C394.9 633.876 341.8 633.876 305.692 644.712" stroke-width="5"/><path d="M454 782 C504.445 700.3 582.915 715.006 613.182 772.196 C543.6800000000001 810.595 482.025 804.876 454 782 Z"/><path d="M454 782 C510.05 760.758 566.1 760.758 604.2139999999999 772.196" stroke-width="5"/><path d="M290 966 H610 L560 1092 H340 Z"/><path d="M262 918 H638 V966 H262 Z"/>
  </g>
  <g fill="none" stroke="#111827" stroke-width="5" stroke-linecap="round" stroke-linejoin="round" opacity=".55">
    <path d="M112 1078 C180 1040 262 1112 344 1078 S510 1044 598 1088 S748 1118 808 1070"/>
  </g>
  <metadata>DrawSplat original SVG line art; category=plants; license=CC0-1.0/public-domain-dedicated; generated=subject-specific-v2.</metadata>
</svg>
