<?xml version="1.0" encoding="UTF-8"?>
<svg xmlns="http://www.w3.org/2000/svg" viewBox="0 0 900 1200" role="img" aria-labelledby="title desc">
  <title id="title">seaweed coloring page</title>
  <desc id="desc">Original copyright-free DrawSplat line art for classroom coloring use.</desc>
  <rect width="900" height="1200" fill="#fff"/>
  <g fill="none" stroke="#111827" stroke-width="10" stroke-linecap="round" stroke-linejoin="round">
    <rect x="42" y="42" width="816" height="1116" rx="34" stroke-width="5"/>
    <path d="M450 1030 C420 810 450 600 520 360"/>
    <path d="M450 910 C355 885 335 822 342.5 792"/>
      <path d="M450 910 C545 870 565 808 567.5 780"/>
    <path d="M457 862 C348 837 328 774 339 744"/>
      <path d="M457 862 C552 822 572 760 571 732"/>
    <path d="M464 814 C341 789 321 726 335.5 696"/>
      <path d="M464 814 C559 774 579 712 574.5 684"/>
    <path d="M471 766 C334 741 314 678 332 648"/>
      <path d="M471 766 C566 726 586 664 578 636"/>
    <path d="M478 718 C327 693 307 630 328.5 600"/>
      <path d="M478 718 C573 678 593 616 581.5 588"/>
    <path d="M485 670 C320 645 300 582 325 552"/>
      <path d="M485 670 C580 630 600 568 585 540"/>
    <path d="M492 622 C313 597 293 534 321.5 504"/>
      <path d="M492 622 C587 582 607 520 588.5 492"/>
    <path d="M499 574 C306 549 286 486 318 456"/>
      <path d="M499 574 C594 534 614 472 592 444"/>
    <path d="M506 526 C299 501 279 438 314.5 408"/>
      <path d="M506 526 C601 486 621 424 595.5 396"/>
    <path d="M513 478 C292 453 272 390 311 360"/>
      <path d="M513 478 C608 438 628 376 599 348"/>
    <path d="M520 430 C285 405 265 342 307.5 312"/>
      <path d="M520 430 C615 390 635 328 602.5 300"/>
  </g>
  <g fill="none" stroke="#111827" stroke-width="4" stroke-linecap="round" opacity=".45">
    <path d="M90 1110 C180 1080 250 1140 350 1112 S540 1088 650 1118 S790 1138 830 1100"/>
  </g>
  <metadata>DrawSplat original procedural SVG line art; category=plants; license=CC0-1.0/public-domain-dedicated.</metadata>
</svg>
