<?xml version="1.0" encoding="UTF-8"?>
<svg xmlns="http://www.w3.org/2000/svg" viewBox="0 0 900 1200" role="img" aria-labelledby="title desc">
  <title id="title">Pine Cone coloring page</title>
  <desc id="desc">Original copyright-free DrawSplat printable line art for classroom coloring use.</desc>
  <rect width="900" height="1200" fill="#fff"/>
  <g fill="none" stroke="#111827" stroke-width="11" stroke-linecap="round" stroke-linejoin="round">
    <rect x="42" y="42" width="816" height="1116" rx="34" stroke-width="5"/>
    <ellipse cx="450" cy="650" rx="178" ry="338"/><path d="M340 384 C278 418 312 490 384 472 C444 442 422 394 340 384 Z"/>
    <path d="M414 384 C352 418 386 490 458 472 C518 442 496 394 414 384 Z"/>
    <path d="M488 384 C426 418 460 490 532 472 C592 442 570 394 488 384 Z"/>
    <path d="M376 456 C314 490 348 562 420 544 C480 514 458 466 376 456 Z"/>
    <path d="M450 456 C388 490 422 562 494 544 C554 514 532 466 450 456 Z"/>
    <path d="M524 456 C462 490 496 562 568 544 C628 514 606 466 524 456 Z"/>
    <path d="M598 456 C536 490 570 562 642 544 C702 514 680 466 598 456 Z"/>
    <path d="M340 528 C278 562 312 634 384 616 C444 586 422 538 340 528 Z"/>
    <path d="M414 528 C352 562 386 634 458 616 C518 586 496 538 414 528 Z"/>
    <path d="M488 528 C426 562 460 634 532 616 C592 586 570 538 488 528 Z"/>
    <path d="M376 600 C314 634 348 706 420 688 C480 658 458 610 376 600 Z"/>
    <path d="M450 600 C388 634 422 706 494 688 C554 658 532 610 450 600 Z"/>
    <path d="M524 600 C462 634 496 706 568 688 C628 658 606 610 524 600 Z"/>
    <path d="M598 600 C536 634 570 706 642 688 C702 658 680 610 598 600 Z"/>
    <path d="M340 672 C278 706 312 778 384 760 C444 730 422 682 340 672 Z"/>
    <path d="M414 672 C352 706 386 778 458 760 C518 730 496 682 414 672 Z"/>
    <path d="M488 672 C426 706 460 778 532 760 C592 730 570 682 488 672 Z"/>
    <path d="M376 744 C314 778 348 850 420 832 C480 802 458 754 376 744 Z"/>
    <path d="M450 744 C388 778 422 850 494 832 C554 802 532 754 450 744 Z"/>
    <path d="M524 744 C462 778 496 850 568 832 C628 802 606 754 524 744 Z"/>
    <path d="M598 744 C536 778 570 850 642 832 C702 802 680 754 598 744 Z"/>
    <path d="M340 816 C278 850 312 922 384 904 C444 874 422 826 340 816 Z"/>
    <path d="M414 816 C352 850 386 922 458 904 C518 874 496 826 414 816 Z"/>
    <path d="M488 816 C426 850 460 922 532 904 C592 874 570 826 488 816 Z"/>
    <path d="M376 888 C314 922 348 994 420 976 C480 946 458 898 376 888 Z"/>
    <path d="M450 888 C388 922 422 994 494 976 C554 946 532 898 450 888 Z"/>
    <path d="M524 888 C462 922 496 994 568 976 C628 946 606 898 524 888 Z"/>
    <path d="M598 888 C536 922 570 994 642 976 C702 946 680 898 598 888 Z"/><path d="M360 294 C392 212 508 212 540 294"/>
  </g>
  <g fill="none" stroke="#111827" stroke-width="5" stroke-linecap="round" stroke-linejoin="round" opacity=".55">
    <path d="M92 1088 C170 1050 262 1128 360 1090 S560 1052 646 1098 S764 1134 820 1080"/>
  </g>
  <metadata>DrawSplat original SVG line art; category=plants; license=CC0-1.0/public-domain-dedicated; generated=subject-specific-v2.</metadata>
</svg>
