<?xml version="1.0" encoding="UTF-8"?>
<svg xmlns="http://www.w3.org/2000/svg" viewBox="0 0 900 1200" role="img" aria-labelledby="title desc">
  <title id="title">Bamboo coloring page</title>
  <desc id="desc">Original copyright-free DrawSplat printable line art for classroom coloring use.</desc>
  <rect width="900" height="1200" fill="#fff"/>
  <g fill="none" stroke="#111827" stroke-width="11" stroke-linecap="round" stroke-linejoin="round">
    <rect x="42" y="42" width="816" height="1116" rx="34" stroke-width="5"/>
    <path d="M338 1030 C318 760 326 520 354 250"/><path d="M454 1030 C432 760 442 500 468 214"/><path d="M570 1030 C548 770 560 560 590 304"/><path d="M302 362 H386"/>
    <path d="M302 500 H386"/>
    <path d="M302 642 H386"/>
    <path d="M302 784 H386"/>
    <path d="M302 910 H386"/>
    <path d="M418 362 H502"/>
    <path d="M418 500 H502"/>
    <path d="M418 642 H502"/>
    <path d="M418 784 H502"/>
    <path d="M418 910 H502"/>
    <path d="M536 362 H620"/>
    <path d="M536 500 H620"/>
    <path d="M536 642 H620"/>
    <path d="M536 784 H620"/>
    <path d="M536 910 H620"/><path d="M468 390 C505.17 329.8 562.99 340.636 585.292 382.776 C534.08 411.07 488.65 406.856 468 390 Z"/><path d="M468 390 C509.3 374.348 550.6 374.348 578.684 382.776" stroke-width="5"/><path d="M454 530 C417.892 471.52 361.724 482.0464 340.0592 522.9824 C389.808 550.468 433.94 546.3744 454 530 Z"/><path d="M454 530 C413.88 514.7952 373.76 514.7952 346.47839999999997 522.9824" stroke-width="5"/><path d="M590 604 C627.17 543.8 684.99 554.636 707.292 596.776 C656.08 625.07 610.65 620.856 590 604 Z"/><path d="M590 604 C631.3 588.348 672.6 588.348 700.684 596.776" stroke-width="5"/><path d="M350 710 C314.954 653.24 260.438 663.4568 239.41039999999998 703.1888 C287.69599999999997 729.866 330.53 725.8928 350 710 Z"/><path d="M350 710 C311.06 695.2424 272.12 695.2424 245.64079999999998 703.1888" stroke-width="5"/>
  </g>
  <g fill="none" stroke="#111827" stroke-width="5" stroke-linecap="round" stroke-linejoin="round" opacity=".55">
    <path d="M120 1090 H804"/>
  </g>
  <metadata>DrawSplat original SVG line art; category=plants; license=CC0-1.0/public-domain-dedicated; generated=subject-specific-v2.</metadata>
</svg>
