<?xml version="1.0" encoding="UTF-8"?>
<svg xmlns="http://www.w3.org/2000/svg" viewBox="0 0 900 1200" role="img" aria-labelledby="title desc">
  <title id="title">Mushroom coloring page</title>
  <desc id="desc">Original copyright-free DrawSplat printable line art for classroom coloring use.</desc>
  <rect width="900" height="1200" fill="#fff"/>
  <g fill="none" stroke="#111827" stroke-width="11" stroke-linecap="round" stroke-linejoin="round">
    <rect x="42" y="42" width="816" height="1116" rx="34" stroke-width="5"/>
    <path d="M188 510 C252 292 648 292 712 510 C594 568 306 568 188 510 Z"/><path d="M344 530 C350 650 318 826 286 1018 H614 C582 826 550 650 556 530"/><path d="M372 378 C402 330 470 332 498 382"/><circle cx="290" cy="460" r="34"/><circle cx="596" cy="438" r="42"/><circle cx="458" cy="484" r="28"/>
  </g>
  <g fill="none" stroke="#111827" stroke-width="5" stroke-linecap="round" stroke-linejoin="round" opacity=".55">
    <path d="M92 1088 C170 1050 262 1128 360 1090 S560 1052 646 1098 S764 1134 820 1080"/>
  </g>
  <metadata>DrawSplat original SVG line art; category=plants; license=CC0-1.0/public-domain-dedicated; generated=subject-specific-v2.</metadata>
</svg>
