<?xml version="1.0" encoding="UTF-8"?>
<svg xmlns="http://www.w3.org/2000/svg" viewBox="0 0 900 1200" role="img" aria-labelledby="title desc">
  <title id="title">aloe coloring page</title>
  <desc id="desc">Original copyright-free DrawSplat line art for classroom coloring use.</desc>
  <rect width="900" height="1200" fill="#fff"/>
  <g fill="none" stroke="#111827" stroke-width="10" stroke-linecap="round" stroke-linejoin="round">
    <rect x="42" y="42" width="816" height="1116" rx="34" stroke-width="5"/>
    <path d="M450 940 C386 850 386 470 450 350 C514 470 514 850 450 940 Z"/>
    <path d="M386 650 C292 608 282 486 342 438 C382 474 386 554 386 650 Z"/>
    <path d="M514 730 C624 690 638 548 564 500 C520 548 516 632 514 730 Z"/>
    <path d="M420 472 l-22 28 M488 526 l28 22 M430 650 l-28 18 M488 780 l28 18"/><path d="M304 972 H596 L552 1090 H348 Z"/><path d="M278 930 H622 V972 H278 Z"/>
  </g>
  <g fill="none" stroke="#111827" stroke-width="4" stroke-linecap="round" opacity=".45">
    <path d="M90 1110 C180 1080 250 1140 350 1112 S540 1088 650 1118 S790 1138 830 1100"/>
  </g>
  <metadata>DrawSplat original procedural SVG line art; category=plants; license=CC0-1.0/public-domain-dedicated.</metadata>
</svg>
