<?xml version="1.0" encoding="UTF-8"?>
<svg xmlns="http://www.w3.org/2000/svg" viewBox="0 0 900 1200" role="img" aria-labelledby="title desc">
  <title id="title">Maple Leaf coloring page</title>
  <desc id="desc">Original copyright-free DrawSplat printable line art for classroom coloring use.</desc>
  <rect width="900" height="1200" fill="#fff"/>
  <g fill="none" stroke="#111827" stroke-width="11" stroke-linecap="round" stroke-linejoin="round">
    <rect x="42" y="42" width="816" height="1116" rx="34" stroke-width="5"/>
    <path d="M450 1032 L402 812 L230 902 L306 690 L132 620 L338 560 L270 322 L450 470 L630 322 L562 560 L768 620 L594 690 L670 902 L498 812 Z"/><path d="M450 1032 V470 M450 628 L270 322 M450 628 L630 322 M450 740 L132 620 M450 740 L768 620"/>
  </g>
  <g fill="none" stroke="#111827" stroke-width="5" stroke-linecap="round" stroke-linejoin="round" opacity=".55">
    <path d="M92 1088 C170 1050 262 1128 360 1090 S560 1052 646 1098 S764 1134 820 1080"/>
  </g>
  <metadata>DrawSplat original SVG line art; category=plants; license=CC0-1.0/public-domain-dedicated; generated=subject-specific-v2.</metadata>
</svg>
