<?xml version="1.0" encoding="UTF-8"?>
<svg xmlns="http://www.w3.org/2000/svg" viewBox="0 0 900 1200" role="img" aria-labelledby="title desc">
  <title id="title">Sunflower coloring page</title>
  <desc id="desc">Original copyright-free DrawSplat printable line art for classroom coloring use.</desc>
  <rect width="900" height="1200" fill="#fff"/>
  <g fill="none" stroke="#111827" stroke-width="11" stroke-linecap="round" stroke-linejoin="round">
    <rect x="42" y="42" width="816" height="1116" rx="34" stroke-width="5"/>
    <ellipse cx="450" cy="382" rx="36" ry="116" transform="rotate(0 450 382)"/>
    <ellipse cx="450" cy="382" rx="36" ry="116" transform="rotate(18 450 382)"/>
    <ellipse cx="450" cy="382" rx="36" ry="116" transform="rotate(36 450 382)"/>
    <ellipse cx="450" cy="382" rx="36" ry="116" transform="rotate(54 450 382)"/>
    <ellipse cx="450" cy="382" rx="36" ry="116" transform="rotate(72 450 382)"/>
    <ellipse cx="450" cy="382" rx="36" ry="116" transform="rotate(90 450 382)"/>
    <ellipse cx="450" cy="382" rx="36" ry="116" transform="rotate(108 450 382)"/>
    <ellipse cx="450" cy="382" rx="36" ry="116" transform="rotate(126 450 382)"/>
    <ellipse cx="450" cy="382" rx="36" ry="116" transform="rotate(144 450 382)"/>
    <ellipse cx="450" cy="382" rx="36" ry="116" transform="rotate(162 450 382)"/>
    <ellipse cx="450" cy="382" rx="36" ry="116" transform="rotate(180 450 382)"/>
    <ellipse cx="450" cy="382" rx="36" ry="116" transform="rotate(198 450 382)"/>
    <ellipse cx="450" cy="382" rx="36" ry="116" transform="rotate(216 450 382)"/>
    <ellipse cx="450" cy="382" rx="36" ry="116" transform="rotate(234 450 382)"/>
    <ellipse cx="450" cy="382" rx="36" ry="116" transform="rotate(252 450 382)"/>
    <ellipse cx="450" cy="382" rx="36" ry="116" transform="rotate(270 450 382)"/>
    <ellipse cx="450" cy="382" rx="36" ry="116" transform="rotate(288 450 382)"/>
    <ellipse cx="450" cy="382" rx="36" ry="116" transform="rotate(306 450 382)"/>
    <ellipse cx="450" cy="382" rx="36" ry="116" transform="rotate(324 450 382)"/>
    <ellipse cx="450" cy="382" rx="36" ry="116" transform="rotate(342 450 382)"/><circle cx="450" cy="382" r="92"/><circle cx="450" cy="382" r="58" stroke-width="6"/><path d="M450 515 C430 680 438 832 450 1014"/><path d="M450 650 C394.245 559.7 307.515 575.954 274.062 639.164 C350.88 681.605 419.025 675.284 450 650 Z"/><path d="M450 650 C388.05 626.522 326.1 626.522 283.974 639.164" stroke-width="5"/><path d="M454 770 C504.445 688.3 582.915 703.006 613.182 760.196 C543.6800000000001 798.595 482.025 792.876 454 770 Z"/><path d="M454 770 C510.05 748.758 566.1 748.758 604.2139999999999 760.196" stroke-width="5"/><path d="M290 966 H610 L560 1092 H340 Z"/><path d="M262 918 H638 V966 H262 Z"/>
  </g>
  <g fill="none" stroke="#111827" stroke-width="5" stroke-linecap="round" stroke-linejoin="round" opacity=".55">
    <path d="M112 1078 C180 1040 262 1112 344 1078 S510 1044 598 1088 S748 1118 808 1070"/>
  </g>
  <metadata>DrawSplat original SVG line art; category=plants; license=CC0-1.0/public-domain-dedicated; generated=subject-specific-v2.</metadata>
</svg>
