<?xml version="1.0" encoding="UTF-8"?>
<svg xmlns="http://www.w3.org/2000/svg" viewBox="0 0 900 1200" role="img" aria-labelledby="title desc">
  <title id="title">Palm Frond coloring page</title>
  <desc id="desc">Original copyright-free DrawSplat printable line art for classroom coloring use.</desc>
  <rect width="900" height="1200" fill="#fff"/>
  <g fill="none" stroke="#111827" stroke-width="11" stroke-linecap="round" stroke-linejoin="round">
    <rect x="42" y="42" width="816" height="1116" rx="34" stroke-width="5"/>
    <path d="M450 1020 C420 820 458 582 548 294"/><path d="M460 932 C360 898 355 834 415 798"/><path d="M460 932 C560 892 563 824 504 790"/>
    <path d="M467 880 C360 846 354.65 782 418.85 746"/><path d="M467 880 C574 840 577.21 772 514.08 738"/>
    <path d="M474 828 C360 794 354.3 730 422.7 694"/><path d="M474 828 C588 788 591.42 720 524.16 686"/>
    <path d="M481 776 C360 742 353.95 678 426.55 642"/><path d="M481 776 C602 736 605.63 668 534.24 634"/>
    <path d="M488 724 C360 690 353.6 626 430.4 590"/><path d="M488 724 C616 684 619.84 616 544.32 582"/>
    <path d="M495 672 C360 638 353.25 574 434.25 538"/><path d="M495 672 C630 632 634.05 564 554.4 530"/>
    <path d="M502 620 C360 586 352.9 522 438.1 486"/><path d="M502 620 C644 580 648.26 512 564.48 478"/>
    <path d="M509 568 C360 534 352.54999999999995 470 441.95 434"/><path d="M509 568 C658 528 662.47 460 574.56 426"/>
    <path d="M516 516 C360 482 352.2 418 445.8 382"/><path d="M516 516 C672 476 676.6800000000001 408 584.64 374"/>
    <path d="M523 464 C360 430 351.85 366 449.65 330"/><path d="M523 464 C686 424 690.89 356 594.72 322"/>
    <path d="M530 412 C360 378 351.5 314 453.5 278"/><path d="M530 412 C700 372 705.1 304 604.8 270"/>
    <path d="M537 360 C360 326 351.15 262 457.35 226"/><path d="M537 360 C714 320 719.31 252 614.88 218"/>
  </g>
  <g fill="none" stroke="#111827" stroke-width="5" stroke-linecap="round" stroke-linejoin="round" opacity=".55">
    <path d="M120 1070 C250 1028 380 1110 520 1070 S724 1038 814 1080"/>
  </g>
  <metadata>DrawSplat original SVG line art; category=plants; license=CC0-1.0/public-domain-dedicated; generated=subject-specific-v2.</metadata>
</svg>
