<?xml version="1.0" encoding="UTF-8"?>
<svg xmlns="http://www.w3.org/2000/svg" viewBox="0 0 900 1200" role="img" aria-labelledby="title desc">
  <title id="title">Cactus coloring page</title>
  <desc id="desc">Original copyright-free DrawSplat printable line art for classroom coloring use.</desc>
  <rect width="900" height="1200" fill="#fff"/>
  <g fill="none" stroke="#111827" stroke-width="11" stroke-linecap="round" stroke-linejoin="round">
    <rect x="42" y="42" width="816" height="1116" rx="34" stroke-width="5"/>
    <path d="M452 944 C386 850 390 492 452 334 C516 492 518 850 452 944 Z"/><path d="M392 610 C304 590 284 456 344 398 C398 430 408 520 392 610 Z"/><path d="M512 720 C620 688 646 540 576 488 C520 534 506 618 512 720 Z"/><path d="M416 468 l-26 26 M490 534 l32 18 M420 668 l-32 18 M494 802 l34 20"/><path d="M290 966 H610 L560 1092 H340 Z"/><path d="M262 918 H638 V966 H262 Z"/>
  </g>
  <g fill="none" stroke="#111827" stroke-width="5" stroke-linecap="round" stroke-linejoin="round" opacity=".55">
    <path d="M100 1092 C244 1036 334 1120 454 1084 S700 1028 816 1092"/>
  </g>
  <metadata>DrawSplat original SVG line art; category=plants; license=CC0-1.0/public-domain-dedicated; generated=subject-specific-v2.</metadata>
</svg>
