<?xml version="1.0" encoding="UTF-8"?>
<svg xmlns="http://www.w3.org/2000/svg" viewBox="0 0 900 1200" role="img" aria-labelledby="title desc">
  <title id="title">Orchid coloring page</title>
  <desc id="desc">Original copyright-free DrawSplat printable line art for classroom coloring use.</desc>
  <rect width="900" height="1200" fill="#fff"/>
  <g fill="none" stroke="#111827" stroke-width="11" stroke-linecap="round" stroke-linejoin="round">
    <rect x="42" y="42" width="816" height="1116" rx="34" stroke-width="5"/>
    <ellipse cx="450" cy="392" rx="82" ry="118"/><ellipse cx="336" cy="430" rx="94" ry="138" transform="rotate(-38 336 430)"/><ellipse cx="564" cy="430" rx="94" ry="138" transform="rotate(38 564 430)"/><ellipse cx="396" cy="560" rx="82" ry="126" transform="rotate(26 396 560)"/><ellipse cx="504" cy="560" rx="82" ry="126" transform="rotate(-26 504 560)"/><path d="M410 482 C442 454 482 454 512 482 C492 538 430 538 410 482 Z"/><path d="M450 515 C430 680 438 832 450 1014"/><path d="M450 746 C404.865 672.9 334.65500000000003 686.058 307.574 737.228 C369.76 771.585 424.925 766.468 450 746 Z"/><path d="M450 746 C399.85 726.994 349.7 726.994 315.59799999999996 737.228" stroke-width="5"/><path d="M452 840 C494.48 771.2 560.56 783.5840000000001 586.048 831.744 C527.52 864.08 475.6 859.264 452 840 Z"/><path d="M452 840 C499.2 822.112 546.4 822.112 578.496 831.744" stroke-width="5"/><path d="M290 966 H610 L560 1092 H340 Z"/><path d="M262 918 H638 V966 H262 Z"/>
  </g>
  <g fill="none" stroke="#111827" stroke-width="5" stroke-linecap="round" stroke-linejoin="round" opacity=".55">
    <path d="M112 1078 C180 1040 262 1112 344 1078 S510 1044 598 1088 S748 1118 808 1070"/>
  </g>
  <metadata>DrawSplat original SVG line art; category=plants; license=CC0-1.0/public-domain-dedicated; generated=subject-specific-v2.</metadata>
</svg>
