<?xml version="1.0" encoding="UTF-8"?>
<svg xmlns="http://www.w3.org/2000/svg" viewBox="0 0 900 1200" role="img" aria-labelledby="title desc">
  <title id="title">Daisy coloring page</title>
  <desc id="desc">Original copyright-free DrawSplat printable line art for classroom coloring use.</desc>
  <rect width="900" height="1200" fill="#fff"/>
  <g fill="none" stroke="#111827" stroke-width="11" stroke-linecap="round" stroke-linejoin="round">
    <rect x="42" y="42" width="816" height="1116" rx="34" stroke-width="5"/>
    <ellipse cx="450" cy="378" rx="32" ry="104" transform="rotate(0 450 378)"/>
    <ellipse cx="450" cy="378" rx="32" ry="104" transform="rotate(25.714285714285715 450 378)"/>
    <ellipse cx="450" cy="378" rx="32" ry="104" transform="rotate(51.42857142857143 450 378)"/>
    <ellipse cx="450" cy="378" rx="32" ry="104" transform="rotate(77.14285714285714 450 378)"/>
    <ellipse cx="450" cy="378" rx="32" ry="104" transform="rotate(102.85714285714286 450 378)"/>
    <ellipse cx="450" cy="378" rx="32" ry="104" transform="rotate(128.57142857142858 450 378)"/>
    <ellipse cx="450" cy="378" rx="32" ry="104" transform="rotate(154.28571428571428 450 378)"/>
    <ellipse cx="450" cy="378" rx="32" ry="104" transform="rotate(180 450 378)"/>
    <ellipse cx="450" cy="378" rx="32" ry="104" transform="rotate(205.71428571428572 450 378)"/>
    <ellipse cx="450" cy="378" rx="32" ry="104" transform="rotate(231.42857142857142 450 378)"/>
    <ellipse cx="450" cy="378" rx="32" ry="104" transform="rotate(257.14285714285717 450 378)"/>
    <ellipse cx="450" cy="378" rx="32" ry="104" transform="rotate(282.85714285714283 450 378)"/>
    <ellipse cx="450" cy="378" rx="32" ry="104" transform="rotate(308.57142857142856 450 378)"/>
    <ellipse cx="450" cy="378" rx="32" ry="104" transform="rotate(334.2857142857143 450 378)"/><circle cx="450" cy="378" r="62"/><path d="M450 515 C430 680 438 832 450 1014"/><path d="M450 700 C404.865 626.9 334.65500000000003 640.058 307.574 691.228 C369.76 725.585 424.925 720.468 450 700 Z"/><path d="M450 700 C399.85 680.994 349.7 680.994 315.59799999999996 691.228" stroke-width="5"/><path d="M452 810 C494.48 741.2 560.56 753.5840000000001 586.048 801.744 C527.52 834.08 475.6 829.264 452 810 Z"/><path d="M452 810 C499.2 792.112 546.4 792.112 578.496 801.744" stroke-width="5"/><path d="M290 966 H610 L560 1092 H340 Z"/><path d="M262 918 H638 V966 H262 Z"/>
  </g>
  <g fill="none" stroke="#111827" stroke-width="5" stroke-linecap="round" stroke-linejoin="round" opacity=".55">
    <path d="M112 1078 C180 1040 262 1112 344 1078 S510 1044 598 1088 S748 1118 808 1070"/>
  </g>
  <metadata>DrawSplat original SVG line art; category=plants; license=CC0-1.0/public-domain-dedicated; generated=subject-specific-v2.</metadata>
</svg>
