<?xml version="1.0" encoding="UTF-8"?>
<svg xmlns="http://www.w3.org/2000/svg" viewBox="0 0 900 1200" role="img" aria-labelledby="title desc">
  <title id="title">Aloe coloring page</title>
  <desc id="desc">Original copyright-free DrawSplat printable line art for classroom coloring use.</desc>
  <rect width="900" height="1200" fill="#fff"/>
  <g fill="none" stroke="#111827" stroke-width="11" stroke-linecap="round" stroke-linejoin="round">
    <rect x="42" y="42" width="816" height="1116" rx="34" stroke-width="5"/>
    <path d="M450 926 C416 720 420 520 450 300 C480 520 484 720 450 926 Z"/><path d="M450 926 C328 760 284 568 306 376 C412 566 446 760 450 926 Z"/><path d="M450 926 C572 760 616 568 594 376 C488 566 454 760 450 926 Z"/><path d="M450 926 C300 852 210 708 184 536 C344 650 422 786 450 926 Z"/><path d="M450 926 C600 852 690 708 716 536 C556 650 478 786 450 926 Z"/><path d="M290 966 H610 L560 1092 H340 Z"/><path d="M262 918 H638 V966 H262 Z"/>
  </g>
  <g fill="none" stroke="#111827" stroke-width="5" stroke-linecap="round" stroke-linejoin="round" opacity=".55">
    <path d="M132 1090 H780"/>
  </g>
  <metadata>DrawSplat original SVG line art; category=plants; license=CC0-1.0/public-domain-dedicated; generated=subject-specific-v2.</metadata>
</svg>
