<?xml version="1.0" encoding="UTF-8"?>
<svg xmlns="http://www.w3.org/2000/svg" viewBox="0 0 900 1200" role="img" aria-labelledby="title desc">
  <title id="title">Oak Leaf coloring page</title>
  <desc id="desc">Original copyright-free DrawSplat printable line art for classroom coloring use.</desc>
  <rect width="900" height="1200" fill="#fff"/>
  <g fill="none" stroke="#111827" stroke-width="11" stroke-linecap="round" stroke-linejoin="round">
    <rect x="42" y="42" width="816" height="1116" rx="34" stroke-width="5"/>
    <path d="M452 1028 C322 900 238 780 238 646 C146 574 198 442 306 462 C296 330 430 278 492 382 C566 284 706 348 662 486 C778 504 790 650 698 696 C702 826 610 944 452 1028 Z"/><path d="M452 1028 C454 802 466 584 492 382"/><path d="M456 704 C374 654 310 596 250 516 M466 610 C552 560 612 512 668 456 M452 838 C360 810 286 760 230 694 M462 834 C562 798 634 746 706 682"/>
  </g>
  <g fill="none" stroke="#111827" stroke-width="5" stroke-linecap="round" stroke-linejoin="round" opacity=".55">
    <path d="M92 1088 C170 1050 262 1128 360 1090 S560 1052 646 1098 S764 1134 820 1080"/>
  </g>
  <metadata>DrawSplat original SVG line art; category=plants; license=CC0-1.0/public-domain-dedicated; generated=subject-specific-v2.</metadata>
</svg>
