<?xml version="1.0" encoding="UTF-8"?>
<svg xmlns="http://www.w3.org/2000/svg" viewBox="0 0 900 1200" role="img" aria-labelledby="title desc">
  <title id="title">Clover coloring page</title>
  <desc id="desc">Original copyright-free DrawSplat printable line art for classroom coloring use.</desc>
  <rect width="900" height="1200" fill="#fff"/>
  <g fill="none" stroke="#111827" stroke-width="11" stroke-linecap="round" stroke-linejoin="round">
    <rect x="42" y="42" width="816" height="1116" rx="34" stroke-width="5"/>
    <path d="M450 1018 C432 850 430 694 450 548"/><path d="M450 548 C328 454 356 298 450 328 C544 298 572 454 450 548 Z"/><path d="M446 548 C312 608 198 516 270 426 C366 390 424 450 446 548 Z"/><path d="M454 548 C588 608 702 516 630 426 C534 390 476 450 454 548 Z"/><path d="M450 548 C368 672 462 778 548 694 C586 602 536 556 450 548 Z"/><path d="M290 966 H610 L560 1092 H340 Z"/><path d="M262 918 H638 V966 H262 Z"/>
  </g>
  <g fill="none" stroke="#111827" stroke-width="5" stroke-linecap="round" stroke-linejoin="round" opacity=".55">
    <path d="M112 1078 C180 1040 262 1112 344 1078 S510 1044 598 1088 S748 1118 808 1070"/>
  </g>
  <metadata>DrawSplat original SVG line art; category=plants; license=CC0-1.0/public-domain-dedicated; generated=subject-specific-v2.</metadata>
</svg>
