<?xml version="1.0" encoding="UTF-8"?>
<svg xmlns="http://www.w3.org/2000/svg" viewBox="0 0 900 1200" role="img" aria-labelledby="title desc">
  <title id="title">Pumpkin Vine coloring page</title>
  <desc id="desc">Original copyright-free DrawSplat printable line art for classroom coloring use.</desc>
  <rect width="900" height="1200" fill="#fff"/>
  <g fill="none" stroke="#111827" stroke-width="11" stroke-linecap="round" stroke-linejoin="round">
    <rect x="42" y="42" width="816" height="1116" rx="34" stroke-width="5"/>
    <ellipse cx="450" cy="780" rx="230" ry="178"/><ellipse cx="450" cy="780" rx="104" ry="178"/><path d="M450 604 C438 550 470 514 516 520"/><path d="M522 542 C650 452 734 516 660 602"/><path d="M320 608 C230 506 126 564 184 682"/><path d="M648 588 C736 544 782 592 760 660"/><path d="M242 560 C204 486 246 420 326 442 C334 510 302 550 242 560 Z"/><path d="M662 506 C704 422 796 430 820 512 C752 558 704 552 662 506 Z"/>
  </g>
  <g fill="none" stroke="#111827" stroke-width="5" stroke-linecap="round" stroke-linejoin="round" opacity=".55">
    <path d="M96 1012 C236 960 366 1040 510 1002 S706 958 820 1020"/>
  </g>
  <metadata>DrawSplat original SVG line art; category=plants; license=CC0-1.0/public-domain-dedicated; generated=subject-specific-v2.</metadata>
</svg>
