<?xml version="1.0" encoding="UTF-8"?>
<svg xmlns="http://www.w3.org/2000/svg" viewBox="0 0 900 1200" role="img" aria-labelledby="title desc">
  <title id="title">oak-leaf coloring page</title>
  <desc id="desc">Original copyright-free DrawSplat line art for classroom coloring use.</desc>
  <rect width="900" height="1200" fill="#fff"/>
  <g fill="none" stroke="#111827" stroke-width="10" stroke-linecap="round" stroke-linejoin="round">
    <rect x="42" y="42" width="816" height="1116" rx="34" stroke-width="5"/>
    <path d="M452 1028 C220 780 236 450 520 264 C706 540 670 846 452 1028 Z"/>
    <path d="M452 1028 C470 812 482 604 520 264"/>
    <path d="M468 780 C392 760 326 720 260 648 M482 684 C566 642 626 584 676 506 M474 884 C392 864 332 832 274 780"/>
  </g>
  <g fill="none" stroke="#111827" stroke-width="4" stroke-linecap="round" opacity=".45">
    <path d="M90 1110 C180 1080 250 1140 350 1112 S540 1088 650 1118 S790 1138 830 1100"/>
  </g>
  <metadata>DrawSplat original procedural SVG line art; category=plants; license=CC0-1.0/public-domain-dedicated.</metadata>
</svg>
