<?xml version="1.0" encoding="UTF-8"?>
<svg xmlns="http://www.w3.org/2000/svg" viewBox="0 0 900 1200" role="img" aria-labelledby="title desc">
  <title id="title">Tulip coloring page</title>
  <desc id="desc">Original copyright-free DrawSplat printable line art for classroom coloring use.</desc>
  <rect width="900" height="1200" fill="#fff"/>
  <g fill="none" stroke="#111827" stroke-width="11" stroke-linecap="round" stroke-linejoin="round">
    <rect x="42" y="42" width="816" height="1116" rx="34" stroke-width="5"/>
    <path d="M450 512 C340 438 330 294 388 232 C426 292 450 338 450 410 C450 338 474 292 512 232 C570 294 560 438 450 512 Z"/><path d="M388 232 C384 360 414 450 450 512 M512 232 C516 360 486 450 450 512"/><path d="M450 515 C430 680 438 832 450 1014"/><path d="M450 690 C391.59 595.4 300.73 612.428 265.68399999999997 678.648 C346.15999999999997 723.11 417.55 716.488 450 690 Z"/><path d="M450 690 C385.1 665.404 320.2 665.404 276.068 678.648" stroke-width="5"/><path d="M452 824 C505.1 738 587.7 753.48 619.56 813.68 C546.4 854.1 481.5 848.08 452 824 Z"/><path d="M452 824 C511 801.64 570 801.64 610.12 813.68" stroke-width="5"/><path d="M290 966 H610 L560 1092 H340 Z"/><path d="M262 918 H638 V966 H262 Z"/>
  </g>
  <g fill="none" stroke="#111827" stroke-width="5" stroke-linecap="round" stroke-linejoin="round" opacity=".55">
    <path d="M112 1078 C180 1040 262 1112 344 1078 S510 1044 598 1088 S748 1118 808 1070"/>
  </g>
  <metadata>DrawSplat original SVG line art; category=plants; license=CC0-1.0/public-domain-dedicated; generated=subject-specific-v2.</metadata>
</svg>
