<svg xmlns="http://www.w3.org/2000/svg" viewBox="0 0 256 256" width="512" height="512">
<defs>
<filter id="shadow" x="-30%" y="-30%" width="160%" height="160%"><feDropShadow dx="0" dy="8" stdDeviation="7" flood-color="#000000" flood-opacity="0.22"/></filter>
<linearGradient id="blue" x1="0" y1="0" x2="1" y2="1"><stop stop-color="#4fc3ff"/><stop offset="1" stop-color="#0b66d8"/></linearGradient>
<linearGradient id="green" x1="0" y1="0" x2="1" y2="1"><stop stop-color="#a7ef2b"/><stop offset="1" stop-color="#21a43b"/></linearGradient>
<linearGradient id="orange" x1="0" y1="0" x2="1" y2="1"><stop stop-color="#ffbf22"/><stop offset="1" stop-color="#ff5b1a"/></linearGradient>
<linearGradient id="purple" x1="0" y1="0" x2="1" y2="1"><stop stop-color="#b889ff"/><stop offset="1" stop-color="#5e2ee8"/></linearGradient>
<linearGradient id="teal" x1="0" y1="0" x2="1" y2="1"><stop stop-color="#45efe6"/><stop offset="1" stop-color="#0794a8"/></linearGradient>
<linearGradient id="pink" x1="0" y1="0" x2="1" y2="1"><stop stop-color="#ff86a6"/><stop offset="1" stop-color="#e01761"/></linearGradient>
<linearGradient id="gold" x1="0" y1="0" x2="1" y2="1"><stop stop-color="#ffe45d"/><stop offset="1" stop-color="#f59e00"/></linearGradient>
<linearGradient id="gray" x1="0" y1="0" x2="1" y2="1"><stop stop-color="#eef4fb"/><stop offset="1" stop-color="#8da0b9"/></linearGradient>

</defs>
<g filter="url(#shadow)"><line x1="65" y1="190" x2="132" y2="102" stroke="#123f66" stroke-width="14" stroke-linecap="round"/><path d="M143 48 l15 35 36 13 -36 13 -15 35 -15-35 -36-13 36-13z" fill="url(#gold)"/><path d="M189 55 l5 13 13 5 -13 5 -5 13 -5-13-13-5 13-5z" fill="url(#purple)"/><path d="M178 152 l5 13 13 5 -13 5 -5 13 -5-13-13-5 13-5z" fill="url(#teal)"/></g>
</svg>