<svg xmlns="http://www.w3.org/2000/svg" viewBox="0 0 256 256" width="512" height="512">
<defs>
<filter id="shadow" x="-30%" y="-30%" width="160%" height="160%"><feDropShadow dx="0" dy="8" stdDeviation="7" flood-color="#000000" flood-opacity="0.22"/></filter>
<linearGradient id="blue" x1="0" y1="0" x2="1" y2="1"><stop stop-color="#4fc3ff"/><stop offset="1" stop-color="#0b66d8"/></linearGradient>
<linearGradient id="green" x1="0" y1="0" x2="1" y2="1"><stop stop-color="#a7ef2b"/><stop offset="1" stop-color="#21a43b"/></linearGradient>
<linearGradient id="orange" x1="0" y1="0" x2="1" y2="1"><stop stop-color="#ffbf22"/><stop offset="1" stop-color="#ff5b1a"/></linearGradient>
<linearGradient id="purple" x1="0" y1="0" x2="1" y2="1"><stop stop-color="#b889ff"/><stop offset="1" stop-color="#5e2ee8"/></linearGradient>
<linearGradient id="teal" x1="0" y1="0" x2="1" y2="1"><stop stop-color="#45efe6"/><stop offset="1" stop-color="#0794a8"/></linearGradient>
<linearGradient id="pink" x1="0" y1="0" x2="1" y2="1"><stop stop-color="#ff86a6"/><stop offset="1" stop-color="#e01761"/></linearGradient>
<linearGradient id="gold" x1="0" y1="0" x2="1" y2="1"><stop stop-color="#ffe45d"/><stop offset="1" stop-color="#f59e00"/></linearGradient>
<linearGradient id="gray" x1="0" y1="0" x2="1" y2="1"><stop stop-color="#eef4fb"/><stop offset="1" stop-color="#8da0b9"/></linearGradient>

</defs>
<g filter="url(#shadow)"><path d="M50 185 H205 M50 185 V45" stroke="url(#purple)" stroke-width="10" stroke-linecap="round"/><path d="M205 185 l-18 -14 M205 185 l-18 14 M50 45 l-14 18 M50 45 l14 18" stroke="url(#purple)" stroke-width="8" stroke-linecap="round"/><circle cx="92" cy="124" r="13" fill="url(#purple)"/><circle cx="121" cy="94" r="13" fill="url(#blue)"/><circle cx="140" cy="130" r="13" fill="url(#orange)"/><circle cx="161" cy="104" r="13" fill="url(#green)"/><circle cx="108" cy="151" r="13" fill="url(#pink)"/><circle cx="188" cy="137" r="13" fill="url(#orange)"/></g>
</svg>