<svg xmlns="http://www.w3.org/2000/svg" viewBox="0 0 256 256" width="512" height="512">
<defs>
<filter id="shadow" x="-30%" y="-30%" width="160%" height="160%"><feDropShadow dx="0" dy="8" stdDeviation="7" flood-color="#000000" flood-opacity="0.22"/></filter>
<linearGradient id="blue" x1="0" y1="0" x2="1" y2="1"><stop stop-color="#4fc3ff"/><stop offset="1" stop-color="#0b66d8"/></linearGradient>
<linearGradient id="green" x1="0" y1="0" x2="1" y2="1"><stop stop-color="#a7ef2b"/><stop offset="1" stop-color="#21a43b"/></linearGradient>
<linearGradient id="orange" x1="0" y1="0" x2="1" y2="1"><stop stop-color="#ffbf22"/><stop offset="1" stop-color="#ff5b1a"/></linearGradient>
<linearGradient id="purple" x1="0" y1="0" x2="1" y2="1"><stop stop-color="#b889ff"/><stop offset="1" stop-color="#5e2ee8"/></linearGradient>
<linearGradient id="teal" x1="0" y1="0" x2="1" y2="1"><stop stop-color="#45efe6"/><stop offset="1" stop-color="#0794a8"/></linearGradient>
<linearGradient id="pink" x1="0" y1="0" x2="1" y2="1"><stop stop-color="#ff86a6"/><stop offset="1" stop-color="#e01761"/></linearGradient>
<linearGradient id="gold" x1="0" y1="0" x2="1" y2="1"><stop stop-color="#ffe45d"/><stop offset="1" stop-color="#f59e00"/></linearGradient>
<linearGradient id="gray" x1="0" y1="0" x2="1" y2="1"><stop stop-color="#eef4fb"/><stop offset="1" stop-color="#8da0b9"/></linearGradient>

</defs>
<path d="M165 48 q45 20 20 70" fill="none" stroke="url(#purple)" stroke-width="14" stroke-linecap="round" filter="url(#shadow)"/><g filter="url(#shadow)">
<rect x="55" y="86" width="110" height="85" rx="16" fill="#fff"/>
<clipPath id="clip5586"><rect x="63" y="94" width="94" height="69" rx="10"/></clipPath>
<g clip-path="url(#clip5586)">
<rect x="63" y="94" width="94" height="69" fill="url(#blue)"/>
<circle cx="129" cy="120" r="18" fill="url(#gold)"/>
<path d="M63,143 C95,164 120,168 145,143 Z" fill="#0a5e91"/>
<path d="M75,153 C115,166 167,164 157,149 L157,163 L63,163 Z" fill="url(#green)"/>
<path d="M80,124 q15,-20 31,0 q12,-8 24,12 h-78 q8,-12 23,-12" fill="#fff" opacity=".95"/>

</g></g><path d="M201 133 l8 20 20 8 -20 8 -8 20 -8-20 -20-8 20-8z" fill="url(#gold)" filter="url(#shadow)"/>
</svg>