<svg xmlns="http://www.w3.org/2000/svg" viewBox="0 0 256 256" width="512" height="512">
<defs>
<filter id="shadow" x="-30%" y="-30%" width="160%" height="160%"><feDropShadow dx="0" dy="8" stdDeviation="7" flood-color="#000000" flood-opacity="0.22"/></filter>
<linearGradient id="blue" x1="0" y1="0" x2="1" y2="1"><stop stop-color="#4fc3ff"/><stop offset="1" stop-color="#0b66d8"/></linearGradient>
<linearGradient id="green" x1="0" y1="0" x2="1" y2="1"><stop stop-color="#a7ef2b"/><stop offset="1" stop-color="#21a43b"/></linearGradient>
<linearGradient id="orange" x1="0" y1="0" x2="1" y2="1"><stop stop-color="#ffbf22"/><stop offset="1" stop-color="#ff5b1a"/></linearGradient>
<linearGradient id="purple" x1="0" y1="0" x2="1" y2="1"><stop stop-color="#b889ff"/><stop offset="1" stop-color="#5e2ee8"/></linearGradient>
<linearGradient id="teal" x1="0" y1="0" x2="1" y2="1"><stop stop-color="#45efe6"/><stop offset="1" stop-color="#0794a8"/></linearGradient>
<linearGradient id="pink" x1="0" y1="0" x2="1" y2="1"><stop stop-color="#ff86a6"/><stop offset="1" stop-color="#e01761"/></linearGradient>
<linearGradient id="gold" x1="0" y1="0" x2="1" y2="1"><stop stop-color="#ffe45d"/><stop offset="1" stop-color="#f59e00"/></linearGradient>
<linearGradient id="gray" x1="0" y1="0" x2="1" y2="1"><stop stop-color="#eef4fb"/><stop offset="1" stop-color="#8da0b9"/></linearGradient>

</defs>
<g filter="url(#shadow)"><ellipse cx="128" cy="184" rx="64" ry="18" fill="url(#blue)"/><rect x="70" y="154" width="116" height="36" rx="12" fill="#f6fbff" stroke="#2a73c4" stroke-width="6"/><path d="M104 84 q0-28 24-28 q24 0 24 28 v58 h-48z" fill="url(#blue)"/><ellipse cx="128" cy="83" rx="30" ry="28" fill="url(#blue)"/></g>
</svg>