<svg xmlns="http://www.w3.org/2000/svg" viewBox="0 0 160 160" width="160" height="160"><title>Methane (CH₄)</title><path d="M80.0 64.0 L80.0 21.0" stroke="#475569" stroke-width="3"/><path d="M80.0 64.0 L30.0 92.0" stroke="#475569" stroke-width="3"/><path d="M80 64 L97.6 100.8 L110.4 91.2 Z" fill="#475569"/><path d="M89.89742928896759 58.69331615131571 L90.90257071103242 61.30668384868429" stroke="#475569" stroke-width="2"/><path d="M94.84614393345137 56.03997422697358 L96.35385606654862 59.96002577302642" stroke="#475569" stroke-width="2"/><path d="M99.79485857793516 53.38663230263143 L101.80514142206484 58.61336769736857" stroke="#475569" stroke-width="2"/><path d="M104.74357322241896 50.73329037828929 L107.25642677758104 57.26670962171071" stroke="#475569" stroke-width="2"/><path d="M109.69228786690275 48.07994845394715 L112.70771213309726 55.92005154605285" stroke="#475569" stroke-width="2"/><path d="M114.64100251138655 45.42660652960501 L118.15899748861347 54.57339347039499" stroke="#475569" stroke-width="2"/><path d="M119.58971715587033 42.77326460526287 L123.61028284412966 53.22673539473713" stroke="#475569" stroke-width="2"/><g data-element="C"><circle cx="80" cy="64" r="17" fill="#374151" stroke="#334155" stroke-width="2"/><text x="80" y="69" text-anchor="middle" font-family="Arial,sans-serif" font-size="15" font-weight="700" fill="#fff">C</text></g><g data-element="H"><circle cx="80" cy="21" r="17" fill="#f8fafc" stroke="#334155" stroke-width="2"/><text x="80" y="26" text-anchor="middle" font-family="Arial,sans-serif" font-size="15" font-weight="700" fill="#172033">H</text></g><g data-element="H"><circle cx="30" cy="92" r="17" fill="#f8fafc" stroke="#334155" stroke-width="2"/><text x="30" y="97" text-anchor="middle" font-family="Arial,sans-serif" font-size="15" font-weight="700" fill="#172033">H</text></g><g data-element="H"><circle cx="104" cy="96" r="17" fill="#f8fafc" stroke="#334155" stroke-width="2"/><text x="104" y="101" text-anchor="middle" font-family="Arial,sans-serif" font-size="15" font-weight="700" fill="#172033">H</text></g><g data-element="H"><circle cx="132" cy="44" r="17" fill="#f8fafc" stroke="#334155" stroke-width="2"/><text x="132" y="49" text-anchor="middle" font-family="Arial,sans-serif" font-size="15" font-weight="700" fill="#172033">H</text></g><text x="80" y="134" text-anchor="middle" font-family="Arial,sans-serif" font-size="19" font-weight="700" fill="#172033">CH₄</text><text x="80" y="153" text-anchor="middle" font-family="Arial,sans-serif" font-size="11" font-weight="700" fill="#172033">Tetrahedral</text></svg>
