<svg xmlns="http://www.w3.org/2000/svg" viewBox="0 0 960 520" role="img" aria-labelledby="title desc">
  <title id="title">Graph Creator illustration</title>
  <desc id="desc">A DrawSplat graph creator dialog with data fields and a bar chart preview.</desc>
  <rect width="960" height="520" rx="24" fill="#ffffff"/>
  <rect x="1" y="1" width="958" height="518" rx="24" fill="none" stroke="#d7ddea"/>
  <text x="24" y="42" font-family="Inter,Arial,sans-serif" font-size="24" font-weight="800">Graph Creator</text>
  <g font-family="Inter,Arial,sans-serif" font-size="13" fill="#667085">
    <text x="28" y="88">Type</text><text x="28" y="138">Title</text><text x="28" y="188">X Label</text><text x="28" y="238">Y Label</text><text x="28" y="288">Data</text>
  </g>
  <g fill="#fff" stroke="#d3d9e8">
    <rect x="110" y="64" width="230" height="40" rx="8"/>
    <rect x="110" y="114" width="230" height="40" rx="8"/>
    <rect x="110" y="164" width="230" height="40" rx="8"/>
    <rect x="110" y="214" width="230" height="40" rx="8"/>
    <rect x="24" y="306" width="316" height="148" rx="8"/>
  </g>
  <g font-family="Inter,Arial,sans-serif" font-size="16" fill="#111827">
    <text x="126" y="90">Bar</text>
    <text x="126" y="140">Favorite Lunches</text>
    <text x="126" y="190">Choice</text>
    <text x="126" y="240">Votes</text>
    <text x="40" y="335">Pizza,12</text>
    <text x="40" y="360">Tacos,8</text>
    <text x="40" y="385">Salad,5</text>
    <text x="40" y="410">Sandwich,7</text>
  </g>
  <rect x="380" y="64" width="548" height="390" rx="10" fill="#fff" stroke="#d3d9e8"/>
  <text x="654" y="102" text-anchor="middle" font-family="Inter,Arial,sans-serif" font-size="24" font-weight="800" fill="#111827">Favorite Lunches</text>
  <g stroke="#e6ebf3">
    <line x1="456" y1="134" x2="890" y2="134"/><line x1="456" y1="204" x2="890" y2="204"/><line x1="456" y1="274" x2="890" y2="274"/><line x1="456" y1="344" x2="890" y2="344"/>
  </g>
  <path d="M456 134v280h434" fill="none" stroke="#334155" stroke-width="2"/>
  <g font-family="Inter,Arial,sans-serif" font-size="12" fill="#344054">
    <text x="436" y="138">20</text><text x="438" y="208">15</text><text x="438" y="278">10</text><text x="446" y="348">5</text><text x="446" y="418">0</text>
  </g>
  <g>
    <rect x="486" y="246" width="82" height="168" rx="5" fill="#2f66e7"/>
    <rect x="620" y="302" width="82" height="112" rx="5" fill="#e5262d"/>
    <rect x="754" y="344" width="82" height="70" rx="5" fill="#16a34a"/>
    <rect x="850" y="316" width="62" height="98" rx="5" fill="#f59e0b"/>
  </g>
  <g font-family="Inter,Arial,sans-serif" font-size="12" fill="#111827">
    <text x="527" y="238" text-anchor="middle">12</text><text x="661" y="294" text-anchor="middle">8</text><text x="795" y="336" text-anchor="middle">5</text><text x="881" y="308" text-anchor="middle">7</text>
  </g>
</svg>
