<svg xmlns="http://www.w3.org/2000/svg" width="1024" height="768" viewBox="0 0 1024 768">
<defs>
<filter id="shadow" x="-20%" y="-20%" width="140%" height="140%"><feDropShadow dx="0" dy="6" stdDeviation="8" flood-color="#000" flood-opacity="0.28"/></filter>
</defs>
<rect width="100%" height="100%" fill="#4a2d1f"/>
<rect x="18" y="18" width="988" height="732" rx="18" fill="#6a4330" stroke="#25160f" stroke-width="6" filter="url(#shadow)"/>
<rect x="25.48" y="64.08" width="973.04" height="639.84" rx="28" fill="#6a4330" stroke="#25160f" stroke-width="5"/>
<rect x="36.00" y="74.60" width="952.00" height="618.80" rx="20" fill="#d39b5c"/>
<circle cx="835.85" cy="679.82" r="1.15" fill="#25160f" opacity="0.12"/>
<circle cx="147.55" cy="606.53" r="1.81" fill="#25160f" opacity="0.26"/>
<circle cx="465.16" cy="380.26" r="1.55" fill="#25160f" opacity="0.19"/>
<circle cx="554.13" cy="429.32" r="1.75" fill="#25160f" opacity="0.28"/>
<circle cx="871.80" cy="285.63" r="1.63" fill="#25160f" opacity="0.22"/>
<circle cx="278.38" cy="655.31" r="1.27" fill="#25160f" opacity="0.25"/>
<circle cx="648.74" cy="472.59" r="0.81" fill="#25160f" opacity="0.21"/>
<circle cx="681.68" cy="570.67" r="0.83" fill="#25160f" opacity="0.13"/>
<circle cx="58.98" cy="298.97" r="0.98" fill="#25160f" opacity="0.26"/>
<circle cx="584.76" cy="141.61" r="1.34" fill="#25160f" opacity="0.13"/>
<circle cx="919.48" cy="200.27" r="0.99" fill="#25160f" opacity="0.13"/>
<circle cx="846.88" cy="441.97" r="1.24" fill="#25160f" opacity="0.13"/>
<circle cx="282.06" cy="619.02" r="1.75" fill="#25160f" opacity="0.20"/>
<circle cx="864.92" cy="108.40" r="1.87" fill="#25160f" opacity="0.16"/>
<circle cx="386.66" cy="649.69" r="1.39" fill="#25160f" opacity="0.22"/>
<circle cx="140.23" cy="574.17" r="1.79" fill="#25160f" opacity="0.25"/>
<circle cx="105.32" cy="206.61" r="1.61" fill="#25160f" opacity="0.21"/>
<circle cx="524.36" cy="613.93" r="1.65" fill="#25160f" opacity="0.15"/>
<circle cx="641.36" cy="158.94" r="1.67" fill="#25160f" opacity="0.19"/>
<circle cx="297.23" cy="225.08" r="1.73" fill="#25160f" opacity="0.16"/>
<circle cx="221.32" cy="233.86" r="1.08" fill="#25160f" opacity="0.20"/>
<circle cx="822.39" cy="93.09" r="1.13" fill="#25160f" opacity="0.13"/>
<circle cx="161.28" cy="361.74" r="1.32" fill="#25160f" opacity="0.15"/>
<circle cx="246.50" cy="338.92" r="1.19" fill="#25160f" opacity="0.25"/>
<circle cx="64.37" cy="191.04" r="1.38" fill="#25160f" opacity="0.14"/>
<circle cx="797.88" cy="408.91" r="1.47" fill="#25160f" opacity="0.24"/>
<circle cx="493.59" cy="80.20" r="1.04" fill="#25160f" opacity="0.23"/>
<circle cx="525.43" cy="281.04" r="0.90" fill="#25160f" opacity="0.17"/>
<circle cx="780.17" cy="431.91" r="1.76" fill="#25160f" opacity="0.14"/>
<circle cx="457.95" cy="304.43" r="1.18" fill="#25160f" opacity="0.24"/>
<circle cx="324.40" cy="102.63" r="1.14" fill="#25160f" opacity="0.12"/>
<circle cx="579.37" cy="193.57" r="1.75" fill="#25160f" opacity="0.13"/>
<circle cx="147.14" cy="481.74" r="1.23" fill="#25160f" opacity="0.17"/>
<circle cx="474.23" cy="78.74" r="0.96" fill="#25160f" opacity="0.13"/>
<circle cx="67.55" cy="545.22" r="1.83" fill="#25160f" opacity="0.13"/>
<circle cx="291.84" cy="124.05" r="1.77" fill="#25160f" opacity="0.18"/>
<circle cx="94.93" cy="150.72" r="0.82" fill="#25160f" opacity="0.16"/>
<circle cx="259.39" cy="120.22" r="1.54" fill="#25160f" opacity="0.17"/>
<circle cx="884.25" cy="325.33" r="1.78" fill="#25160f" opacity="0.21"/>
<circle cx="218.04" cy="108.58" r="0.91" fill="#25160f" opacity="0.26"/>
<circle cx="710.04" cy="147.01" r="1.85" fill="#25160f" opacity="0.25"/>
<circle cx="313.19" cy="619.71" r="1.08" fill="#25160f" opacity="0.24"/>
<circle cx="946.45" cy="261.65" r="1.46" fill="#25160f" opacity="0.14"/>
<circle cx="523.20" cy="398.66" r="1.04" fill="#25160f" opacity="0.21"/>
<circle cx="271.18" cy="268.67" r="1.01" fill="#25160f" opacity="0.26"/>
<circle cx="315.43" cy="418.19" r="1.55" fill="#25160f" opacity="0.12"/>
<circle cx="101.78" cy="123.04" r="0.84" fill="#25160f" opacity="0.15"/>
<circle cx="752.98" cy="553.08" r="1.03" fill="#25160f" opacity="0.16"/>
<circle cx="410.96" cy="685.55" r="1.23" fill="#25160f" opacity="0.22"/>
<circle cx="816.65" cy="126.47" r="1.76" fill="#25160f" opacity="0.28"/>
<circle cx="375.49" cy="171.58" r="1.20" fill="#25160f" opacity="0.20"/>
<circle cx="658.70" cy="186.04" r="1.96" fill="#25160f" opacity="0.13"/>
<circle cx="730.60" cy="385.48" r="1.52" fill="#25160f" opacity="0.16"/>
<circle cx="461.00" cy="474.29" r="1.24" fill="#25160f" opacity="0.16"/>
<circle cx="393.26" cy="264.01" r="0.92" fill="#25160f" opacity="0.17"/>
<circle cx="789.84" cy="511.23" r="1.64" fill="#25160f" opacity="0.14"/>
<circle cx="725.73" cy="351.33" r="0.86" fill="#25160f" opacity="0.20"/>
<circle cx="608.20" cy="245.18" r="1.69" fill="#25160f" opacity="0.16"/>
<circle cx="522.64" cy="92.54" r="1.85" fill="#25160f" opacity="0.12"/>
<circle cx="534.42" cy="83.04" r="1.57" fill="#25160f" opacity="0.15"/>
<circle cx="453.37" cy="682.52" r="0.97" fill="#25160f" opacity="0.22"/>
<circle cx="124.24" cy="618.49" r="1.57" fill="#25160f" opacity="0.22"/>
<circle cx="496.69" cy="90.69" r="1.35" fill="#25160f" opacity="0.13"/>
<circle cx="361.38" cy="175.63" r="1.80" fill="#25160f" opacity="0.26"/>
<circle cx="772.91" cy="367.39" r="1.21" fill="#25160f" opacity="0.17"/>
<circle cx="563.40" cy="504.28" r="1.22" fill="#25160f" opacity="0.26"/>
<circle cx="699.44" cy="604.13" r="1.19" fill="#25160f" opacity="0.25"/>
<circle cx="152.34" cy="90.65" r="1.16" fill="#25160f" opacity="0.27"/>
<circle cx="353.69" cy="221.67" r="1.89" fill="#25160f" opacity="0.21"/>
<circle cx="258.60" cy="460.77" r="1.05" fill="#25160f" opacity="0.15"/>
<circle cx="66.94" cy="388.82" r="1.54" fill="#25160f" opacity="0.16"/>
<circle cx="711.28" cy="466.73" r="1.64" fill="#25160f" opacity="0.25"/>
<circle cx="602.02" cy="450.27" r="1.75" fill="#25160f" opacity="0.14"/>
<circle cx="871.08" cy="215.25" r="1.36" fill="#25160f" opacity="0.20"/>
<circle cx="762.52" cy="625.25" r="2.00" fill="#25160f" opacity="0.15"/>
<circle cx="391.62" cy="194.69" r="1.71" fill="#25160f" opacity="0.13"/>
<circle cx="254.97" cy="559.82" r="1.08" fill="#25160f" opacity="0.12"/>
<circle cx="250.13" cy="545.71" r="1.14" fill="#25160f" opacity="0.21"/>
<circle cx="114.22" cy="257.73" r="1.28" fill="#25160f" opacity="0.26"/>
<circle cx="782.49" cy="186.33" r="1.09" fill="#25160f" opacity="0.12"/>
<circle cx="709.33" cy="558.85" r="1.52" fill="#25160f" opacity="0.19"/>
<circle cx="129.49" cy="130.65" r="1.85" fill="#25160f" opacity="0.13"/>
<circle cx="796.15" cy="492.13" r="1.51" fill="#25160f" opacity="0.27"/>
<circle cx="216.80" cy="664.88" r="1.07" fill="#25160f" opacity="0.25"/>
<circle cx="532.39" cy="382.05" r="1.40" fill="#25160f" opacity="0.18"/>
<circle cx="470.35" cy="457.81" r="1.64" fill="#25160f" opacity="0.24"/>
<circle cx="937.01" cy="347.55" r="1.20" fill="#25160f" opacity="0.23"/>
<circle cx="51.45" cy="192.96" r="1.43" fill="#25160f" opacity="0.25"/>
<circle cx="311.24" cy="444.69" r="1.79" fill="#25160f" opacity="0.17"/>
<circle cx="479.10" cy="126.69" r="1.41" fill="#25160f" opacity="0.12"/>
<circle cx="40.80" cy="536.45" r="1.35" fill="#25160f" opacity="0.20"/>
<circle cx="874.29" cy="367.35" r="1.30" fill="#25160f" opacity="0.13"/>
<circle cx="361.41" cy="494.36" r="1.66" fill="#25160f" opacity="0.21"/>
<circle cx="250.81" cy="523.91" r="1.05" fill="#25160f" opacity="0.20"/>
<circle cx="399.84" cy="430.99" r="1.45" fill="#25160f" opacity="0.18"/>
<circle cx="792.44" cy="619.19" r="1.93" fill="#25160f" opacity="0.14"/>
<circle cx="941.01" cy="362.96" r="1.01" fill="#25160f" opacity="0.15"/>
<circle cx="442.55" cy="219.21" r="1.17" fill="#25160f" opacity="0.18"/>
<circle cx="747.50" cy="626.18" r="1.95" fill="#25160f" opacity="0.13"/>
<circle cx="535.63" cy="405.41" r="1.18" fill="#25160f" opacity="0.13"/>
<circle cx="545.84" cy="245.08" r="1.58" fill="#25160f" opacity="0.20"/>
<circle cx="400.57" cy="128.28" r="1.63" fill="#25160f" opacity="0.17"/>
<circle cx="832.22" cy="81.55" r="1.63" fill="#25160f" opacity="0.12"/>
<circle cx="371.73" cy="664.43" r="1.25" fill="#25160f" opacity="0.26"/>
<circle cx="191.84" cy="564.28" r="1.85" fill="#25160f" opacity="0.18"/>
<circle cx="177.98" cy="137.11" r="1.46" fill="#25160f" opacity="0.23"/>
<circle cx="60.99" cy="349.45" r="0.88" fill="#25160f" opacity="0.13"/>
<circle cx="404.00" cy="391.32" r="0.82" fill="#25160f" opacity="0.22"/>
<circle cx="376.04" cy="75.54" r="1.22" fill="#25160f" opacity="0.23"/>
<circle cx="812.30" cy="217.95" r="1.41" fill="#25160f" opacity="0.15"/>
<circle cx="354.75" cy="330.82" r="1.22" fill="#25160f" opacity="0.12"/>
<circle cx="648.46" cy="189.42" r="1.03" fill="#25160f" opacity="0.12"/>
<circle cx="427.08" cy="141.95" r="0.83" fill="#25160f" opacity="0.23"/>
<circle cx="145.18" cy="291.30" r="1.05" fill="#25160f" opacity="0.26"/>
<circle cx="70.41" cy="616.83" r="1.53" fill="#25160f" opacity="0.27"/>
<circle cx="121.25" cy="523.57" r="0.83" fill="#25160f" opacity="0.18"/>
<circle cx="67.16" cy="634.35" r="1.42" fill="#25160f" opacity="0.19"/>
<circle cx="40.23" cy="118.64" r="1.41" fill="#25160f" opacity="0.18"/>
<circle cx="565.58" cy="181.91" r="1.53" fill="#25160f" opacity="0.21"/>
<circle cx="898.83" cy="242.93" r="1.84" fill="#25160f" opacity="0.14"/>
<line x1="36.00" y1="74.60" x2="988.00" y2="74.60" stroke="#6a4330" stroke-width="16.18" stroke-linecap="round"/>
<line x1="36.00" y1="74.60" x2="988.00" y2="74.60" stroke="#25160f" stroke-width="2.8" stroke-linecap="round" opacity="0.75"/>
<line x1="83.60" y1="122.20" x2="131.20" y2="122.20" stroke="#6a4330" stroke-width="16.18" stroke-linecap="round"/>
<line x1="83.60" y1="122.20" x2="131.20" y2="122.20" stroke="#25160f" stroke-width="2.8" stroke-linecap="round" opacity="0.75"/>
<line x1="178.80" y1="122.20" x2="369.20" y2="122.20" stroke="#6a4330" stroke-width="16.18" stroke-linecap="round"/>
<line x1="178.80" y1="122.20" x2="369.20" y2="122.20" stroke="#25160f" stroke-width="2.8" stroke-linecap="round" opacity="0.75"/>
<line x1="464.40" y1="122.20" x2="512.00" y2="122.20" stroke="#6a4330" stroke-width="16.18" stroke-linecap="round"/>
<line x1="464.40" y1="122.20" x2="512.00" y2="122.20" stroke="#25160f" stroke-width="2.8" stroke-linecap="round" opacity="0.75"/>
<line x1="702.40" y1="122.20" x2="750.00" y2="122.20" stroke="#6a4330" stroke-width="16.18" stroke-linecap="round"/>
<line x1="702.40" y1="122.20" x2="750.00" y2="122.20" stroke="#25160f" stroke-width="2.8" stroke-linecap="round" opacity="0.75"/>
<line x1="845.20" y1="122.20" x2="892.80" y2="122.20" stroke="#6a4330" stroke-width="16.18" stroke-linecap="round"/>
<line x1="845.20" y1="122.20" x2="892.80" y2="122.20" stroke="#25160f" stroke-width="2.8" stroke-linecap="round" opacity="0.75"/>
<line x1="940.40" y1="122.20" x2="988.00" y2="122.20" stroke="#6a4330" stroke-width="16.18" stroke-linecap="round"/>
<line x1="940.40" y1="122.20" x2="988.00" y2="122.20" stroke="#25160f" stroke-width="2.8" stroke-linecap="round" opacity="0.75"/>
<line x1="131.20" y1="169.80" x2="178.80" y2="169.80" stroke="#6a4330" stroke-width="16.18" stroke-linecap="round"/>
<line x1="131.20" y1="169.80" x2="178.80" y2="169.80" stroke="#25160f" stroke-width="2.8" stroke-linecap="round" opacity="0.75"/>
<line x1="274.00" y1="169.80" x2="369.20" y2="169.80" stroke="#6a4330" stroke-width="16.18" stroke-linecap="round"/>
<line x1="274.00" y1="169.80" x2="369.20" y2="169.80" stroke="#25160f" stroke-width="2.8" stroke-linecap="round" opacity="0.75"/>
<line x1="416.80" y1="169.80" x2="512.00" y2="169.80" stroke="#6a4330" stroke-width="16.18" stroke-linecap="round"/>
<line x1="416.80" y1="169.80" x2="512.00" y2="169.80" stroke="#25160f" stroke-width="2.8" stroke-linecap="round" opacity="0.75"/>
<line x1="797.60" y1="169.80" x2="940.40" y2="169.80" stroke="#6a4330" stroke-width="16.18" stroke-linecap="round"/>
<line x1="797.60" y1="169.80" x2="940.40" y2="169.80" stroke="#25160f" stroke-width="2.8" stroke-linecap="round" opacity="0.75"/>
<line x1="36.00" y1="217.40" x2="83.60" y2="217.40" stroke="#6a4330" stroke-width="16.18" stroke-linecap="round"/>
<line x1="36.00" y1="217.40" x2="83.60" y2="217.40" stroke="#25160f" stroke-width="2.8" stroke-linecap="round" opacity="0.75"/>
<line x1="226.40" y1="217.40" x2="321.60" y2="217.40" stroke="#6a4330" stroke-width="16.18" stroke-linecap="round"/>
<line x1="226.40" y1="217.40" x2="321.60" y2="217.40" stroke="#25160f" stroke-width="2.8" stroke-linecap="round" opacity="0.75"/>
<line x1="369.20" y1="217.40" x2="464.40" y2="217.40" stroke="#6a4330" stroke-width="16.18" stroke-linecap="round"/>
<line x1="369.20" y1="217.40" x2="464.40" y2="217.40" stroke="#25160f" stroke-width="2.8" stroke-linecap="round" opacity="0.75"/>
<line x1="607.20" y1="217.40" x2="702.40" y2="217.40" stroke="#6a4330" stroke-width="16.18" stroke-linecap="round"/>
<line x1="607.20" y1="217.40" x2="702.40" y2="217.40" stroke="#25160f" stroke-width="2.8" stroke-linecap="round" opacity="0.75"/>
<line x1="750.00" y1="217.40" x2="892.80" y2="217.40" stroke="#6a4330" stroke-width="16.18" stroke-linecap="round"/>
<line x1="750.00" y1="217.40" x2="892.80" y2="217.40" stroke="#25160f" stroke-width="2.8" stroke-linecap="round" opacity="0.75"/>
<line x1="83.60" y1="265.00" x2="131.20" y2="265.00" stroke="#6a4330" stroke-width="16.18" stroke-linecap="round"/>
<line x1="83.60" y1="265.00" x2="131.20" y2="265.00" stroke="#25160f" stroke-width="2.8" stroke-linecap="round" opacity="0.75"/>
<line x1="178.80" y1="265.00" x2="274.00" y2="265.00" stroke="#6a4330" stroke-width="16.18" stroke-linecap="round"/>
<line x1="178.80" y1="265.00" x2="274.00" y2="265.00" stroke="#25160f" stroke-width="2.8" stroke-linecap="round" opacity="0.75"/>
<line x1="321.60" y1="265.00" x2="512.00" y2="265.00" stroke="#6a4330" stroke-width="16.18" stroke-linecap="round"/>
<line x1="321.60" y1="265.00" x2="512.00" y2="265.00" stroke="#25160f" stroke-width="2.8" stroke-linecap="round" opacity="0.75"/>
<line x1="559.60" y1="265.00" x2="607.20" y2="265.00" stroke="#6a4330" stroke-width="16.18" stroke-linecap="round"/>
<line x1="559.60" y1="265.00" x2="607.20" y2="265.00" stroke="#25160f" stroke-width="2.8" stroke-linecap="round" opacity="0.75"/>
<line x1="654.80" y1="265.00" x2="702.40" y2="265.00" stroke="#6a4330" stroke-width="16.18" stroke-linecap="round"/>
<line x1="654.80" y1="265.00" x2="702.40" y2="265.00" stroke="#25160f" stroke-width="2.8" stroke-linecap="round" opacity="0.75"/>
<line x1="845.20" y1="265.00" x2="940.40" y2="265.00" stroke="#6a4330" stroke-width="16.18" stroke-linecap="round"/>
<line x1="845.20" y1="265.00" x2="940.40" y2="265.00" stroke="#25160f" stroke-width="2.8" stroke-linecap="round" opacity="0.75"/>
<line x1="226.40" y1="312.60" x2="321.60" y2="312.60" stroke="#6a4330" stroke-width="16.18" stroke-linecap="round"/>
<line x1="226.40" y1="312.60" x2="321.60" y2="312.60" stroke="#25160f" stroke-width="2.8" stroke-linecap="round" opacity="0.75"/>
<line x1="369.20" y1="312.60" x2="654.80" y2="312.60" stroke="#6a4330" stroke-width="16.18" stroke-linecap="round"/>
<line x1="369.20" y1="312.60" x2="654.80" y2="312.60" stroke="#25160f" stroke-width="2.8" stroke-linecap="round" opacity="0.75"/>
<line x1="702.40" y1="312.60" x2="750.00" y2="312.60" stroke="#6a4330" stroke-width="16.18" stroke-linecap="round"/>
<line x1="702.40" y1="312.60" x2="750.00" y2="312.60" stroke="#25160f" stroke-width="2.8" stroke-linecap="round" opacity="0.75"/>
<line x1="797.60" y1="312.60" x2="845.20" y2="312.60" stroke="#6a4330" stroke-width="16.18" stroke-linecap="round"/>
<line x1="797.60" y1="312.60" x2="845.20" y2="312.60" stroke="#25160f" stroke-width="2.8" stroke-linecap="round" opacity="0.75"/>
<line x1="940.40" y1="312.60" x2="988.00" y2="312.60" stroke="#6a4330" stroke-width="16.18" stroke-linecap="round"/>
<line x1="940.40" y1="312.60" x2="988.00" y2="312.60" stroke="#25160f" stroke-width="2.8" stroke-linecap="round" opacity="0.75"/>
<line x1="131.20" y1="360.20" x2="178.80" y2="360.20" stroke="#6a4330" stroke-width="16.18" stroke-linecap="round"/>
<line x1="131.20" y1="360.20" x2="178.80" y2="360.20" stroke="#25160f" stroke-width="2.8" stroke-linecap="round" opacity="0.75"/>
<line x1="464.40" y1="360.20" x2="607.20" y2="360.20" stroke="#6a4330" stroke-width="16.18" stroke-linecap="round"/>
<line x1="464.40" y1="360.20" x2="607.20" y2="360.20" stroke="#25160f" stroke-width="2.8" stroke-linecap="round" opacity="0.75"/>
<line x1="750.00" y1="360.20" x2="797.60" y2="360.20" stroke="#6a4330" stroke-width="16.18" stroke-linecap="round"/>
<line x1="750.00" y1="360.20" x2="797.60" y2="360.20" stroke="#25160f" stroke-width="2.8" stroke-linecap="round" opacity="0.75"/>
<line x1="892.80" y1="360.20" x2="940.40" y2="360.20" stroke="#6a4330" stroke-width="16.18" stroke-linecap="round"/>
<line x1="892.80" y1="360.20" x2="940.40" y2="360.20" stroke="#25160f" stroke-width="2.8" stroke-linecap="round" opacity="0.75"/>
<line x1="83.60" y1="407.80" x2="131.20" y2="407.80" stroke="#6a4330" stroke-width="16.18" stroke-linecap="round"/>
<line x1="83.60" y1="407.80" x2="131.20" y2="407.80" stroke="#25160f" stroke-width="2.8" stroke-linecap="round" opacity="0.75"/>
<line x1="178.80" y1="407.80" x2="226.40" y2="407.80" stroke="#6a4330" stroke-width="16.18" stroke-linecap="round"/>
<line x1="178.80" y1="407.80" x2="226.40" y2="407.80" stroke="#25160f" stroke-width="2.8" stroke-linecap="round" opacity="0.75"/>
<line x1="274.00" y1="407.80" x2="416.80" y2="407.80" stroke="#6a4330" stroke-width="16.18" stroke-linecap="round"/>
<line x1="274.00" y1="407.80" x2="416.80" y2="407.80" stroke="#25160f" stroke-width="2.8" stroke-linecap="round" opacity="0.75"/>
<line x1="559.60" y1="407.80" x2="797.60" y2="407.80" stroke="#6a4330" stroke-width="16.18" stroke-linecap="round"/>
<line x1="559.60" y1="407.80" x2="797.60" y2="407.80" stroke="#25160f" stroke-width="2.8" stroke-linecap="round" opacity="0.75"/>
<line x1="845.20" y1="407.80" x2="892.80" y2="407.80" stroke="#6a4330" stroke-width="16.18" stroke-linecap="round"/>
<line x1="845.20" y1="407.80" x2="892.80" y2="407.80" stroke="#25160f" stroke-width="2.8" stroke-linecap="round" opacity="0.75"/>
<line x1="36.00" y1="455.40" x2="83.60" y2="455.40" stroke="#6a4330" stroke-width="16.18" stroke-linecap="round"/>
<line x1="36.00" y1="455.40" x2="83.60" y2="455.40" stroke="#25160f" stroke-width="2.8" stroke-linecap="round" opacity="0.75"/>
<line x1="226.40" y1="455.40" x2="274.00" y2="455.40" stroke="#6a4330" stroke-width="16.18" stroke-linecap="round"/>
<line x1="226.40" y1="455.40" x2="274.00" y2="455.40" stroke="#25160f" stroke-width="2.8" stroke-linecap="round" opacity="0.75"/>
<line x1="321.60" y1="455.40" x2="369.20" y2="455.40" stroke="#6a4330" stroke-width="16.18" stroke-linecap="round"/>
<line x1="321.60" y1="455.40" x2="369.20" y2="455.40" stroke="#25160f" stroke-width="2.8" stroke-linecap="round" opacity="0.75"/>
<line x1="416.80" y1="455.40" x2="464.40" y2="455.40" stroke="#6a4330" stroke-width="16.18" stroke-linecap="round"/>
<line x1="416.80" y1="455.40" x2="464.40" y2="455.40" stroke="#25160f" stroke-width="2.8" stroke-linecap="round" opacity="0.75"/>
<line x1="512.00" y1="455.40" x2="654.80" y2="455.40" stroke="#6a4330" stroke-width="16.18" stroke-linecap="round"/>
<line x1="512.00" y1="455.40" x2="654.80" y2="455.40" stroke="#25160f" stroke-width="2.8" stroke-linecap="round" opacity="0.75"/>
<line x1="750.00" y1="455.40" x2="845.20" y2="455.40" stroke="#6a4330" stroke-width="16.18" stroke-linecap="round"/>
<line x1="750.00" y1="455.40" x2="845.20" y2="455.40" stroke="#25160f" stroke-width="2.8" stroke-linecap="round" opacity="0.75"/>
<line x1="940.40" y1="455.40" x2="988.00" y2="455.40" stroke="#6a4330" stroke-width="16.18" stroke-linecap="round"/>
<line x1="940.40" y1="455.40" x2="988.00" y2="455.40" stroke="#25160f" stroke-width="2.8" stroke-linecap="round" opacity="0.75"/>
<line x1="178.80" y1="503.00" x2="226.40" y2="503.00" stroke="#6a4330" stroke-width="16.18" stroke-linecap="round"/>
<line x1="178.80" y1="503.00" x2="226.40" y2="503.00" stroke="#25160f" stroke-width="2.8" stroke-linecap="round" opacity="0.75"/>
<line x1="274.00" y1="503.00" x2="321.60" y2="503.00" stroke="#6a4330" stroke-width="16.18" stroke-linecap="round"/>
<line x1="274.00" y1="503.00" x2="321.60" y2="503.00" stroke="#25160f" stroke-width="2.8" stroke-linecap="round" opacity="0.75"/>
<line x1="369.20" y1="503.00" x2="512.00" y2="503.00" stroke="#6a4330" stroke-width="16.18" stroke-linecap="round"/>
<line x1="369.20" y1="503.00" x2="512.00" y2="503.00" stroke="#25160f" stroke-width="2.8" stroke-linecap="round" opacity="0.75"/>
<line x1="654.80" y1="503.00" x2="702.40" y2="503.00" stroke="#6a4330" stroke-width="16.18" stroke-linecap="round"/>
<line x1="654.80" y1="503.00" x2="702.40" y2="503.00" stroke="#25160f" stroke-width="2.8" stroke-linecap="round" opacity="0.75"/>
<line x1="797.60" y1="503.00" x2="940.40" y2="503.00" stroke="#6a4330" stroke-width="16.18" stroke-linecap="round"/>
<line x1="797.60" y1="503.00" x2="940.40" y2="503.00" stroke="#25160f" stroke-width="2.8" stroke-linecap="round" opacity="0.75"/>
<line x1="131.20" y1="550.60" x2="178.80" y2="550.60" stroke="#6a4330" stroke-width="16.18" stroke-linecap="round"/>
<line x1="131.20" y1="550.60" x2="178.80" y2="550.60" stroke="#25160f" stroke-width="2.8" stroke-linecap="round" opacity="0.75"/>
<line x1="226.40" y1="550.60" x2="274.00" y2="550.60" stroke="#6a4330" stroke-width="16.18" stroke-linecap="round"/>
<line x1="226.40" y1="550.60" x2="274.00" y2="550.60" stroke="#25160f" stroke-width="2.8" stroke-linecap="round" opacity="0.75"/>
<line x1="464.40" y1="550.60" x2="559.60" y2="550.60" stroke="#6a4330" stroke-width="16.18" stroke-linecap="round"/>
<line x1="464.40" y1="550.60" x2="559.60" y2="550.60" stroke="#25160f" stroke-width="2.8" stroke-linecap="round" opacity="0.75"/>
<line x1="654.80" y1="550.60" x2="750.00" y2="550.60" stroke="#6a4330" stroke-width="16.18" stroke-linecap="round"/>
<line x1="654.80" y1="550.60" x2="750.00" y2="550.60" stroke="#25160f" stroke-width="2.8" stroke-linecap="round" opacity="0.75"/>
<line x1="797.60" y1="550.60" x2="892.80" y2="550.60" stroke="#6a4330" stroke-width="16.18" stroke-linecap="round"/>
<line x1="797.60" y1="550.60" x2="892.80" y2="550.60" stroke="#25160f" stroke-width="2.8" stroke-linecap="round" opacity="0.75"/>
<line x1="83.60" y1="598.20" x2="131.20" y2="598.20" stroke="#6a4330" stroke-width="16.18" stroke-linecap="round"/>
<line x1="83.60" y1="598.20" x2="131.20" y2="598.20" stroke="#25160f" stroke-width="2.8" stroke-linecap="round" opacity="0.75"/>
<line x1="178.80" y1="598.20" x2="226.40" y2="598.20" stroke="#6a4330" stroke-width="16.18" stroke-linecap="round"/>
<line x1="178.80" y1="598.20" x2="226.40" y2="598.20" stroke="#25160f" stroke-width="2.8" stroke-linecap="round" opacity="0.75"/>
<line x1="369.20" y1="598.20" x2="416.80" y2="598.20" stroke="#6a4330" stroke-width="16.18" stroke-linecap="round"/>
<line x1="369.20" y1="598.20" x2="416.80" y2="598.20" stroke="#25160f" stroke-width="2.8" stroke-linecap="round" opacity="0.75"/>
<line x1="512.00" y1="598.20" x2="559.60" y2="598.20" stroke="#6a4330" stroke-width="16.18" stroke-linecap="round"/>
<line x1="512.00" y1="598.20" x2="559.60" y2="598.20" stroke="#25160f" stroke-width="2.8" stroke-linecap="round" opacity="0.75"/>
<line x1="797.60" y1="598.20" x2="845.20" y2="598.20" stroke="#6a4330" stroke-width="16.18" stroke-linecap="round"/>
<line x1="797.60" y1="598.20" x2="845.20" y2="598.20" stroke="#25160f" stroke-width="2.8" stroke-linecap="round" opacity="0.75"/>
<line x1="892.80" y1="598.20" x2="988.00" y2="598.20" stroke="#6a4330" stroke-width="16.18" stroke-linecap="round"/>
<line x1="892.80" y1="598.20" x2="988.00" y2="598.20" stroke="#25160f" stroke-width="2.8" stroke-linecap="round" opacity="0.75"/>
<line x1="36.00" y1="693.40" x2="988.00" y2="693.40" stroke="#6a4330" stroke-width="16.18" stroke-linecap="round"/>
<line x1="36.00" y1="693.40" x2="988.00" y2="693.40" stroke="#25160f" stroke-width="2.8" stroke-linecap="round" opacity="0.75"/>
<line x1="131.20" y1="645.80" x2="178.80" y2="645.80" stroke="#6a4330" stroke-width="16.18" stroke-linecap="round"/>
<line x1="131.20" y1="645.80" x2="178.80" y2="645.80" stroke="#25160f" stroke-width="2.8" stroke-linecap="round" opacity="0.75"/>
<line x1="274.00" y1="645.80" x2="369.20" y2="645.80" stroke="#6a4330" stroke-width="16.18" stroke-linecap="round"/>
<line x1="274.00" y1="645.80" x2="369.20" y2="645.80" stroke="#25160f" stroke-width="2.8" stroke-linecap="round" opacity="0.75"/>
<line x1="416.80" y1="645.80" x2="512.00" y2="645.80" stroke="#6a4330" stroke-width="16.18" stroke-linecap="round"/>
<line x1="416.80" y1="645.80" x2="512.00" y2="645.80" stroke="#25160f" stroke-width="2.8" stroke-linecap="round" opacity="0.75"/>
<line x1="654.80" y1="645.80" x2="702.40" y2="645.80" stroke="#6a4330" stroke-width="16.18" stroke-linecap="round"/>
<line x1="654.80" y1="645.80" x2="702.40" y2="645.80" stroke="#25160f" stroke-width="2.8" stroke-linecap="round" opacity="0.75"/>
<line x1="750.00" y1="645.80" x2="797.60" y2="645.80" stroke="#6a4330" stroke-width="16.18" stroke-linecap="round"/>
<line x1="750.00" y1="645.80" x2="797.60" y2="645.80" stroke="#25160f" stroke-width="2.8" stroke-linecap="round" opacity="0.75"/>
<line x1="845.20" y1="645.80" x2="892.80" y2="645.80" stroke="#6a4330" stroke-width="16.18" stroke-linecap="round"/>
<line x1="845.20" y1="645.80" x2="892.80" y2="645.80" stroke="#25160f" stroke-width="2.8" stroke-linecap="round" opacity="0.75"/>
<line x1="36.00" y1="74.60" x2="36.00" y2="693.40" stroke="#6a4330" stroke-width="16.18" stroke-linecap="round"/>
<line x1="36.00" y1="74.60" x2="36.00" y2="693.40" stroke="#25160f" stroke-width="2.8" stroke-linecap="round" opacity="0.75"/>
<line x1="512.00" y1="74.60" x2="512.00" y2="122.20" stroke="#6a4330" stroke-width="16.18" stroke-linecap="round"/>
<line x1="512.00" y1="74.60" x2="512.00" y2="122.20" stroke="#25160f" stroke-width="2.8" stroke-linecap="round" opacity="0.75"/>
<line x1="512.00" y1="169.80" x2="512.00" y2="265.00" stroke="#6a4330" stroke-width="16.18" stroke-linecap="round"/>
<line x1="512.00" y1="169.80" x2="512.00" y2="265.00" stroke="#25160f" stroke-width="2.8" stroke-linecap="round" opacity="0.75"/>
<line x1="512.00" y1="407.80" x2="512.00" y2="503.00" stroke="#6a4330" stroke-width="16.18" stroke-linecap="round"/>
<line x1="512.00" y1="407.80" x2="512.00" y2="503.00" stroke="#25160f" stroke-width="2.8" stroke-linecap="round" opacity="0.75"/>
<line x1="654.80" y1="74.60" x2="654.80" y2="169.80" stroke="#6a4330" stroke-width="16.18" stroke-linecap="round"/>
<line x1="654.80" y1="74.60" x2="654.80" y2="169.80" stroke="#25160f" stroke-width="2.8" stroke-linecap="round" opacity="0.75"/>
<line x1="654.80" y1="312.60" x2="654.80" y2="360.20" stroke="#6a4330" stroke-width="16.18" stroke-linecap="round"/>
<line x1="654.80" y1="312.60" x2="654.80" y2="360.20" stroke="#25160f" stroke-width="2.8" stroke-linecap="round" opacity="0.75"/>
<line x1="654.80" y1="503.00" x2="654.80" y2="550.60" stroke="#6a4330" stroke-width="16.18" stroke-linecap="round"/>
<line x1="654.80" y1="503.00" x2="654.80" y2="550.60" stroke="#25160f" stroke-width="2.8" stroke-linecap="round" opacity="0.75"/>
<line x1="797.60" y1="74.60" x2="797.60" y2="169.80" stroke="#6a4330" stroke-width="16.18" stroke-linecap="round"/>
<line x1="797.60" y1="74.60" x2="797.60" y2="169.80" stroke="#25160f" stroke-width="2.8" stroke-linecap="round" opacity="0.75"/>
<line x1="797.60" y1="265.00" x2="797.60" y2="360.20" stroke="#6a4330" stroke-width="16.18" stroke-linecap="round"/>
<line x1="797.60" y1="265.00" x2="797.60" y2="360.20" stroke="#25160f" stroke-width="2.8" stroke-linecap="round" opacity="0.75"/>
<line x1="797.60" y1="407.80" x2="797.60" y2="455.40" stroke="#6a4330" stroke-width="16.18" stroke-linecap="round"/>
<line x1="797.60" y1="407.80" x2="797.60" y2="455.40" stroke="#25160f" stroke-width="2.8" stroke-linecap="round" opacity="0.75"/>
<line x1="797.60" y1="503.00" x2="797.60" y2="598.20" stroke="#6a4330" stroke-width="16.18" stroke-linecap="round"/>
<line x1="797.60" y1="503.00" x2="797.60" y2="598.20" stroke="#25160f" stroke-width="2.8" stroke-linecap="round" opacity="0.75"/>
<line x1="988.00" y1="74.60" x2="988.00" y2="693.40" stroke="#6a4330" stroke-width="16.18" stroke-linecap="round"/>
<line x1="988.00" y1="74.60" x2="988.00" y2="693.40" stroke="#25160f" stroke-width="2.8" stroke-linecap="round" opacity="0.75"/>
<line x1="83.60" y1="122.20" x2="83.60" y2="217.40" stroke="#6a4330" stroke-width="16.18" stroke-linecap="round"/>
<line x1="83.60" y1="122.20" x2="83.60" y2="217.40" stroke="#25160f" stroke-width="2.8" stroke-linecap="round" opacity="0.75"/>
<line x1="83.60" y1="312.60" x2="83.60" y2="407.80" stroke="#6a4330" stroke-width="16.18" stroke-linecap="round"/>
<line x1="83.60" y1="312.60" x2="83.60" y2="407.80" stroke="#25160f" stroke-width="2.8" stroke-linecap="round" opacity="0.75"/>
<line x1="83.60" y1="455.40" x2="83.60" y2="550.60" stroke="#6a4330" stroke-width="16.18" stroke-linecap="round"/>
<line x1="83.60" y1="455.40" x2="83.60" y2="550.60" stroke="#25160f" stroke-width="2.8" stroke-linecap="round" opacity="0.75"/>
<line x1="83.60" y1="598.20" x2="83.60" y2="645.80" stroke="#6a4330" stroke-width="16.18" stroke-linecap="round"/>
<line x1="83.60" y1="598.20" x2="83.60" y2="645.80" stroke="#25160f" stroke-width="2.8" stroke-linecap="round" opacity="0.75"/>
<line x1="178.80" y1="122.20" x2="178.80" y2="265.00" stroke="#6a4330" stroke-width="16.18" stroke-linecap="round"/>
<line x1="178.80" y1="122.20" x2="178.80" y2="265.00" stroke="#25160f" stroke-width="2.8" stroke-linecap="round" opacity="0.75"/>
<line x1="178.80" y1="312.60" x2="178.80" y2="503.00" stroke="#6a4330" stroke-width="16.18" stroke-linecap="round"/>
<line x1="178.80" y1="312.60" x2="178.80" y2="503.00" stroke="#25160f" stroke-width="2.8" stroke-linecap="round" opacity="0.75"/>
<line x1="178.80" y1="550.60" x2="178.80" y2="598.20" stroke="#6a4330" stroke-width="16.18" stroke-linecap="round"/>
<line x1="178.80" y1="550.60" x2="178.80" y2="598.20" stroke="#25160f" stroke-width="2.8" stroke-linecap="round" opacity="0.75"/>
<line x1="369.20" y1="122.20" x2="369.20" y2="217.40" stroke="#6a4330" stroke-width="16.18" stroke-linecap="round"/>
<line x1="369.20" y1="122.20" x2="369.20" y2="217.40" stroke="#25160f" stroke-width="2.8" stroke-linecap="round" opacity="0.75"/>
<line x1="369.20" y1="265.00" x2="369.20" y2="360.20" stroke="#6a4330" stroke-width="16.18" stroke-linecap="round"/>
<line x1="369.20" y1="265.00" x2="369.20" y2="360.20" stroke="#25160f" stroke-width="2.8" stroke-linecap="round" opacity="0.75"/>
<line x1="369.20" y1="503.00" x2="369.20" y2="550.60" stroke="#6a4330" stroke-width="16.18" stroke-linecap="round"/>
<line x1="369.20" y1="503.00" x2="369.20" y2="550.60" stroke="#25160f" stroke-width="2.8" stroke-linecap="round" opacity="0.75"/>
<line x1="416.80" y1="122.20" x2="416.80" y2="169.80" stroke="#6a4330" stroke-width="16.18" stroke-linecap="round"/>
<line x1="416.80" y1="122.20" x2="416.80" y2="169.80" stroke="#25160f" stroke-width="2.8" stroke-linecap="round" opacity="0.75"/>
<line x1="416.80" y1="360.20" x2="416.80" y2="407.80" stroke="#6a4330" stroke-width="16.18" stroke-linecap="round"/>
<line x1="416.80" y1="360.20" x2="416.80" y2="407.80" stroke="#25160f" stroke-width="2.8" stroke-linecap="round" opacity="0.75"/>
<line x1="416.80" y1="503.00" x2="416.80" y2="550.60" stroke="#6a4330" stroke-width="16.18" stroke-linecap="round"/>
<line x1="416.80" y1="503.00" x2="416.80" y2="550.60" stroke="#25160f" stroke-width="2.8" stroke-linecap="round" opacity="0.75"/>
<line x1="416.80" y1="598.20" x2="416.80" y2="645.80" stroke="#6a4330" stroke-width="16.18" stroke-linecap="round"/>
<line x1="416.80" y1="598.20" x2="416.80" y2="645.80" stroke="#25160f" stroke-width="2.8" stroke-linecap="round" opacity="0.75"/>
<line x1="559.60" y1="122.20" x2="559.60" y2="265.00" stroke="#6a4330" stroke-width="16.18" stroke-linecap="round"/>
<line x1="559.60" y1="122.20" x2="559.60" y2="265.00" stroke="#25160f" stroke-width="2.8" stroke-linecap="round" opacity="0.75"/>
<line x1="559.60" y1="360.20" x2="559.60" y2="407.80" stroke="#6a4330" stroke-width="16.18" stroke-linecap="round"/>
<line x1="559.60" y1="360.20" x2="559.60" y2="407.80" stroke="#25160f" stroke-width="2.8" stroke-linecap="round" opacity="0.75"/>
<line x1="559.60" y1="503.00" x2="559.60" y2="550.60" stroke="#6a4330" stroke-width="16.18" stroke-linecap="round"/>
<line x1="559.60" y1="503.00" x2="559.60" y2="550.60" stroke="#25160f" stroke-width="2.8" stroke-linecap="round" opacity="0.75"/>
<line x1="559.60" y1="598.20" x2="559.60" y2="693.40" stroke="#6a4330" stroke-width="16.18" stroke-linecap="round"/>
<line x1="559.60" y1="598.20" x2="559.60" y2="693.40" stroke="#25160f" stroke-width="2.8" stroke-linecap="round" opacity="0.75"/>
<line x1="607.20" y1="122.20" x2="607.20" y2="217.40" stroke="#6a4330" stroke-width="16.18" stroke-linecap="round"/>
<line x1="607.20" y1="122.20" x2="607.20" y2="217.40" stroke="#25160f" stroke-width="2.8" stroke-linecap="round" opacity="0.75"/>
<line x1="607.20" y1="265.00" x2="607.20" y2="312.60" stroke="#6a4330" stroke-width="16.18" stroke-linecap="round"/>
<line x1="607.20" y1="265.00" x2="607.20" y2="312.60" stroke="#25160f" stroke-width="2.8" stroke-linecap="round" opacity="0.75"/>
<line x1="607.20" y1="455.40" x2="607.20" y2="693.40" stroke="#6a4330" stroke-width="16.18" stroke-linecap="round"/>
<line x1="607.20" y1="455.40" x2="607.20" y2="693.40" stroke="#25160f" stroke-width="2.8" stroke-linecap="round" opacity="0.75"/>
<line x1="702.40" y1="122.20" x2="702.40" y2="217.40" stroke="#6a4330" stroke-width="16.18" stroke-linecap="round"/>
<line x1="702.40" y1="122.20" x2="702.40" y2="217.40" stroke="#25160f" stroke-width="2.8" stroke-linecap="round" opacity="0.75"/>
<line x1="702.40" y1="265.00" x2="702.40" y2="407.80" stroke="#6a4330" stroke-width="16.18" stroke-linecap="round"/>
<line x1="702.40" y1="265.00" x2="702.40" y2="407.80" stroke="#25160f" stroke-width="2.8" stroke-linecap="round" opacity="0.75"/>
<line x1="702.40" y1="455.40" x2="702.40" y2="503.00" stroke="#6a4330" stroke-width="16.18" stroke-linecap="round"/>
<line x1="702.40" y1="455.40" x2="702.40" y2="503.00" stroke="#25160f" stroke-width="2.8" stroke-linecap="round" opacity="0.75"/>
<line x1="702.40" y1="598.20" x2="702.40" y2="645.80" stroke="#6a4330" stroke-width="16.18" stroke-linecap="round"/>
<line x1="702.40" y1="598.20" x2="702.40" y2="645.80" stroke="#25160f" stroke-width="2.8" stroke-linecap="round" opacity="0.75"/>
<line x1="750.00" y1="122.20" x2="750.00" y2="169.80" stroke="#6a4330" stroke-width="16.18" stroke-linecap="round"/>
<line x1="750.00" y1="122.20" x2="750.00" y2="169.80" stroke="#25160f" stroke-width="2.8" stroke-linecap="round" opacity="0.75"/>
<line x1="750.00" y1="217.40" x2="750.00" y2="312.60" stroke="#6a4330" stroke-width="16.18" stroke-linecap="round"/>
<line x1="750.00" y1="217.40" x2="750.00" y2="312.60" stroke="#25160f" stroke-width="2.8" stroke-linecap="round" opacity="0.75"/>
<line x1="750.00" y1="455.40" x2="750.00" y2="550.60" stroke="#6a4330" stroke-width="16.18" stroke-linecap="round"/>
<line x1="750.00" y1="455.40" x2="750.00" y2="550.60" stroke="#25160f" stroke-width="2.8" stroke-linecap="round" opacity="0.75"/>
<line x1="750.00" y1="598.20" x2="750.00" y2="645.80" stroke="#6a4330" stroke-width="16.18" stroke-linecap="round"/>
<line x1="750.00" y1="598.20" x2="750.00" y2="645.80" stroke="#25160f" stroke-width="2.8" stroke-linecap="round" opacity="0.75"/>
<line x1="892.80" y1="122.20" x2="892.80" y2="169.80" stroke="#6a4330" stroke-width="16.18" stroke-linecap="round"/>
<line x1="892.80" y1="122.20" x2="892.80" y2="169.80" stroke="#25160f" stroke-width="2.8" stroke-linecap="round" opacity="0.75"/>
<line x1="892.80" y1="265.00" x2="892.80" y2="360.20" stroke="#6a4330" stroke-width="16.18" stroke-linecap="round"/>
<line x1="892.80" y1="265.00" x2="892.80" y2="360.20" stroke="#25160f" stroke-width="2.8" stroke-linecap="round" opacity="0.75"/>
<line x1="892.80" y1="407.80" x2="892.80" y2="503.00" stroke="#6a4330" stroke-width="16.18" stroke-linecap="round"/>
<line x1="892.80" y1="407.80" x2="892.80" y2="503.00" stroke="#25160f" stroke-width="2.8" stroke-linecap="round" opacity="0.75"/>
<line x1="892.80" y1="550.60" x2="892.80" y2="598.20" stroke="#6a4330" stroke-width="16.18" stroke-linecap="round"/>
<line x1="892.80" y1="550.60" x2="892.80" y2="598.20" stroke="#25160f" stroke-width="2.8" stroke-linecap="round" opacity="0.75"/>
<line x1="131.20" y1="169.80" x2="131.20" y2="360.20" stroke="#6a4330" stroke-width="16.18" stroke-linecap="round"/>
<line x1="131.20" y1="169.80" x2="131.20" y2="360.20" stroke="#25160f" stroke-width="2.8" stroke-linecap="round" opacity="0.75"/>
<line x1="131.20" y1="407.80" x2="131.20" y2="598.20" stroke="#6a4330" stroke-width="16.18" stroke-linecap="round"/>
<line x1="131.20" y1="407.80" x2="131.20" y2="598.20" stroke="#25160f" stroke-width="2.8" stroke-linecap="round" opacity="0.75"/>
<line x1="131.20" y1="645.80" x2="131.20" y2="693.40" stroke="#6a4330" stroke-width="16.18" stroke-linecap="round"/>
<line x1="131.20" y1="645.80" x2="131.20" y2="693.40" stroke="#25160f" stroke-width="2.8" stroke-linecap="round" opacity="0.75"/>
<line x1="226.40" y1="169.80" x2="226.40" y2="217.40" stroke="#6a4330" stroke-width="16.18" stroke-linecap="round"/>
<line x1="226.40" y1="169.80" x2="226.40" y2="217.40" stroke="#25160f" stroke-width="2.8" stroke-linecap="round" opacity="0.75"/>
<line x1="226.40" y1="360.20" x2="226.40" y2="407.80" stroke="#6a4330" stroke-width="16.18" stroke-linecap="round"/>
<line x1="226.40" y1="360.20" x2="226.40" y2="407.80" stroke="#25160f" stroke-width="2.8" stroke-linecap="round" opacity="0.75"/>
<line x1="226.40" y1="503.00" x2="226.40" y2="550.60" stroke="#6a4330" stroke-width="16.18" stroke-linecap="round"/>
<line x1="226.40" y1="503.00" x2="226.40" y2="550.60" stroke="#25160f" stroke-width="2.8" stroke-linecap="round" opacity="0.75"/>
<line x1="226.40" y1="598.20" x2="226.40" y2="693.40" stroke="#6a4330" stroke-width="16.18" stroke-linecap="round"/>
<line x1="226.40" y1="598.20" x2="226.40" y2="693.40" stroke="#25160f" stroke-width="2.8" stroke-linecap="round" opacity="0.75"/>
<line x1="940.40" y1="169.80" x2="940.40" y2="217.40" stroke="#6a4330" stroke-width="16.18" stroke-linecap="round"/>
<line x1="940.40" y1="169.80" x2="940.40" y2="217.40" stroke="#25160f" stroke-width="2.8" stroke-linecap="round" opacity="0.75"/>
<line x1="940.40" y1="360.20" x2="940.40" y2="455.40" stroke="#6a4330" stroke-width="16.18" stroke-linecap="round"/>
<line x1="940.40" y1="360.20" x2="940.40" y2="455.40" stroke="#25160f" stroke-width="2.8" stroke-linecap="round" opacity="0.75"/>
<line x1="940.40" y1="503.00" x2="940.40" y2="550.60" stroke="#6a4330" stroke-width="16.18" stroke-linecap="round"/>
<line x1="940.40" y1="503.00" x2="940.40" y2="550.60" stroke="#25160f" stroke-width="2.8" stroke-linecap="round" opacity="0.75"/>
<line x1="940.40" y1="598.20" x2="940.40" y2="645.80" stroke="#6a4330" stroke-width="16.18" stroke-linecap="round"/>
<line x1="940.40" y1="598.20" x2="940.40" y2="645.80" stroke="#25160f" stroke-width="2.8" stroke-linecap="round" opacity="0.75"/>
<line x1="321.60" y1="217.40" x2="321.60" y2="265.00" stroke="#6a4330" stroke-width="16.18" stroke-linecap="round"/>
<line x1="321.60" y1="217.40" x2="321.60" y2="265.00" stroke="#25160f" stroke-width="2.8" stroke-linecap="round" opacity="0.75"/>
<line x1="321.60" y1="312.60" x2="321.60" y2="407.80" stroke="#6a4330" stroke-width="16.18" stroke-linecap="round"/>
<line x1="321.60" y1="312.60" x2="321.60" y2="407.80" stroke="#25160f" stroke-width="2.8" stroke-linecap="round" opacity="0.75"/>
<line x1="321.60" y1="455.40" x2="321.60" y2="645.80" stroke="#6a4330" stroke-width="16.18" stroke-linecap="round"/>
<line x1="321.60" y1="455.40" x2="321.60" y2="645.80" stroke="#25160f" stroke-width="2.8" stroke-linecap="round" opacity="0.75"/>
<line x1="845.20" y1="217.40" x2="845.20" y2="265.00" stroke="#6a4330" stroke-width="16.18" stroke-linecap="round"/>
<line x1="845.20" y1="217.40" x2="845.20" y2="265.00" stroke="#25160f" stroke-width="2.8" stroke-linecap="round" opacity="0.75"/>
<line x1="845.20" y1="312.60" x2="845.20" y2="407.80" stroke="#6a4330" stroke-width="16.18" stroke-linecap="round"/>
<line x1="845.20" y1="312.60" x2="845.20" y2="407.80" stroke="#25160f" stroke-width="2.8" stroke-linecap="round" opacity="0.75"/>
<line x1="845.20" y1="645.80" x2="845.20" y2="693.40" stroke="#6a4330" stroke-width="16.18" stroke-linecap="round"/>
<line x1="845.20" y1="645.80" x2="845.20" y2="693.40" stroke="#25160f" stroke-width="2.8" stroke-linecap="round" opacity="0.75"/>
<line x1="274.00" y1="265.00" x2="274.00" y2="312.60" stroke="#6a4330" stroke-width="16.18" stroke-linecap="round"/>
<line x1="274.00" y1="265.00" x2="274.00" y2="312.60" stroke="#25160f" stroke-width="2.8" stroke-linecap="round" opacity="0.75"/>
<line x1="274.00" y1="360.20" x2="274.00" y2="455.40" stroke="#6a4330" stroke-width="16.18" stroke-linecap="round"/>
<line x1="274.00" y1="360.20" x2="274.00" y2="455.40" stroke="#25160f" stroke-width="2.8" stroke-linecap="round" opacity="0.75"/>
<line x1="274.00" y1="550.60" x2="274.00" y2="645.80" stroke="#6a4330" stroke-width="16.18" stroke-linecap="round"/>
<line x1="274.00" y1="550.60" x2="274.00" y2="645.80" stroke="#25160f" stroke-width="2.8" stroke-linecap="round" opacity="0.75"/>
<line x1="464.40" y1="360.20" x2="464.40" y2="455.40" stroke="#6a4330" stroke-width="16.18" stroke-linecap="round"/>
<line x1="464.40" y1="360.20" x2="464.40" y2="455.40" stroke="#25160f" stroke-width="2.8" stroke-linecap="round" opacity="0.75"/>
<line x1="464.40" y1="550.60" x2="464.40" y2="645.80" stroke="#6a4330" stroke-width="16.18" stroke-linecap="round"/>
<line x1="464.40" y1="550.60" x2="464.40" y2="645.80" stroke="#25160f" stroke-width="2.8" stroke-linecap="round" opacity="0.75"/>
<rect x="36.00" y="74.60" width="952.00" height="618.80" rx="20" fill="none" stroke="#25160f" stroke-width="4" opacity="0.5"/>
<ellipse cx="440.60" cy="574.40" rx="9.52" ry="13.33" fill="#efe2bf" stroke="#25160f" stroke-width="1.6" opacity="0.92"/>
<ellipse cx="438.22" cy="571.07" rx="1.71" ry="1.60" fill="#ffffff" opacity="0.35"/>
<ellipse cx="202.60" cy="574.40" rx="9.52" ry="13.33" fill="#dddca8" stroke="#25160f" stroke-width="1.6" opacity="0.92"/>
<ellipse cx="200.22" cy="571.07" rx="1.71" ry="1.60" fill="#ffffff" opacity="0.35"/>
<ellipse cx="202.60" cy="622.00" rx="9.52" ry="13.33" fill="#efe2bf" stroke="#25160f" stroke-width="1.6" opacity="0.92"/>
<ellipse cx="200.22" cy="618.67" rx="1.71" ry="1.60" fill="#ffffff" opacity="0.35"/>
<ellipse cx="488.20" cy="193.60" rx="9.52" ry="13.33" fill="#dddca8" stroke="#25160f" stroke-width="1.6" opacity="0.92"/>
<ellipse cx="485.82" cy="190.27" rx="1.71" ry="1.60" fill="#ffffff" opacity="0.35"/>
<ellipse cx="583.40" cy="288.80" rx="9.52" ry="13.33" fill="#dddca8" stroke="#25160f" stroke-width="1.6" opacity="0.92"/>
<ellipse cx="581.02" cy="285.47" rx="1.71" ry="1.60" fill="#ffffff" opacity="0.35"/>
<ellipse cx="631.00" cy="384.00" rx="9.52" ry="13.33" fill="#f7ecd6" stroke="#25160f" stroke-width="1.6" opacity="0.92"/>
<ellipse cx="628.62" cy="380.67" rx="1.71" ry="1.60" fill="#ffffff" opacity="0.35"/>
<polygon points="107.40,564.88 114.06,572.50 111.68,583.92 103.12,583.92 100.74,572.50" fill="#d498ff" stroke="#25160f" stroke-width="1.8" opacity="0.9"/>
<polygon points="631.00,422.08 637.66,429.70 635.28,441.12 626.72,441.12 624.34,429.70" fill="#d498ff" stroke="#25160f" stroke-width="1.8" opacity="0.9"/>
<polygon points="202.60,469.68 209.26,477.30 206.88,488.72 198.32,488.72 195.94,477.30" fill="#d498ff" stroke="#25160f" stroke-width="1.8" opacity="0.9"/>
<polygon points="821.40,88.88 828.06,96.50 825.68,107.92 817.12,107.92 814.74,96.50" fill="#9bf08e" stroke="#25160f" stroke-width="1.8" opacity="0.9"/>
<line x1="242.58" y1="484.91" x2="257.82" y2="473.49" stroke="#efe8db" stroke-width="5" stroke-linecap="round"/>
<circle cx="240.58" cy="482.91" r="3" fill="#efe8db"/><circle cx="244.58" cy="486.91" r="3" fill="#efe8db"/>
<circle cx="255.82" cy="471.49" r="3" fill="#efe8db"/><circle cx="259.82" cy="475.49" r="3" fill="#efe8db"/>
<line x1="528.18" y1="294.51" x2="543.42" y2="283.09" stroke="#efe8db" stroke-width="5" stroke-linecap="round"/>
<circle cx="526.18" cy="292.51" r="3" fill="#efe8db"/><circle cx="530.18" cy="296.51" r="3" fill="#efe8db"/>
<circle cx="541.42" cy="281.09" r="3" fill="#efe8db"/><circle cx="545.42" cy="285.09" r="3" fill="#efe8db"/>
<line x1="480.58" y1="532.51" x2="495.82" y2="521.09" stroke="#efe8db" stroke-width="5" stroke-linecap="round"/>
<circle cx="478.58" cy="530.51" r="3" fill="#efe8db"/><circle cx="482.58" cy="534.51" r="3" fill="#efe8db"/>
<circle cx="493.82" cy="519.09" r="3" fill="#efe8db"/><circle cx="497.82" cy="523.09" r="3" fill="#efe8db"/>
<path d="M 631.00 652.94 C 626.24 665.79, 635.76 669.60, 631.00 682.93" fill="none" stroke="#a2663e" stroke-width="2.4" opacity="0.65"/>
<path d="M 627.19 670.55 L 622.43 676.74 M 634.81 670.55 L 639.57 676.74" fill="none" stroke="#a2663e" stroke-width="2" opacity="0.6"/>
<path d="M 393.00 81.74 C 388.24 94.59, 397.76 98.40, 393.00 111.73" fill="none" stroke="#a2663e" stroke-width="2.4" opacity="0.65"/>
<path d="M 389.19 99.35 L 384.43 105.54 M 396.81 99.35 L 401.57 105.54" fill="none" stroke="#a2663e" stroke-width="2" opacity="0.6"/>
<path d="M 964.20 510.14 C 959.44 522.99, 968.96 526.80, 964.20 540.13" fill="none" stroke="#a2663e" stroke-width="2.4" opacity="0.65"/>
<path d="M 960.39 527.75 L 955.63 533.94 M 968.01 527.75 L 972.77 533.94" fill="none" stroke="#a2663e" stroke-width="2" opacity="0.6"/>
<path d="M 583.40 176.94 C 578.64 189.79, 588.16 193.60, 583.40 206.93" fill="none" stroke="#a2663e" stroke-width="2.4" opacity="0.65"/>
<path d="M 579.59 194.55 L 574.83 200.74 M 587.21 194.55 L 591.97 200.74" fill="none" stroke="#a2663e" stroke-width="2" opacity="0.6"/>
<path d="M 155.00 652.94 C 150.24 665.79, 159.76 669.60, 155.00 682.93" fill="none" stroke="#a2663e" stroke-width="2.4" opacity="0.65"/>
<path d="M 151.19 670.55 L 146.43 676.74 M 158.81 670.55 L 163.57 676.74" fill="none" stroke="#a2663e" stroke-width="2" opacity="0.6"/>
<circle cx="59.80" cy="98.40" r="10.47" fill="#67d36d" stroke="#25160f" stroke-width="2" opacity="0.9"/>
<circle cx="964.20" cy="669.60" r="10.47" fill="#ff8c75" stroke="#25160f" stroke-width="2" opacity="0.9"/>
</svg>