<svg xmlns="http://www.w3.org/2000/svg" width="1024" height="768" viewBox="0 0 1024 768">
<defs>
<filter id="shadow" x="-20%" y="-20%" width="140%" height="140%"><feDropShadow dx="0" dy="6" stdDeviation="8" flood-color="#000" flood-opacity="0.28"/></filter>
</defs>
<rect width="100%" height="100%" fill="#7a4725"/>
<rect x="18" y="18" width="988" height="732" rx="18" fill="#956041" stroke="#352013" stroke-width="6" filter="url(#shadow)"/>
<rect x="26.85" y="85.11" width="970.29" height="597.77" rx="28" fill="#956041" stroke="#352013" stroke-width="5"/>
<rect x="36.00" y="94.26" width="952.00" height="579.48" rx="20" fill="#e7bd85"/>
<circle cx="350.33" cy="238.24" r="1.77" fill="#352013" opacity="0.27"/>
<circle cx="199.98" cy="312.10" r="0.86" fill="#352013" opacity="0.22"/>
<circle cx="684.38" cy="527.61" r="1.19" fill="#352013" opacity="0.28"/>
<circle cx="942.09" cy="505.85" r="1.99" fill="#352013" opacity="0.19"/>
<circle cx="867.43" cy="160.65" r="0.94" fill="#352013" opacity="0.19"/>
<circle cx="76.38" cy="108.50" r="1.12" fill="#352013" opacity="0.14"/>
<circle cx="760.88" cy="522.96" r="1.08" fill="#352013" opacity="0.16"/>
<circle cx="538.04" cy="419.62" r="1.76" fill="#352013" opacity="0.17"/>
<circle cx="326.92" cy="373.10" r="1.79" fill="#352013" opacity="0.25"/>
<circle cx="710.36" cy="608.53" r="1.77" fill="#352013" opacity="0.19"/>
<circle cx="644.68" cy="330.94" r="1.14" fill="#352013" opacity="0.23"/>
<circle cx="208.83" cy="184.01" r="0.81" fill="#352013" opacity="0.19"/>
<circle cx="69.00" cy="502.59" r="1.76" fill="#352013" opacity="0.16"/>
<circle cx="164.03" cy="573.31" r="1.35" fill="#352013" opacity="0.19"/>
<circle cx="547.22" cy="134.76" r="1.10" fill="#352013" opacity="0.18"/>
<circle cx="637.56" cy="236.78" r="1.89" fill="#352013" opacity="0.19"/>
<circle cx="630.85" cy="95.24" r="0.91" fill="#352013" opacity="0.26"/>
<circle cx="517.78" cy="286.23" r="1.65" fill="#352013" opacity="0.12"/>
<circle cx="263.65" cy="625.97" r="1.38" fill="#352013" opacity="0.16"/>
<circle cx="546.15" cy="333.38" r="0.85" fill="#352013" opacity="0.21"/>
<circle cx="693.65" cy="672.37" r="0.85" fill="#352013" opacity="0.13"/>
<circle cx="214.23" cy="346.41" r="1.77" fill="#352013" opacity="0.19"/>
<circle cx="624.04" cy="503.87" r="1.71" fill="#352013" opacity="0.18"/>
<circle cx="533.55" cy="132.60" r="1.78" fill="#352013" opacity="0.26"/>
<circle cx="775.98" cy="286.03" r="1.26" fill="#352013" opacity="0.16"/>
<circle cx="254.05" cy="215.83" r="1.46" fill="#352013" opacity="0.19"/>
<circle cx="884.83" cy="234.33" r="1.34" fill="#352013" opacity="0.27"/>
<circle cx="796.78" cy="202.95" r="1.60" fill="#352013" opacity="0.14"/>
<circle cx="752.27" cy="429.66" r="1.28" fill="#352013" opacity="0.22"/>
<circle cx="726.74" cy="437.41" r="1.30" fill="#352013" opacity="0.26"/>
<circle cx="382.33" cy="350.65" r="1.80" fill="#352013" opacity="0.19"/>
<circle cx="655.96" cy="133.52" r="1.45" fill="#352013" opacity="0.28"/>
<circle cx="615.29" cy="263.55" r="1.24" fill="#352013" opacity="0.27"/>
<circle cx="569.12" cy="488.29" r="1.81" fill="#352013" opacity="0.15"/>
<circle cx="629.85" cy="652.05" r="1.93" fill="#352013" opacity="0.20"/>
<circle cx="732.50" cy="351.84" r="1.05" fill="#352013" opacity="0.23"/>
<circle cx="658.91" cy="327.38" r="1.84" fill="#352013" opacity="0.17"/>
<circle cx="474.92" cy="399.64" r="1.93" fill="#352013" opacity="0.20"/>
<circle cx="457.11" cy="327.96" r="1.53" fill="#352013" opacity="0.21"/>
<circle cx="760.12" cy="100.68" r="1.94" fill="#352013" opacity="0.28"/>
<circle cx="174.98" cy="253.96" r="1.55" fill="#352013" opacity="0.15"/>
<circle cx="785.63" cy="238.77" r="1.30" fill="#352013" opacity="0.26"/>
<circle cx="395.95" cy="219.04" r="1.03" fill="#352013" opacity="0.13"/>
<circle cx="288.63" cy="587.10" r="0.97" fill="#352013" opacity="0.22"/>
<circle cx="164.03" cy="181.14" r="1.17" fill="#352013" opacity="0.23"/>
<circle cx="302.99" cy="198.06" r="1.00" fill="#352013" opacity="0.18"/>
<circle cx="925.48" cy="200.32" r="1.43" fill="#352013" opacity="0.17"/>
<circle cx="378.33" cy="472.38" r="1.23" fill="#352013" opacity="0.22"/>
<circle cx="694.93" cy="112.52" r="1.44" fill="#352013" opacity="0.15"/>
<circle cx="88.65" cy="391.61" r="1.01" fill="#352013" opacity="0.19"/>
<circle cx="792.49" cy="643.11" r="1.23" fill="#352013" opacity="0.21"/>
<circle cx="472.70" cy="340.50" r="1.70" fill="#352013" opacity="0.17"/>
<circle cx="499.83" cy="647.76" r="1.35" fill="#352013" opacity="0.26"/>
<circle cx="736.16" cy="378.37" r="1.17" fill="#352013" opacity="0.20"/>
<circle cx="469.00" cy="191.74" r="1.77" fill="#352013" opacity="0.20"/>
<circle cx="619.93" cy="623.86" r="1.81" fill="#352013" opacity="0.26"/>
<circle cx="206.72" cy="588.89" r="1.72" fill="#352013" opacity="0.25"/>
<circle cx="280.39" cy="664.61" r="1.47" fill="#352013" opacity="0.27"/>
<circle cx="289.38" cy="305.39" r="1.17" fill="#352013" opacity="0.20"/>
<circle cx="132.54" cy="109.23" r="1.19" fill="#352013" opacity="0.13"/>
<circle cx="211.04" cy="437.65" r="1.85" fill="#352013" opacity="0.27"/>
<circle cx="407.50" cy="652.78" r="1.47" fill="#352013" opacity="0.13"/>
<circle cx="72.27" cy="387.00" r="1.17" fill="#352013" opacity="0.13"/>
<circle cx="982.24" cy="349.04" r="1.48" fill="#352013" opacity="0.27"/>
<circle cx="490.81" cy="125.01" r="0.83" fill="#352013" opacity="0.23"/>
<circle cx="634.14" cy="286.74" r="1.57" fill="#352013" opacity="0.26"/>
<circle cx="890.52" cy="360.38" r="1.58" fill="#352013" opacity="0.15"/>
<circle cx="487.31" cy="107.63" r="1.03" fill="#352013" opacity="0.27"/>
<circle cx="971.41" cy="563.23" r="1.80" fill="#352013" opacity="0.21"/>
<circle cx="648.21" cy="649.28" r="1.45" fill="#352013" opacity="0.19"/>
<circle cx="462.54" cy="351.82" r="1.31" fill="#352013" opacity="0.14"/>
<circle cx="732.44" cy="321.47" r="1.27" fill="#352013" opacity="0.13"/>
<circle cx="230.64" cy="310.69" r="1.58" fill="#352013" opacity="0.21"/>
<circle cx="136.15" cy="329.15" r="1.30" fill="#352013" opacity="0.19"/>
<circle cx="476.98" cy="162.56" r="1.16" fill="#352013" opacity="0.12"/>
<circle cx="814.72" cy="366.44" r="1.62" fill="#352013" opacity="0.26"/>
<circle cx="889.84" cy="231.86" r="1.22" fill="#352013" opacity="0.17"/>
<circle cx="472.38" cy="181.23" r="1.74" fill="#352013" opacity="0.28"/>
<circle cx="590.73" cy="449.14" r="1.22" fill="#352013" opacity="0.13"/>
<circle cx="788.21" cy="145.26" r="1.51" fill="#352013" opacity="0.15"/>
<circle cx="498.07" cy="243.16" r="1.92" fill="#352013" opacity="0.28"/>
<circle cx="865.65" cy="540.04" r="1.90" fill="#352013" opacity="0.25"/>
<circle cx="699.57" cy="252.20" r="1.87" fill="#352013" opacity="0.25"/>
<circle cx="568.90" cy="502.24" r="1.04" fill="#352013" opacity="0.14"/>
<circle cx="186.92" cy="566.17" r="1.43" fill="#352013" opacity="0.25"/>
<circle cx="794.57" cy="289.46" r="1.22" fill="#352013" opacity="0.14"/>
<circle cx="911.04" cy="351.67" r="1.07" fill="#352013" opacity="0.24"/>
<circle cx="948.85" cy="489.95" r="1.20" fill="#352013" opacity="0.14"/>
<circle cx="468.90" cy="507.91" r="1.05" fill="#352013" opacity="0.16"/>
<circle cx="389.93" cy="115.53" r="1.68" fill="#352013" opacity="0.22"/>
<circle cx="724.22" cy="386.61" r="0.88" fill="#352013" opacity="0.22"/>
<circle cx="238.01" cy="570.97" r="1.58" fill="#352013" opacity="0.15"/>
<circle cx="40.03" cy="136.71" r="0.95" fill="#352013" opacity="0.27"/>
<circle cx="489.90" cy="478.12" r="1.59" fill="#352013" opacity="0.12"/>
<circle cx="901.91" cy="501.86" r="0.85" fill="#352013" opacity="0.21"/>
<circle cx="722.70" cy="190.41" r="1.33" fill="#352013" opacity="0.17"/>
<circle cx="418.24" cy="374.04" r="1.71" fill="#352013" opacity="0.28"/>
<circle cx="910.65" cy="251.81" r="1.55" fill="#352013" opacity="0.17"/>
<circle cx="571.47" cy="517.31" r="1.02" fill="#352013" opacity="0.15"/>
<circle cx="812.18" cy="254.75" r="1.73" fill="#352013" opacity="0.16"/>
<circle cx="311.95" cy="645.58" r="1.09" fill="#352013" opacity="0.17"/>
<circle cx="145.47" cy="517.07" r="0.99" fill="#352013" opacity="0.15"/>
<circle cx="731.86" cy="150.05" r="1.97" fill="#352013" opacity="0.21"/>
<circle cx="479.21" cy="115.47" r="1.56" fill="#352013" opacity="0.16"/>
<circle cx="127.97" cy="635.22" r="1.02" fill="#352013" opacity="0.27"/>
<circle cx="921.26" cy="664.00" r="1.04" fill="#352013" opacity="0.22"/>
<circle cx="598.84" cy="175.92" r="1.78" fill="#352013" opacity="0.13"/>
<circle cx="69.28" cy="122.35" r="1.93" fill="#352013" opacity="0.25"/>
<circle cx="468.41" cy="551.88" r="1.84" fill="#352013" opacity="0.19"/>
<circle cx="361.63" cy="464.23" r="1.17" fill="#352013" opacity="0.17"/>
<circle cx="977.06" cy="595.72" r="1.07" fill="#352013" opacity="0.20"/>
<circle cx="307.69" cy="135.48" r="1.86" fill="#352013" opacity="0.13"/>
<circle cx="476.14" cy="599.29" r="0.87" fill="#352013" opacity="0.23"/>
<circle cx="213.44" cy="158.21" r="1.77" fill="#352013" opacity="0.19"/>
<circle cx="301.45" cy="359.04" r="1.30" fill="#352013" opacity="0.25"/>
<circle cx="452.18" cy="575.21" r="1.66" fill="#352013" opacity="0.17"/>
<circle cx="904.77" cy="628.72" r="0.84" fill="#352013" opacity="0.26"/>
<circle cx="976.59" cy="598.64" r="1.66" fill="#352013" opacity="0.15"/>
<circle cx="622.79" cy="161.90" r="1.57" fill="#352013" opacity="0.23"/>
<circle cx="632.29" cy="309.90" r="1.29" fill="#352013" opacity="0.23"/>
<line x1="36.00" y1="94.26" x2="988.00" y2="94.26" stroke="#956041" stroke-width="14.07" stroke-linecap="round"/>
<line x1="36.00" y1="94.26" x2="988.00" y2="94.26" stroke="#352013" stroke-width="2.8" stroke-linecap="round" opacity="0.75"/>
<line x1="118.78" y1="135.65" x2="160.17" y2="135.65" stroke="#956041" stroke-width="14.07" stroke-linecap="round"/>
<line x1="118.78" y1="135.65" x2="160.17" y2="135.65" stroke="#352013" stroke-width="2.8" stroke-linecap="round" opacity="0.75"/>
<line x1="201.57" y1="135.65" x2="242.96" y2="135.65" stroke="#956041" stroke-width="14.07" stroke-linecap="round"/>
<line x1="201.57" y1="135.65" x2="242.96" y2="135.65" stroke="#352013" stroke-width="2.8" stroke-linecap="round" opacity="0.75"/>
<line x1="284.35" y1="135.65" x2="491.30" y2="135.65" stroke="#956041" stroke-width="14.07" stroke-linecap="round"/>
<line x1="284.35" y1="135.65" x2="491.30" y2="135.65" stroke="#352013" stroke-width="2.8" stroke-linecap="round" opacity="0.75"/>
<line x1="574.09" y1="135.65" x2="615.48" y2="135.65" stroke="#956041" stroke-width="14.07" stroke-linecap="round"/>
<line x1="574.09" y1="135.65" x2="615.48" y2="135.65" stroke="#352013" stroke-width="2.8" stroke-linecap="round" opacity="0.75"/>
<line x1="656.87" y1="135.65" x2="698.26" y2="135.65" stroke="#956041" stroke-width="14.07" stroke-linecap="round"/>
<line x1="656.87" y1="135.65" x2="698.26" y2="135.65" stroke="#352013" stroke-width="2.8" stroke-linecap="round" opacity="0.75"/>
<line x1="781.04" y1="135.65" x2="863.83" y2="135.65" stroke="#956041" stroke-width="14.07" stroke-linecap="round"/>
<line x1="781.04" y1="135.65" x2="863.83" y2="135.65" stroke="#352013" stroke-width="2.8" stroke-linecap="round" opacity="0.75"/>
<line x1="77.39" y1="177.04" x2="118.78" y2="177.04" stroke="#956041" stroke-width="14.07" stroke-linecap="round"/>
<line x1="77.39" y1="177.04" x2="118.78" y2="177.04" stroke="#352013" stroke-width="2.8" stroke-linecap="round" opacity="0.75"/>
<line x1="160.17" y1="177.04" x2="242.96" y2="177.04" stroke="#956041" stroke-width="14.07" stroke-linecap="round"/>
<line x1="160.17" y1="177.04" x2="242.96" y2="177.04" stroke="#352013" stroke-width="2.8" stroke-linecap="round" opacity="0.75"/>
<line x1="325.74" y1="177.04" x2="367.13" y2="177.04" stroke="#956041" stroke-width="14.07" stroke-linecap="round"/>
<line x1="325.74" y1="177.04" x2="367.13" y2="177.04" stroke="#352013" stroke-width="2.8" stroke-linecap="round" opacity="0.75"/>
<line x1="449.91" y1="177.04" x2="532.70" y2="177.04" stroke="#956041" stroke-width="14.07" stroke-linecap="round"/>
<line x1="449.91" y1="177.04" x2="532.70" y2="177.04" stroke="#352013" stroke-width="2.8" stroke-linecap="round" opacity="0.75"/>
<line x1="615.48" y1="177.04" x2="656.87" y2="177.04" stroke="#956041" stroke-width="14.07" stroke-linecap="round"/>
<line x1="615.48" y1="177.04" x2="656.87" y2="177.04" stroke="#352013" stroke-width="2.8" stroke-linecap="round" opacity="0.75"/>
<line x1="698.26" y1="177.04" x2="946.61" y2="177.04" stroke="#956041" stroke-width="14.07" stroke-linecap="round"/>
<line x1="698.26" y1="177.04" x2="946.61" y2="177.04" stroke="#352013" stroke-width="2.8" stroke-linecap="round" opacity="0.75"/>
<line x1="77.39" y1="218.43" x2="160.17" y2="218.43" stroke="#956041" stroke-width="14.07" stroke-linecap="round"/>
<line x1="77.39" y1="218.43" x2="160.17" y2="218.43" stroke="#352013" stroke-width="2.8" stroke-linecap="round" opacity="0.75"/>
<line x1="201.57" y1="218.43" x2="242.96" y2="218.43" stroke="#956041" stroke-width="14.07" stroke-linecap="round"/>
<line x1="201.57" y1="218.43" x2="242.96" y2="218.43" stroke="#352013" stroke-width="2.8" stroke-linecap="round" opacity="0.75"/>
<line x1="284.35" y1="218.43" x2="325.74" y2="218.43" stroke="#956041" stroke-width="14.07" stroke-linecap="round"/>
<line x1="284.35" y1="218.43" x2="325.74" y2="218.43" stroke="#352013" stroke-width="2.8" stroke-linecap="round" opacity="0.75"/>
<line x1="449.91" y1="218.43" x2="656.87" y2="218.43" stroke="#956041" stroke-width="14.07" stroke-linecap="round"/>
<line x1="449.91" y1="218.43" x2="656.87" y2="218.43" stroke="#352013" stroke-width="2.8" stroke-linecap="round" opacity="0.75"/>
<line x1="739.65" y1="218.43" x2="822.43" y2="218.43" stroke="#956041" stroke-width="14.07" stroke-linecap="round"/>
<line x1="739.65" y1="218.43" x2="822.43" y2="218.43" stroke="#352013" stroke-width="2.8" stroke-linecap="round" opacity="0.75"/>
<line x1="863.83" y1="218.43" x2="988.00" y2="218.43" stroke="#956041" stroke-width="14.07" stroke-linecap="round"/>
<line x1="863.83" y1="218.43" x2="988.00" y2="218.43" stroke="#352013" stroke-width="2.8" stroke-linecap="round" opacity="0.75"/>
<line x1="160.17" y1="259.83" x2="325.74" y2="259.83" stroke="#956041" stroke-width="14.07" stroke-linecap="round"/>
<line x1="160.17" y1="259.83" x2="325.74" y2="259.83" stroke="#352013" stroke-width="2.8" stroke-linecap="round" opacity="0.75"/>
<line x1="408.52" y1="259.83" x2="532.70" y2="259.83" stroke="#956041" stroke-width="14.07" stroke-linecap="round"/>
<line x1="408.52" y1="259.83" x2="532.70" y2="259.83" stroke="#352013" stroke-width="2.8" stroke-linecap="round" opacity="0.75"/>
<line x1="615.48" y1="259.83" x2="698.26" y2="259.83" stroke="#956041" stroke-width="14.07" stroke-linecap="round"/>
<line x1="615.48" y1="259.83" x2="698.26" y2="259.83" stroke="#352013" stroke-width="2.8" stroke-linecap="round" opacity="0.75"/>
<line x1="822.43" y1="259.83" x2="863.83" y2="259.83" stroke="#956041" stroke-width="14.07" stroke-linecap="round"/>
<line x1="822.43" y1="259.83" x2="863.83" y2="259.83" stroke="#352013" stroke-width="2.8" stroke-linecap="round" opacity="0.75"/>
<line x1="905.22" y1="259.83" x2="946.61" y2="259.83" stroke="#956041" stroke-width="14.07" stroke-linecap="round"/>
<line x1="905.22" y1="259.83" x2="946.61" y2="259.83" stroke="#352013" stroke-width="2.8" stroke-linecap="round" opacity="0.75"/>
<line x1="118.78" y1="301.22" x2="160.17" y2="301.22" stroke="#956041" stroke-width="14.07" stroke-linecap="round"/>
<line x1="118.78" y1="301.22" x2="160.17" y2="301.22" stroke="#352013" stroke-width="2.8" stroke-linecap="round" opacity="0.75"/>
<line x1="201.57" y1="301.22" x2="284.35" y2="301.22" stroke="#956041" stroke-width="14.07" stroke-linecap="round"/>
<line x1="201.57" y1="301.22" x2="284.35" y2="301.22" stroke="#352013" stroke-width="2.8" stroke-linecap="round" opacity="0.75"/>
<line x1="367.13" y1="301.22" x2="408.52" y2="301.22" stroke="#956041" stroke-width="14.07" stroke-linecap="round"/>
<line x1="367.13" y1="301.22" x2="408.52" y2="301.22" stroke="#352013" stroke-width="2.8" stroke-linecap="round" opacity="0.75"/>
<line x1="491.30" y1="301.22" x2="532.70" y2="301.22" stroke="#956041" stroke-width="14.07" stroke-linecap="round"/>
<line x1="491.30" y1="301.22" x2="532.70" y2="301.22" stroke="#352013" stroke-width="2.8" stroke-linecap="round" opacity="0.75"/>
<line x1="615.48" y1="301.22" x2="739.65" y2="301.22" stroke="#956041" stroke-width="14.07" stroke-linecap="round"/>
<line x1="615.48" y1="301.22" x2="739.65" y2="301.22" stroke="#352013" stroke-width="2.8" stroke-linecap="round" opacity="0.75"/>
<line x1="822.43" y1="301.22" x2="905.22" y2="301.22" stroke="#956041" stroke-width="14.07" stroke-linecap="round"/>
<line x1="822.43" y1="301.22" x2="905.22" y2="301.22" stroke="#352013" stroke-width="2.8" stroke-linecap="round" opacity="0.75"/>
<line x1="77.39" y1="342.61" x2="118.78" y2="342.61" stroke="#956041" stroke-width="14.07" stroke-linecap="round"/>
<line x1="77.39" y1="342.61" x2="118.78" y2="342.61" stroke="#352013" stroke-width="2.8" stroke-linecap="round" opacity="0.75"/>
<line x1="242.96" y1="342.61" x2="367.13" y2="342.61" stroke="#956041" stroke-width="14.07" stroke-linecap="round"/>
<line x1="242.96" y1="342.61" x2="367.13" y2="342.61" stroke="#352013" stroke-width="2.8" stroke-linecap="round" opacity="0.75"/>
<line x1="532.70" y1="342.61" x2="615.48" y2="342.61" stroke="#956041" stroke-width="14.07" stroke-linecap="round"/>
<line x1="532.70" y1="342.61" x2="615.48" y2="342.61" stroke="#352013" stroke-width="2.8" stroke-linecap="round" opacity="0.75"/>
<line x1="781.04" y1="342.61" x2="988.00" y2="342.61" stroke="#956041" stroke-width="14.07" stroke-linecap="round"/>
<line x1="781.04" y1="342.61" x2="988.00" y2="342.61" stroke="#352013" stroke-width="2.8" stroke-linecap="round" opacity="0.75"/>
<line x1="36.00" y1="384.00" x2="118.78" y2="384.00" stroke="#956041" stroke-width="14.07" stroke-linecap="round"/>
<line x1="36.00" y1="384.00" x2="118.78" y2="384.00" stroke="#352013" stroke-width="2.8" stroke-linecap="round" opacity="0.75"/>
<line x1="201.57" y1="384.00" x2="325.74" y2="384.00" stroke="#956041" stroke-width="14.07" stroke-linecap="round"/>
<line x1="201.57" y1="384.00" x2="325.74" y2="384.00" stroke="#352013" stroke-width="2.8" stroke-linecap="round" opacity="0.75"/>
<line x1="367.13" y1="384.00" x2="408.52" y2="384.00" stroke="#956041" stroke-width="14.07" stroke-linecap="round"/>
<line x1="367.13" y1="384.00" x2="408.52" y2="384.00" stroke="#352013" stroke-width="2.8" stroke-linecap="round" opacity="0.75"/>
<line x1="449.91" y1="384.00" x2="532.70" y2="384.00" stroke="#956041" stroke-width="14.07" stroke-linecap="round"/>
<line x1="449.91" y1="384.00" x2="532.70" y2="384.00" stroke="#352013" stroke-width="2.8" stroke-linecap="round" opacity="0.75"/>
<line x1="698.26" y1="384.00" x2="781.04" y2="384.00" stroke="#956041" stroke-width="14.07" stroke-linecap="round"/>
<line x1="698.26" y1="384.00" x2="781.04" y2="384.00" stroke="#352013" stroke-width="2.8" stroke-linecap="round" opacity="0.75"/>
<line x1="905.22" y1="384.00" x2="946.61" y2="384.00" stroke="#956041" stroke-width="14.07" stroke-linecap="round"/>
<line x1="905.22" y1="384.00" x2="946.61" y2="384.00" stroke="#352013" stroke-width="2.8" stroke-linecap="round" opacity="0.75"/>
<line x1="160.17" y1="425.39" x2="201.57" y2="425.39" stroke="#956041" stroke-width="14.07" stroke-linecap="round"/>
<line x1="160.17" y1="425.39" x2="201.57" y2="425.39" stroke="#352013" stroke-width="2.8" stroke-linecap="round" opacity="0.75"/>
<line x1="367.13" y1="425.39" x2="449.91" y2="425.39" stroke="#956041" stroke-width="14.07" stroke-linecap="round"/>
<line x1="367.13" y1="425.39" x2="449.91" y2="425.39" stroke="#352013" stroke-width="2.8" stroke-linecap="round" opacity="0.75"/>
<line x1="491.30" y1="425.39" x2="574.09" y2="425.39" stroke="#956041" stroke-width="14.07" stroke-linecap="round"/>
<line x1="491.30" y1="425.39" x2="574.09" y2="425.39" stroke="#352013" stroke-width="2.8" stroke-linecap="round" opacity="0.75"/>
<line x1="656.87" y1="425.39" x2="739.65" y2="425.39" stroke="#956041" stroke-width="14.07" stroke-linecap="round"/>
<line x1="656.87" y1="425.39" x2="739.65" y2="425.39" stroke="#352013" stroke-width="2.8" stroke-linecap="round" opacity="0.75"/>
<line x1="822.43" y1="425.39" x2="905.22" y2="425.39" stroke="#956041" stroke-width="14.07" stroke-linecap="round"/>
<line x1="822.43" y1="425.39" x2="905.22" y2="425.39" stroke="#352013" stroke-width="2.8" stroke-linecap="round" opacity="0.75"/>
<line x1="77.39" y1="466.78" x2="160.17" y2="466.78" stroke="#956041" stroke-width="14.07" stroke-linecap="round"/>
<line x1="77.39" y1="466.78" x2="160.17" y2="466.78" stroke="#352013" stroke-width="2.8" stroke-linecap="round" opacity="0.75"/>
<line x1="325.74" y1="466.78" x2="367.13" y2="466.78" stroke="#956041" stroke-width="14.07" stroke-linecap="round"/>
<line x1="325.74" y1="466.78" x2="367.13" y2="466.78" stroke="#352013" stroke-width="2.8" stroke-linecap="round" opacity="0.75"/>
<line x1="574.09" y1="466.78" x2="656.87" y2="466.78" stroke="#956041" stroke-width="14.07" stroke-linecap="round"/>
<line x1="574.09" y1="466.78" x2="656.87" y2="466.78" stroke="#352013" stroke-width="2.8" stroke-linecap="round" opacity="0.75"/>
<line x1="739.65" y1="466.78" x2="946.61" y2="466.78" stroke="#956041" stroke-width="14.07" stroke-linecap="round"/>
<line x1="739.65" y1="466.78" x2="946.61" y2="466.78" stroke="#352013" stroke-width="2.8" stroke-linecap="round" opacity="0.75"/>
<line x1="36.00" y1="508.17" x2="77.39" y2="508.17" stroke="#956041" stroke-width="14.07" stroke-linecap="round"/>
<line x1="36.00" y1="508.17" x2="77.39" y2="508.17" stroke="#352013" stroke-width="2.8" stroke-linecap="round" opacity="0.75"/>
<line x1="160.17" y1="508.17" x2="201.57" y2="508.17" stroke="#956041" stroke-width="14.07" stroke-linecap="round"/>
<line x1="160.17" y1="508.17" x2="201.57" y2="508.17" stroke="#352013" stroke-width="2.8" stroke-linecap="round" opacity="0.75"/>
<line x1="367.13" y1="508.17" x2="491.30" y2="508.17" stroke="#956041" stroke-width="14.07" stroke-linecap="round"/>
<line x1="367.13" y1="508.17" x2="491.30" y2="508.17" stroke="#352013" stroke-width="2.8" stroke-linecap="round" opacity="0.75"/>
<line x1="656.87" y1="508.17" x2="988.00" y2="508.17" stroke="#956041" stroke-width="14.07" stroke-linecap="round"/>
<line x1="656.87" y1="508.17" x2="988.00" y2="508.17" stroke="#352013" stroke-width="2.8" stroke-linecap="round" opacity="0.75"/>
<line x1="118.78" y1="549.57" x2="160.17" y2="549.57" stroke="#956041" stroke-width="14.07" stroke-linecap="round"/>
<line x1="118.78" y1="549.57" x2="160.17" y2="549.57" stroke="#352013" stroke-width="2.8" stroke-linecap="round" opacity="0.75"/>
<line x1="201.57" y1="549.57" x2="242.96" y2="549.57" stroke="#956041" stroke-width="14.07" stroke-linecap="round"/>
<line x1="201.57" y1="549.57" x2="242.96" y2="549.57" stroke="#352013" stroke-width="2.8" stroke-linecap="round" opacity="0.75"/>
<line x1="325.74" y1="549.57" x2="367.13" y2="549.57" stroke="#956041" stroke-width="14.07" stroke-linecap="round"/>
<line x1="325.74" y1="549.57" x2="367.13" y2="549.57" stroke="#352013" stroke-width="2.8" stroke-linecap="round" opacity="0.75"/>
<line x1="449.91" y1="549.57" x2="491.30" y2="549.57" stroke="#956041" stroke-width="14.07" stroke-linecap="round"/>
<line x1="449.91" y1="549.57" x2="491.30" y2="549.57" stroke="#352013" stroke-width="2.8" stroke-linecap="round" opacity="0.75"/>
<line x1="532.70" y1="549.57" x2="574.09" y2="549.57" stroke="#956041" stroke-width="14.07" stroke-linecap="round"/>
<line x1="532.70" y1="549.57" x2="574.09" y2="549.57" stroke="#352013" stroke-width="2.8" stroke-linecap="round" opacity="0.75"/>
<line x1="656.87" y1="549.57" x2="739.65" y2="549.57" stroke="#956041" stroke-width="14.07" stroke-linecap="round"/>
<line x1="656.87" y1="549.57" x2="739.65" y2="549.57" stroke="#352013" stroke-width="2.8" stroke-linecap="round" opacity="0.75"/>
<line x1="781.04" y1="549.57" x2="822.43" y2="549.57" stroke="#956041" stroke-width="14.07" stroke-linecap="round"/>
<line x1="781.04" y1="549.57" x2="822.43" y2="549.57" stroke="#352013" stroke-width="2.8" stroke-linecap="round" opacity="0.75"/>
<line x1="863.83" y1="549.57" x2="905.22" y2="549.57" stroke="#956041" stroke-width="14.07" stroke-linecap="round"/>
<line x1="863.83" y1="549.57" x2="905.22" y2="549.57" stroke="#352013" stroke-width="2.8" stroke-linecap="round" opacity="0.75"/>
<line x1="242.96" y1="590.96" x2="367.13" y2="590.96" stroke="#956041" stroke-width="14.07" stroke-linecap="round"/>
<line x1="242.96" y1="590.96" x2="367.13" y2="590.96" stroke="#352013" stroke-width="2.8" stroke-linecap="round" opacity="0.75"/>
<line x1="615.48" y1="590.96" x2="656.87" y2="590.96" stroke="#956041" stroke-width="14.07" stroke-linecap="round"/>
<line x1="615.48" y1="590.96" x2="656.87" y2="590.96" stroke="#352013" stroke-width="2.8" stroke-linecap="round" opacity="0.75"/>
<line x1="739.65" y1="590.96" x2="781.04" y2="590.96" stroke="#956041" stroke-width="14.07" stroke-linecap="round"/>
<line x1="739.65" y1="590.96" x2="781.04" y2="590.96" stroke="#352013" stroke-width="2.8" stroke-linecap="round" opacity="0.75"/>
<line x1="863.83" y1="590.96" x2="946.61" y2="590.96" stroke="#956041" stroke-width="14.07" stroke-linecap="round"/>
<line x1="863.83" y1="590.96" x2="946.61" y2="590.96" stroke="#352013" stroke-width="2.8" stroke-linecap="round" opacity="0.75"/>
<line x1="36.00" y1="673.74" x2="988.00" y2="673.74" stroke="#956041" stroke-width="14.07" stroke-linecap="round"/>
<line x1="36.00" y1="673.74" x2="988.00" y2="673.74" stroke="#352013" stroke-width="2.8" stroke-linecap="round" opacity="0.75"/>
<line x1="77.39" y1="632.35" x2="160.17" y2="632.35" stroke="#956041" stroke-width="14.07" stroke-linecap="round"/>
<line x1="77.39" y1="632.35" x2="160.17" y2="632.35" stroke="#352013" stroke-width="2.8" stroke-linecap="round" opacity="0.75"/>
<line x1="201.57" y1="632.35" x2="242.96" y2="632.35" stroke="#956041" stroke-width="14.07" stroke-linecap="round"/>
<line x1="201.57" y1="632.35" x2="242.96" y2="632.35" stroke="#352013" stroke-width="2.8" stroke-linecap="round" opacity="0.75"/>
<line x1="325.74" y1="632.35" x2="449.91" y2="632.35" stroke="#956041" stroke-width="14.07" stroke-linecap="round"/>
<line x1="325.74" y1="632.35" x2="449.91" y2="632.35" stroke="#352013" stroke-width="2.8" stroke-linecap="round" opacity="0.75"/>
<line x1="656.87" y1="632.35" x2="905.22" y2="632.35" stroke="#956041" stroke-width="14.07" stroke-linecap="round"/>
<line x1="656.87" y1="632.35" x2="905.22" y2="632.35" stroke="#352013" stroke-width="2.8" stroke-linecap="round" opacity="0.75"/>
<line x1="36.00" y1="94.26" x2="36.00" y2="673.74" stroke="#956041" stroke-width="14.07" stroke-linecap="round"/>
<line x1="36.00" y1="94.26" x2="36.00" y2="673.74" stroke="#352013" stroke-width="2.8" stroke-linecap="round" opacity="0.75"/>
<line x1="160.17" y1="94.26" x2="160.17" y2="135.65" stroke="#956041" stroke-width="14.07" stroke-linecap="round"/>
<line x1="160.17" y1="94.26" x2="160.17" y2="135.65" stroke="#352013" stroke-width="2.8" stroke-linecap="round" opacity="0.75"/>
<line x1="160.17" y1="177.04" x2="160.17" y2="466.78" stroke="#956041" stroke-width="14.07" stroke-linecap="round"/>
<line x1="160.17" y1="177.04" x2="160.17" y2="466.78" stroke="#352013" stroke-width="2.8" stroke-linecap="round" opacity="0.75"/>
<line x1="160.17" y1="590.96" x2="160.17" y2="632.35" stroke="#956041" stroke-width="14.07" stroke-linecap="round"/>
<line x1="160.17" y1="590.96" x2="160.17" y2="632.35" stroke="#352013" stroke-width="2.8" stroke-linecap="round" opacity="0.75"/>
<line x1="532.70" y1="94.26" x2="532.70" y2="177.04" stroke="#956041" stroke-width="14.07" stroke-linecap="round"/>
<line x1="532.70" y1="94.26" x2="532.70" y2="177.04" stroke="#352013" stroke-width="2.8" stroke-linecap="round" opacity="0.75"/>
<line x1="532.70" y1="259.83" x2="532.70" y2="301.22" stroke="#956041" stroke-width="14.07" stroke-linecap="round"/>
<line x1="532.70" y1="259.83" x2="532.70" y2="301.22" stroke="#352013" stroke-width="2.8" stroke-linecap="round" opacity="0.75"/>
<line x1="532.70" y1="342.61" x2="532.70" y2="384.00" stroke="#956041" stroke-width="14.07" stroke-linecap="round"/>
<line x1="532.70" y1="342.61" x2="532.70" y2="384.00" stroke="#352013" stroke-width="2.8" stroke-linecap="round" opacity="0.75"/>
<line x1="532.70" y1="508.17" x2="532.70" y2="673.74" stroke="#956041" stroke-width="14.07" stroke-linecap="round"/>
<line x1="532.70" y1="508.17" x2="532.70" y2="673.74" stroke="#352013" stroke-width="2.8" stroke-linecap="round" opacity="0.75"/>
<line x1="615.48" y1="94.26" x2="615.48" y2="135.65" stroke="#956041" stroke-width="14.07" stroke-linecap="round"/>
<line x1="615.48" y1="94.26" x2="615.48" y2="135.65" stroke="#352013" stroke-width="2.8" stroke-linecap="round" opacity="0.75"/>
<line x1="615.48" y1="259.83" x2="615.48" y2="425.39" stroke="#956041" stroke-width="14.07" stroke-linecap="round"/>
<line x1="615.48" y1="259.83" x2="615.48" y2="425.39" stroke="#352013" stroke-width="2.8" stroke-linecap="round" opacity="0.75"/>
<line x1="615.48" y1="466.78" x2="615.48" y2="632.35" stroke="#956041" stroke-width="14.07" stroke-linecap="round"/>
<line x1="615.48" y1="466.78" x2="615.48" y2="632.35" stroke="#352013" stroke-width="2.8" stroke-linecap="round" opacity="0.75"/>
<line x1="781.04" y1="94.26" x2="781.04" y2="135.65" stroke="#956041" stroke-width="14.07" stroke-linecap="round"/>
<line x1="781.04" y1="94.26" x2="781.04" y2="135.65" stroke="#352013" stroke-width="2.8" stroke-linecap="round" opacity="0.75"/>
<line x1="781.04" y1="218.43" x2="781.04" y2="301.22" stroke="#956041" stroke-width="14.07" stroke-linecap="round"/>
<line x1="781.04" y1="218.43" x2="781.04" y2="301.22" stroke="#352013" stroke-width="2.8" stroke-linecap="round" opacity="0.75"/>
<line x1="781.04" y1="342.61" x2="781.04" y2="425.39" stroke="#956041" stroke-width="14.07" stroke-linecap="round"/>
<line x1="781.04" y1="342.61" x2="781.04" y2="425.39" stroke="#352013" stroke-width="2.8" stroke-linecap="round" opacity="0.75"/>
<line x1="781.04" y1="549.57" x2="781.04" y2="590.96" stroke="#956041" stroke-width="14.07" stroke-linecap="round"/>
<line x1="781.04" y1="549.57" x2="781.04" y2="590.96" stroke="#352013" stroke-width="2.8" stroke-linecap="round" opacity="0.75"/>
<line x1="946.61" y1="94.26" x2="946.61" y2="135.65" stroke="#956041" stroke-width="14.07" stroke-linecap="round"/>
<line x1="946.61" y1="94.26" x2="946.61" y2="135.65" stroke="#352013" stroke-width="2.8" stroke-linecap="round" opacity="0.75"/>
<line x1="946.61" y1="259.83" x2="946.61" y2="342.61" stroke="#956041" stroke-width="14.07" stroke-linecap="round"/>
<line x1="946.61" y1="259.83" x2="946.61" y2="342.61" stroke="#352013" stroke-width="2.8" stroke-linecap="round" opacity="0.75"/>
<line x1="946.61" y1="384.00" x2="946.61" y2="466.78" stroke="#956041" stroke-width="14.07" stroke-linecap="round"/>
<line x1="946.61" y1="384.00" x2="946.61" y2="466.78" stroke="#352013" stroke-width="2.8" stroke-linecap="round" opacity="0.75"/>
<line x1="946.61" y1="508.17" x2="946.61" y2="549.57" stroke="#956041" stroke-width="14.07" stroke-linecap="round"/>
<line x1="946.61" y1="508.17" x2="946.61" y2="549.57" stroke="#352013" stroke-width="2.8" stroke-linecap="round" opacity="0.75"/>
<line x1="946.61" y1="590.96" x2="946.61" y2="673.74" stroke="#956041" stroke-width="14.07" stroke-linecap="round"/>
<line x1="946.61" y1="590.96" x2="946.61" y2="673.74" stroke="#352013" stroke-width="2.8" stroke-linecap="round" opacity="0.75"/>
<line x1="988.00" y1="94.26" x2="988.00" y2="673.74" stroke="#956041" stroke-width="14.07" stroke-linecap="round"/>
<line x1="988.00" y1="94.26" x2="988.00" y2="673.74" stroke="#352013" stroke-width="2.8" stroke-linecap="round" opacity="0.75"/>
<line x1="77.39" y1="135.65" x2="77.39" y2="177.04" stroke="#956041" stroke-width="14.07" stroke-linecap="round"/>
<line x1="77.39" y1="135.65" x2="77.39" y2="177.04" stroke="#352013" stroke-width="2.8" stroke-linecap="round" opacity="0.75"/>
<line x1="77.39" y1="218.43" x2="77.39" y2="342.61" stroke="#956041" stroke-width="14.07" stroke-linecap="round"/>
<line x1="77.39" y1="218.43" x2="77.39" y2="342.61" stroke="#352013" stroke-width="2.8" stroke-linecap="round" opacity="0.75"/>
<line x1="77.39" y1="425.39" x2="77.39" y2="466.78" stroke="#956041" stroke-width="14.07" stroke-linecap="round"/>
<line x1="77.39" y1="425.39" x2="77.39" y2="466.78" stroke="#352013" stroke-width="2.8" stroke-linecap="round" opacity="0.75"/>
<line x1="77.39" y1="508.17" x2="77.39" y2="632.35" stroke="#956041" stroke-width="14.07" stroke-linecap="round"/>
<line x1="77.39" y1="508.17" x2="77.39" y2="632.35" stroke="#352013" stroke-width="2.8" stroke-linecap="round" opacity="0.75"/>
<line x1="118.78" y1="135.65" x2="118.78" y2="177.04" stroke="#956041" stroke-width="14.07" stroke-linecap="round"/>
<line x1="118.78" y1="135.65" x2="118.78" y2="177.04" stroke="#352013" stroke-width="2.8" stroke-linecap="round" opacity="0.75"/>
<line x1="118.78" y1="259.83" x2="118.78" y2="301.22" stroke="#956041" stroke-width="14.07" stroke-linecap="round"/>
<line x1="118.78" y1="259.83" x2="118.78" y2="301.22" stroke="#352013" stroke-width="2.8" stroke-linecap="round" opacity="0.75"/>
<line x1="118.78" y1="384.00" x2="118.78" y2="425.39" stroke="#956041" stroke-width="14.07" stroke-linecap="round"/>
<line x1="118.78" y1="384.00" x2="118.78" y2="425.39" stroke="#352013" stroke-width="2.8" stroke-linecap="round" opacity="0.75"/>
<line x1="118.78" y1="466.78" x2="118.78" y2="590.96" stroke="#956041" stroke-width="14.07" stroke-linecap="round"/>
<line x1="118.78" y1="466.78" x2="118.78" y2="590.96" stroke="#352013" stroke-width="2.8" stroke-linecap="round" opacity="0.75"/>
<line x1="242.96" y1="135.65" x2="242.96" y2="177.04" stroke="#956041" stroke-width="14.07" stroke-linecap="round"/>
<line x1="242.96" y1="135.65" x2="242.96" y2="177.04" stroke="#352013" stroke-width="2.8" stroke-linecap="round" opacity="0.75"/>
<line x1="242.96" y1="384.00" x2="242.96" y2="508.17" stroke="#956041" stroke-width="14.07" stroke-linecap="round"/>
<line x1="242.96" y1="384.00" x2="242.96" y2="508.17" stroke="#352013" stroke-width="2.8" stroke-linecap="round" opacity="0.75"/>
<line x1="242.96" y1="632.35" x2="242.96" y2="673.74" stroke="#956041" stroke-width="14.07" stroke-linecap="round"/>
<line x1="242.96" y1="632.35" x2="242.96" y2="673.74" stroke="#352013" stroke-width="2.8" stroke-linecap="round" opacity="0.75"/>
<line x1="284.35" y1="135.65" x2="284.35" y2="218.43" stroke="#956041" stroke-width="14.07" stroke-linecap="round"/>
<line x1="284.35" y1="135.65" x2="284.35" y2="218.43" stroke="#352013" stroke-width="2.8" stroke-linecap="round" opacity="0.75"/>
<line x1="284.35" y1="425.39" x2="284.35" y2="466.78" stroke="#956041" stroke-width="14.07" stroke-linecap="round"/>
<line x1="284.35" y1="425.39" x2="284.35" y2="466.78" stroke="#352013" stroke-width="2.8" stroke-linecap="round" opacity="0.75"/>
<line x1="284.35" y1="508.17" x2="284.35" y2="632.35" stroke="#956041" stroke-width="14.07" stroke-linecap="round"/>
<line x1="284.35" y1="508.17" x2="284.35" y2="632.35" stroke="#352013" stroke-width="2.8" stroke-linecap="round" opacity="0.75"/>
<line x1="408.52" y1="135.65" x2="408.52" y2="259.83" stroke="#956041" stroke-width="14.07" stroke-linecap="round"/>
<line x1="408.52" y1="135.65" x2="408.52" y2="259.83" stroke="#352013" stroke-width="2.8" stroke-linecap="round" opacity="0.75"/>
<line x1="408.52" y1="342.61" x2="408.52" y2="384.00" stroke="#956041" stroke-width="14.07" stroke-linecap="round"/>
<line x1="408.52" y1="342.61" x2="408.52" y2="384.00" stroke="#352013" stroke-width="2.8" stroke-linecap="round" opacity="0.75"/>
<line x1="408.52" y1="466.78" x2="408.52" y2="590.96" stroke="#956041" stroke-width="14.07" stroke-linecap="round"/>
<line x1="408.52" y1="466.78" x2="408.52" y2="590.96" stroke="#352013" stroke-width="2.8" stroke-linecap="round" opacity="0.75"/>
<line x1="574.09" y1="135.65" x2="574.09" y2="177.04" stroke="#956041" stroke-width="14.07" stroke-linecap="round"/>
<line x1="574.09" y1="135.65" x2="574.09" y2="177.04" stroke="#352013" stroke-width="2.8" stroke-linecap="round" opacity="0.75"/>
<line x1="574.09" y1="218.43" x2="574.09" y2="301.22" stroke="#956041" stroke-width="14.07" stroke-linecap="round"/>
<line x1="574.09" y1="218.43" x2="574.09" y2="301.22" stroke="#352013" stroke-width="2.8" stroke-linecap="round" opacity="0.75"/>
<line x1="574.09" y1="384.00" x2="574.09" y2="508.17" stroke="#956041" stroke-width="14.07" stroke-linecap="round"/>
<line x1="574.09" y1="384.00" x2="574.09" y2="508.17" stroke="#352013" stroke-width="2.8" stroke-linecap="round" opacity="0.75"/>
<line x1="574.09" y1="549.57" x2="574.09" y2="632.35" stroke="#956041" stroke-width="14.07" stroke-linecap="round"/>
<line x1="574.09" y1="549.57" x2="574.09" y2="632.35" stroke="#352013" stroke-width="2.8" stroke-linecap="round" opacity="0.75"/>
<line x1="656.87" y1="135.65" x2="656.87" y2="218.43" stroke="#956041" stroke-width="14.07" stroke-linecap="round"/>
<line x1="656.87" y1="135.65" x2="656.87" y2="218.43" stroke="#352013" stroke-width="2.8" stroke-linecap="round" opacity="0.75"/>
<line x1="656.87" y1="342.61" x2="656.87" y2="466.78" stroke="#956041" stroke-width="14.07" stroke-linecap="round"/>
<line x1="656.87" y1="342.61" x2="656.87" y2="466.78" stroke="#352013" stroke-width="2.8" stroke-linecap="round" opacity="0.75"/>
<line x1="656.87" y1="508.17" x2="656.87" y2="549.57" stroke="#956041" stroke-width="14.07" stroke-linecap="round"/>
<line x1="656.87" y1="508.17" x2="656.87" y2="549.57" stroke="#352013" stroke-width="2.8" stroke-linecap="round" opacity="0.75"/>
<line x1="656.87" y1="590.96" x2="656.87" y2="632.35" stroke="#956041" stroke-width="14.07" stroke-linecap="round"/>
<line x1="656.87" y1="590.96" x2="656.87" y2="632.35" stroke="#352013" stroke-width="2.8" stroke-linecap="round" opacity="0.75"/>
<line x1="739.65" y1="135.65" x2="739.65" y2="177.04" stroke="#956041" stroke-width="14.07" stroke-linecap="round"/>
<line x1="739.65" y1="135.65" x2="739.65" y2="177.04" stroke="#352013" stroke-width="2.8" stroke-linecap="round" opacity="0.75"/>
<line x1="739.65" y1="259.83" x2="739.65" y2="384.00" stroke="#956041" stroke-width="14.07" stroke-linecap="round"/>
<line x1="739.65" y1="259.83" x2="739.65" y2="384.00" stroke="#352013" stroke-width="2.8" stroke-linecap="round" opacity="0.75"/>
<line x1="739.65" y1="425.39" x2="739.65" y2="466.78" stroke="#956041" stroke-width="14.07" stroke-linecap="round"/>
<line x1="739.65" y1="425.39" x2="739.65" y2="466.78" stroke="#352013" stroke-width="2.8" stroke-linecap="round" opacity="0.75"/>
<line x1="905.22" y1="135.65" x2="905.22" y2="177.04" stroke="#956041" stroke-width="14.07" stroke-linecap="round"/>
<line x1="905.22" y1="135.65" x2="905.22" y2="177.04" stroke="#352013" stroke-width="2.8" stroke-linecap="round" opacity="0.75"/>
<line x1="905.22" y1="384.00" x2="905.22" y2="425.39" stroke="#956041" stroke-width="14.07" stroke-linecap="round"/>
<line x1="905.22" y1="384.00" x2="905.22" y2="425.39" stroke="#352013" stroke-width="2.8" stroke-linecap="round" opacity="0.75"/>
<line x1="367.13" y1="177.04" x2="367.13" y2="301.22" stroke="#956041" stroke-width="14.07" stroke-linecap="round"/>
<line x1="367.13" y1="177.04" x2="367.13" y2="301.22" stroke="#352013" stroke-width="2.8" stroke-linecap="round" opacity="0.75"/>
<line x1="367.13" y1="342.61" x2="367.13" y2="384.00" stroke="#956041" stroke-width="14.07" stroke-linecap="round"/>
<line x1="367.13" y1="342.61" x2="367.13" y2="384.00" stroke="#352013" stroke-width="2.8" stroke-linecap="round" opacity="0.75"/>
<line x1="367.13" y1="425.39" x2="367.13" y2="466.78" stroke="#956041" stroke-width="14.07" stroke-linecap="round"/>
<line x1="367.13" y1="425.39" x2="367.13" y2="466.78" stroke="#352013" stroke-width="2.8" stroke-linecap="round" opacity="0.75"/>
<line x1="367.13" y1="549.57" x2="367.13" y2="590.96" stroke="#956041" stroke-width="14.07" stroke-linecap="round"/>
<line x1="367.13" y1="549.57" x2="367.13" y2="590.96" stroke="#352013" stroke-width="2.8" stroke-linecap="round" opacity="0.75"/>
<line x1="449.91" y1="177.04" x2="449.91" y2="218.43" stroke="#956041" stroke-width="14.07" stroke-linecap="round"/>
<line x1="449.91" y1="177.04" x2="449.91" y2="218.43" stroke="#352013" stroke-width="2.8" stroke-linecap="round" opacity="0.75"/>
<line x1="449.91" y1="259.83" x2="449.91" y2="466.78" stroke="#956041" stroke-width="14.07" stroke-linecap="round"/>
<line x1="449.91" y1="259.83" x2="449.91" y2="466.78" stroke="#352013" stroke-width="2.8" stroke-linecap="round" opacity="0.75"/>
<line x1="449.91" y1="549.57" x2="449.91" y2="590.96" stroke="#956041" stroke-width="14.07" stroke-linecap="round"/>
<line x1="449.91" y1="549.57" x2="449.91" y2="590.96" stroke="#352013" stroke-width="2.8" stroke-linecap="round" opacity="0.75"/>
<line x1="698.26" y1="177.04" x2="698.26" y2="259.83" stroke="#956041" stroke-width="14.07" stroke-linecap="round"/>
<line x1="698.26" y1="177.04" x2="698.26" y2="259.83" stroke="#352013" stroke-width="2.8" stroke-linecap="round" opacity="0.75"/>
<line x1="698.26" y1="466.78" x2="698.26" y2="508.17" stroke="#956041" stroke-width="14.07" stroke-linecap="round"/>
<line x1="698.26" y1="466.78" x2="698.26" y2="508.17" stroke="#352013" stroke-width="2.8" stroke-linecap="round" opacity="0.75"/>
<line x1="698.26" y1="549.57" x2="698.26" y2="632.35" stroke="#956041" stroke-width="14.07" stroke-linecap="round"/>
<line x1="698.26" y1="549.57" x2="698.26" y2="632.35" stroke="#352013" stroke-width="2.8" stroke-linecap="round" opacity="0.75"/>
<line x1="822.43" y1="177.04" x2="822.43" y2="218.43" stroke="#956041" stroke-width="14.07" stroke-linecap="round"/>
<line x1="822.43" y1="177.04" x2="822.43" y2="218.43" stroke="#352013" stroke-width="2.8" stroke-linecap="round" opacity="0.75"/>
<line x1="822.43" y1="259.83" x2="822.43" y2="301.22" stroke="#956041" stroke-width="14.07" stroke-linecap="round"/>
<line x1="822.43" y1="259.83" x2="822.43" y2="301.22" stroke="#352013" stroke-width="2.8" stroke-linecap="round" opacity="0.75"/>
<line x1="822.43" y1="384.00" x2="822.43" y2="425.39" stroke="#956041" stroke-width="14.07" stroke-linecap="round"/>
<line x1="822.43" y1="384.00" x2="822.43" y2="425.39" stroke="#352013" stroke-width="2.8" stroke-linecap="round" opacity="0.75"/>
<line x1="822.43" y1="590.96" x2="822.43" y2="632.35" stroke="#956041" stroke-width="14.07" stroke-linecap="round"/>
<line x1="822.43" y1="590.96" x2="822.43" y2="632.35" stroke="#352013" stroke-width="2.8" stroke-linecap="round" opacity="0.75"/>
<line x1="863.83" y1="218.43" x2="863.83" y2="259.83" stroke="#956041" stroke-width="14.07" stroke-linecap="round"/>
<line x1="863.83" y1="218.43" x2="863.83" y2="259.83" stroke="#352013" stroke-width="2.8" stroke-linecap="round" opacity="0.75"/>
<line x1="863.83" y1="342.61" x2="863.83" y2="384.00" stroke="#956041" stroke-width="14.07" stroke-linecap="round"/>
<line x1="863.83" y1="342.61" x2="863.83" y2="384.00" stroke="#352013" stroke-width="2.8" stroke-linecap="round" opacity="0.75"/>
<line x1="325.74" y1="259.83" x2="325.74" y2="342.61" stroke="#956041" stroke-width="14.07" stroke-linecap="round"/>
<line x1="325.74" y1="259.83" x2="325.74" y2="342.61" stroke="#352013" stroke-width="2.8" stroke-linecap="round" opacity="0.75"/>
<line x1="325.74" y1="384.00" x2="325.74" y2="425.39" stroke="#956041" stroke-width="14.07" stroke-linecap="round"/>
<line x1="325.74" y1="384.00" x2="325.74" y2="425.39" stroke="#352013" stroke-width="2.8" stroke-linecap="round" opacity="0.75"/>
<line x1="325.74" y1="466.78" x2="325.74" y2="549.57" stroke="#956041" stroke-width="14.07" stroke-linecap="round"/>
<line x1="325.74" y1="466.78" x2="325.74" y2="549.57" stroke="#352013" stroke-width="2.8" stroke-linecap="round" opacity="0.75"/>
<line x1="201.57" y1="301.22" x2="201.57" y2="384.00" stroke="#956041" stroke-width="14.07" stroke-linecap="round"/>
<line x1="201.57" y1="301.22" x2="201.57" y2="384.00" stroke="#352013" stroke-width="2.8" stroke-linecap="round" opacity="0.75"/>
<line x1="201.57" y1="425.39" x2="201.57" y2="632.35" stroke="#956041" stroke-width="14.07" stroke-linecap="round"/>
<line x1="201.57" y1="425.39" x2="201.57" y2="632.35" stroke="#352013" stroke-width="2.8" stroke-linecap="round" opacity="0.75"/>
<line x1="491.30" y1="301.22" x2="491.30" y2="342.61" stroke="#956041" stroke-width="14.07" stroke-linecap="round"/>
<line x1="491.30" y1="301.22" x2="491.30" y2="342.61" stroke="#352013" stroke-width="2.8" stroke-linecap="round" opacity="0.75"/>
<line x1="491.30" y1="425.39" x2="491.30" y2="508.17" stroke="#956041" stroke-width="14.07" stroke-linecap="round"/>
<line x1="491.30" y1="425.39" x2="491.30" y2="508.17" stroke="#352013" stroke-width="2.8" stroke-linecap="round" opacity="0.75"/>
<line x1="491.30" y1="549.57" x2="491.30" y2="632.35" stroke="#956041" stroke-width="14.07" stroke-linecap="round"/>
<line x1="491.30" y1="549.57" x2="491.30" y2="632.35" stroke="#352013" stroke-width="2.8" stroke-linecap="round" opacity="0.75"/>
<rect x="36.00" y="94.26" width="952.00" height="579.48" rx="20" fill="none" stroke="#352013" stroke-width="4" opacity="0.5"/>
<ellipse cx="470.61" cy="528.87" rx="8.28" ry="11.59" fill="#dddca8" stroke="#352013" stroke-width="1.6" opacity="0.92"/>
<ellipse cx="468.54" cy="525.97" rx="1.49" ry="1.39" fill="#ffffff" opacity="0.35"/>
<ellipse cx="636.17" cy="611.65" rx="8.28" ry="11.59" fill="#efe2bf" stroke="#352013" stroke-width="1.6" opacity="0.92"/>
<ellipse cx="634.10" cy="608.75" rx="1.49" ry="1.39" fill="#ffffff" opacity="0.35"/>
<ellipse cx="801.74" cy="114.96" rx="8.28" ry="11.59" fill="#dddca8" stroke="#352013" stroke-width="1.6" opacity="0.92"/>
<ellipse cx="799.67" cy="112.06" rx="1.49" ry="1.39" fill="#ffffff" opacity="0.35"/>
<ellipse cx="222.26" cy="404.70" rx="8.28" ry="11.59" fill="#f7ecd6" stroke="#352013" stroke-width="1.6" opacity="0.92"/>
<ellipse cx="220.19" cy="401.80" rx="1.49" ry="1.39" fill="#ffffff" opacity="0.35"/>
<ellipse cx="56.70" cy="363.30" rx="8.28" ry="11.59" fill="#efe2bf" stroke="#352013" stroke-width="1.6" opacity="0.92"/>
<ellipse cx="54.63" cy="360.41" rx="1.49" ry="1.39" fill="#ffffff" opacity="0.35"/>
<ellipse cx="553.39" cy="363.30" rx="8.28" ry="11.59" fill="#dddca8" stroke="#352013" stroke-width="1.6" opacity="0.92"/>
<ellipse cx="551.32" cy="360.41" rx="1.49" ry="1.39" fill="#ffffff" opacity="0.35"/>
<polygon points="594.78,644.77 600.58,651.39 598.51,661.32 591.06,661.32 588.99,651.39" fill="#8bd4ff" stroke="#352013" stroke-width="1.8" opacity="0.9"/>
<polygon points="718.96,313.63 724.75,320.26 722.68,330.19 715.23,330.19 713.16,320.26" fill="#8bd4ff" stroke="#352013" stroke-width="1.8" opacity="0.9"/>
<polygon points="98.09,189.46 103.88,196.08 101.81,206.02 94.36,206.02 92.29,196.08" fill="#d498ff" stroke="#352013" stroke-width="1.8" opacity="0.9"/>
<polygon points="843.13,148.07 848.93,154.69 846.86,164.63 839.41,164.63 837.34,154.69" fill="#8bd4ff" stroke="#352013" stroke-width="1.8" opacity="0.9"/>
<line x1="463.99" y1="119.92" x2="477.23" y2="109.99" stroke="#efe8db" stroke-width="5" stroke-linecap="round"/>
<circle cx="461.99" cy="117.92" r="3" fill="#efe8db"/><circle cx="465.99" cy="121.92" r="3" fill="#efe8db"/>
<circle cx="475.23" cy="107.99" r="3" fill="#efe8db"/><circle cx="479.23" cy="111.99" r="3" fill="#efe8db"/>
<line x1="836.51" y1="658.01" x2="849.75" y2="648.08" stroke="#efe8db" stroke-width="5" stroke-linecap="round"/>
<circle cx="834.51" cy="656.01" r="3" fill="#efe8db"/><circle cx="838.51" cy="660.01" r="3" fill="#efe8db"/>
<circle cx="847.75" cy="646.08" r="3" fill="#efe8db"/><circle cx="851.75" cy="650.08" r="3" fill="#efe8db"/>
<line x1="91.46" y1="119.92" x2="104.71" y2="109.99" stroke="#efe8db" stroke-width="5" stroke-linecap="round"/>
<circle cx="89.46" cy="117.92" r="3" fill="#efe8db"/><circle cx="93.46" cy="121.92" r="3" fill="#efe8db"/>
<circle cx="102.71" cy="107.99" r="3" fill="#efe8db"/><circle cx="106.71" cy="111.99" r="3" fill="#efe8db"/>
<path d="M 180.87 638.56 C 176.73 649.73, 185.01 653.04, 180.87 664.63" fill="none" stroke="#c58853" stroke-width="2.4" opacity="0.65"/>
<path d="M 177.56 653.87 L 173.42 659.25 M 184.18 653.87 L 188.32 659.25" fill="none" stroke="#c58853" stroke-width="2" opacity="0.6"/>
<path d="M 346.43 597.17 C 342.30 608.34, 350.57 611.65, 346.43 623.24" fill="none" stroke="#c58853" stroke-width="2.4" opacity="0.65"/>
<path d="M 343.12 612.48 L 338.98 617.86 M 349.75 612.48 L 353.89 617.86" fill="none" stroke="#c58853" stroke-width="2" opacity="0.6"/>
<path d="M 470.61 390.21 C 466.47 401.38, 474.75 404.70, 470.61 416.29" fill="none" stroke="#c58853" stroke-width="2.4" opacity="0.65"/>
<path d="M 467.30 405.52 L 463.16 410.90 M 473.92 405.52 L 478.06 410.90" fill="none" stroke="#c58853" stroke-width="2" opacity="0.6"/>
<path d="M 180.87 100.47 C 176.73 111.65, 185.01 114.96, 180.87 126.55" fill="none" stroke="#c58853" stroke-width="2.4" opacity="0.65"/>
<path d="M 177.56 115.78 L 173.42 121.17 M 184.18 115.78 L 188.32 121.17" fill="none" stroke="#c58853" stroke-width="2" opacity="0.6"/>
<path d="M 843.13 555.77 C 838.99 566.95, 847.27 570.26, 843.13 581.85" fill="none" stroke="#c58853" stroke-width="2.4" opacity="0.65"/>
<path d="M 839.82 571.09 L 835.68 576.47 M 846.44 571.09 L 850.58 576.47" fill="none" stroke="#c58853" stroke-width="2" opacity="0.6"/>
<circle cx="56.70" cy="114.96" r="9.11" fill="#67d36d" stroke="#352013" stroke-width="2" opacity="0.9"/>
<circle cx="967.30" cy="653.04" r="9.11" fill="#ff8c75" stroke="#352013" stroke-width="2" opacity="0.9"/>
</svg>